<?xml version="1.0" encoding="UTF-8" ?>
<svg version="1.1" viewBox="0 0 167 32" xmlns="http://www.w3.org/2000/svg">
 <g clip-rule="evenodd" fill-rule="evenodd" fill="#fff">
  <path
      d="m150.45 4.8192v9.5952h1.922c1.825 0 2.937-0.8039 2.937-3.3002v-3.0793c0-2.233-0.758-3.2158-2.493-3.2158h-2.366zm5.354 26.778c-0.27-0.8026-0.453-1.2939-0.453-3.8367v-4.9124c0-2.8976-0.976-3.9676-3.206-3.9676h-1.695v12.717h-4.9v-31.24h7.394c5.084 0 7.267 2.3654 7.267 7.1862v2.4541c0 3.213-1.023 5.3081-3.208 6.3401 2.45 1.0222 3.255 3.3875 3.255 6.647v4.8208c0 1.5164 0.043 2.6315 0.532 3.7917h-4.986z"
    />
  <path
      d="m132.49 0.35748v24.1c0 2.233 0.981 3.0341 2.54 3.0341 1.561 0 2.541-0.8011 2.541-3.0341v-24.1h4.634v23.789c0 4.9968-2.496 7.8536-7.307 7.8536-4.815 0-7.309-2.8568-7.309-7.8536v-23.789h4.901z"
    />
  <path
      d="m117.74 0c4.768 0 7.22 2.8568 7.22 7.8578v0.97853h-4.636v-1.2939c0-2.2316-0.89-3.0806-2.449-3.0806-1.56 0-2.453 0.849-2.453 3.0806 0 6.4274 9.583 7.6326 9.583 16.558 0 4.9996-2.497 7.8536-7.31 7.8536-4.814 0-7.309-2.854-7.309-7.8536v-1.9177h4.634v2.2288c0 2.2345 0.981 3.037 2.542 3.037 1.558 0 2.543-0.8025 2.543-3.037 0-6.4273-9.586-7.6283-9.586-16.553 0-5.0011 2.452-7.8578 7.221-7.8578z"
    />
  <path
      d="m101.34 31.639-10.554-31.198h-0.052v-0.040831h-4.8927v31.238h4.8927v-17.111l5.656 17.111h4.95z"
    />
  <path
      d="m73.09 4.8192v9.5952h1.9177c1.8263 0 2.9398-0.8039 2.9398-3.3002v-3.0793c0-2.233-0.7578-3.2158-2.4955-3.2158h-2.362zm5.3482 26.778c-0.2658-0.8026-0.4485-1.2939-0.4485-3.8367v-4.9124c0-2.8976-0.98-3.9676-3.207-3.9676h-1.6927v12.717h-4.9011v-31.24h7.398c5.0769 0 7.2631 2.3654 7.2631 7.1862v2.4541c0 3.213-1.0249 5.3081-3.2084 6.3401 2.4506 1.0222 3.2534 3.3875 3.2534 6.647v4.8208c0 1.5164 0.045 2.6315 0.5356 3.7917h-4.9924z"
    />
  <path
      d="m56.688 13.524h6.733v4.4605h-6.733v9.1503h8.4722v4.4618h-13.372v-31.24h13.372v4.4618h-8.4722v8.7054z"
    />
  <path
      d="m38.508 4.8192v22.316h2.7668c1.5578 0 2.4928-0.8039 2.4928-3.0355v-16.242c0-2.2344-0.935-3.0384-2.4928-3.0384h-2.7668zm-4.9025-4.4618h7.7537c4.9067 0 7.3108 2.7202 7.3108 7.7198v15.8c0 4.9983-2.4041 7.7199-7.3108 7.7199h-7.7537v-31.24z"
    />
  <path
      d="m31.336 31.639-10.554-31.198h-0.052v-0.040831h-4.8898v31.238h4.8898v-17.111l5.6603 17.111h4.9461z"
    />
  <path d="M0 0.336517V31.2804H12.9532V26.8608H4.89083V0.336517H0Z" />
 </g>
</svg>
