<?xml version="1.0" encoding="UTF-8" ?>
<svg
  fill="rgba(255,255,255,1)"
  version="1.1"
  viewBox="0 0 24 24"
  xmlns="http://www.w3.org/2000/svg"
>
 <path
    d="m18.336 18.339h-2.6655v-4.1768c0-0.996-0.0202-2.2777-1.389-2.2777-1.3897 0-1.602 1.0838-1.602 2.2042v4.2503h-2.6655v-8.589h2.5605v1.1707h0.0345c0.3578-0.675 1.2278-1.3874 2.5275-1.3874 2.7008 0 3.2003 1.7776 3.2003 4.0912v4.7145h-8e-4zm-11.332-9.7642c-0.858 0-1.5472-0.6945-1.5472-1.5488 0-0.8535 0.69-1.5472 1.5472-1.5472 0.855 0 1.548 0.69375 1.548 1.5472 0 0.85425-0.69375 1.5488-1.548 1.5488zm1.3365 9.7642h-2.673v-8.589h2.673v8.589zm11.329-15.339h-15.34c-0.73425 0-1.3282 0.5805-1.3282 1.2968v15.407c0 0.7169 0.594 1.2967 1.3282 1.2967h15.338c0.7335 0 1.3335-0.5798 1.3335-1.2967v-15.407c0-0.71625-0.6-1.2968-1.3335-1.2968h0.0022z"
  />
</svg>
