<?xml version="1.0" encoding="UTF-8" ?>
<svg
  fill="none"
  version="1.1"
  viewBox="0 0 149 50"
  xmlns="http://www.w3.org/2000/svg"
>
 <path
    d="m13.054 40.003c3.0958 0.3951 5.697-0.1646 6.6107-0.4938 0.3493 1.454 1.693 4.362 3.6278 4.7736 1.9349 0.4115 2.4992-0.9877 2.4992-0.9877s0.7256 1.1523 1.5317 1.6461c0.7006 0.4291 0.7924 0.7961 0.9632 1.479v2e-4l1e-4 6e-4c0.0257 0.1027 0.0532 0.2125 0.0848 0.3308 0.2418 0.9053 1.2899 1.6461 1.8542 1.6461s1.1287 0 2.0155 0.4115c0.1186 0.055 0.2371 0.1144 0.3571 0.1745 0.7769 0.3895 1.6105 0.8074 2.8676 0.237 0.369-0.1674 0.6494-0.3455 0.9167-0.5152 0.7839-0.4979 1.4555-0.9244 3.9205-0.8017 3.3053 0.1647 7.0138-1.0699 7.4975-2.6336 0.3776-1.2208-1.5684-2.3841-2.6615-2.8475 0.1591 0.0358 0.5584 0.0403 1.3716-0.1154 1.2899-0.2469 3.0635-1.8929 3.6278-2.6337 0.1681-0.2206 0.472-0.3973 0.8202-0.5999 0.821-0.4776 1.8883-1.0985 2.0015-2.7744 0.129-1.9095-2.6058-2.716-4.1107-2.8806-3e-3 -0.0248-0.0074-0.0534-0.0124-0.0856v-4e-4c-0.039-0.2533-0.1123-0.7293 0.1736-1.3132 0.2654-0.5417 0.5303-0.5842 1.0482-0.6674 0.269-0.0431 0.6062-0.0972 1.047-0.2379 0.8454-0.2697 1.5522-1.1403 2.4837-2.2875 0.4898-0.6033 1.0417-1.2831 1.7085-1.9922 1.9349-2.0576-0.4837-3.7859-2.9829-4.1974-1.9993-0.3292-1.2621-2.9355-0.644-4.4443 0.9674-2.8806-1.4521-5.1028-2.742-4.4443-0.7177 0.3663-1.3453 0.2344-2.0054 0.0957-0.5263-0.1106-1.0733-0.2255-1.703-0.0957-2.7441 0.5653-4.5771 2.6225-5.9555 4.1696-0.0579 0.0651-0.1151 0.1293-0.1715 0.1924 0.137-0.4662 0.3085-1.0321 0.4971-1.6545 0.8105-2.6744 1.9374-6.3927 2.002-7.728 0.0798-1.646-1.5577-2.1124-2.5789-2.2222 0-0.46638-0.0746-1.935-0.7255-3.8682-0.6403-1.9014-0.9868-1.8295-1.8884-1.6425-0.3473 0.072007-0.7768 0.1611-1.3373 0.1611-1.6123 0-2.8754 2.8531-3.3053 4.2797-0.0592-0.10811-0.125-0.23029-0.1965-0.36307l-1e-4 -2e-4c-0.5455-1.0128-1.4229-2.6418-2.2211-3.3403-1.1287-0.98762-2.8969-1.7283-3.5473-0.82302-0.2745 0.38221-0.495 0.81176-0.7259 1.2618-0.5151 1.0035-1.0824 2.1088-2.4182 3.018-1.5478 1.0535-1.2907 4.4443-1.1295 6.0904-0.215-0.1098-0.8385-0.7078-1.6124-2.2222-0.1448-0.28333-0.2769-0.55376-0.4016-0.8088-0.7079-1.4488-1.1732-2.401-2.3385-2.401-1.4324 0-2.2555 3.3145-2.7297 5.2242l-2e-4 8e-4c-0.0325 0.131-0.0634 0.2554-0.0927 0.3716-0.1881 0-0.7739-0.4938-1.6124-1.8107-1.048-1.646-2.9829-3.539-5.2402-3.2098-2.2573 0.32921-2.9512 4.6632-2.4186 7.8188 0.38365 2.2729 1.9435 3.9895 3.0692 5.2284l1.5e-4 2e-4 3.8e-4 4e-4c0.17111 0.1883 0.33218 0.3656 0.47756 0.5321-1.9352-1.2345-7.2548-1.8929-8.0615-1.2345-0.80668 0.6584-0.72744 2.1398 0.1595 5.4319 0.6615 2.4554 2.1696 3.5277 3.0458 4.1507 0.06364 0.0453 0.12395 0.0882 0.18036 0.129-1.5586-0.0548-4.4179 0.642-3.386 3.8682 1.0319 3.2263 5.4283 4.3621 7.4975 4.5267 0 2.3867 1.9026 2.7324 4.9984 3.1274zm4.8379-4.115c-0.6181-0.2744-2.338-0.7078-4.2728-0.247-2.4186 0.5762-3.7085 0.5762-4.1116 0-0.20465-0.2924-0.6171-0.4364-1.0052-0.5719-0.37638-0.1314-0.72991-0.2549-0.84898-0.498-0.24186-0.4938 1.933-1.0699 3.7084-1.0699 1.7737 0 5.482 0.0823 6.5302 2.3868zm-11.449-11.44c1.0964 0.9218 5.4015 5.0479 7.4169 6.9957-2.1766 0.1646-8.7875-0.4115-9.1906-0.823-0.23997-0.245 0.20579-0.4316 0.844-0.6989 0.43383-0.1816 0.95659-0.4005 1.4133-0.7002 1.1287-0.7408 0.08192-1.9753-1.6917-2.5514-1.7736-0.5761-2.2577-1.9753-1.6135-2.716s1.451-0.6584 2.8215 0.4938zm5.7242 2.5514s-5.8175-4.7841-5.8842-5.2673c-0.06673-0.4833 1.2087-0.4938 2.6598 0.4938 1.4511 0.9876 3.2244 4.7735 3.2244 4.7735zm2.6614 2.0576c0.7976 1.6962 2.9285 3.6909 4.5407 5.1999l2e-4 2e-4c0.3433 0.3213 0.663 0.6205 0.9413 0.8902-0.6143-4.6412-3.4759-8.0397-5.6592-10.633-0.6818-0.8096-1.2973-1.5407-1.7577-2.2065-1.5454-2.2351-3.4509-6.6229-4.3607-8.718l-1.6e-4 -4e-4c-0.22918-0.5277-0.39518-0.91-0.47629-1.0756-0.40309-0.823-0.88667-0.5761-1.0479 0.3292s0.16098 1.893 0.72557 2.6337c1.5844 2.0787 2.4449 3.7077 3.4497 5.61 0.4379 0.829 0.9032 1.7099 1.4678 2.7025 0.8533 1.5002 1.1212 2.346 1.3938 3.2065 0.191 0.6029 0.3843 1.2132 0.7829 2.0609zm3.4668-3.2098c-1.1824-1.3443-3.5474-4.2797-4.6759-6.1727l-0.0721-0.1208c-1.187-1.99-4.2634-7.1471-3.3947-8.3563 0.4998-0.6958 1.0601-0.0488 1.723 0.7168 0.5132 0.5927 1.088 1.2565 1.7438 1.4231 0.4085 0.1038 0.84 0.0687 1.2482 0.0356 0.6946-0.0564 1.3219-0.1074 1.6542 0.5405 0.8866 1.7283 1.7735 11.934 1.7735 11.934zm1.1285-4.9382 3.386 17.201c0-0.3412 0.0203-0.8633 0.0455-1.5088l1e-4 -0.0011v-0.0011c0.0965-2.4695 0.2633-6.7424-0.3681-9.5998-0.7133-3.228-1.9349-5.0204-3.0635-6.0904zm5.482 8.5595s-0.6448-5.218-2.2571-7.6541c-2.0155-3.0452-3.2248-5.6789-3.6279-6.9957-0.4031-1.3169-0.9676-4.9382 0-3.8682 0.7806 0.8631 1.0734 2.1757 1.3443 3.3903 0.2402 1.0766 0.4632 2.0763 0.9936 2.6177 1.1286 1.1523 2.3379 1.1523 2.5798-0.2469 0.1935-1.1193-0.2419-6.2275-0.4837-8.6417 0.313 0.76701 0.5045 1.8318 0.7019 2.9295 0.3109 1.7291 0.6364 3.5396 1.4748 4.3954 0.5081 0.5187 1.2361 0.9602 1.6123 1.1522l-0.4837 8.8887c-1.218 0.9074-1.8543 4.0328-1.8543 4.0328zm0.6453-21.892c0 1.4485 1.5318 6.5841 1.5318 6.5841s0.1609-5.9257-0.2422-7.1602c-0.4031-1.2345-1.2896-1.2345-1.2896 0.57611zm3.1173-0.76628c-0.0488-0.22099-0.095-0.43024-0.1347-0.63283-0.2419-1.2345 0.8868-1.8106 1.5318 0 0.1391 0.39061 0.252 0.69695 0.3426 0.943 0.3296 0.89445 0.3655 0.99193 0.3023 1.4438-0.0645 0.46089-1.1017 2.3319-1.6123 3.2098 0.1347-2.4079-0.1811-3.8381-0.4297-4.9637zm1.397 16.404c-1.9993 2.7654-3.6278 8.0107-4.1921 10.288 0.2739-0.2858 0.5767-0.6195 0.9047-0.9809 1.1203-1.2344 2.5346-2.7927 4.0936-3.875 2.0155-1.3991 3.8697-4.1151 4.8372-5.8434 0.9674-1.7284 3.3053-8.724 2.4991-9.3002-0.5939-0.4244-1.7565 0.9825-2.7467 2.1806-0.3539 0.4282-0.6858 0.8298-0.9617 1.1115-0.5544 0.566-1.0637 1.3623-1.7904 2.4986-0.6471 1.0117-1.4665 2.2929-2.6437 3.921zm2.9023-14.65c-0.8062 1.454-2.5798 4.6748-3.2247 6.5842-0.645 1.9094-0.86 5.185-0.8868 6.5019 0.1341-0.1984 0.301-0.4334 0.4881-0.697 0.8999-1.2674 2.2694-3.1963 2.7366-4.8996 0.5643-2.0575 0.8868-5.7063 0.8868-7.4895zm3.0635-3.3744c-0.129 0.59258-1.1824 6.0629-1.693 8.7241 0.9943-1.0974 3.0958-3.3909 3.5473-3.7859 0.5643-0.49386 0.7255-1.6461-0.2419-1.6461-0.631 0-0.6103-0.77033-0.5868-1.6487 0.0126-0.46826 0.026-0.96722-0.0582-1.3965-0.2418-1.2345-0.8061-0.98763-0.9674-0.24691zm11.765 11.573 5e-4 -3e-4c0.689-0.4514 1.2039-0.7888 1.2948-0.8739 0.3357-0.3144-0.816-0.2473-1.532 0-0.1472 0.0509-0.3117 0.1261-0.4847 0.2052-0.6682 0.3055-1.4641 0.6694-1.8907-0.0848-0.2965-0.5242-0.8462-0.0837-0.93 0.3734-0.014 0.0765-0.038 0.2273-0.0695 0.4258l-2e-4 1e-3c-0.1193 0.7509-0.3472 2.1841-0.5573 2.8758 0.8116-0.7224 2.8227-2.04 4.1691-2.9222zm-7.6536 3.2409c-0.8062 1.2346-1.9349 4.362-1.9349 4.362s2.6605-2.3044 3.3054-3.6213c0.6449-1.3168-0.5643-1.9752-1.3705-0.7407zm-7.82 10.617-7.417 9.547s1.693-4.9381 4.031-7.3249c1.1237-1.1472 3.386-2.2221 3.386-2.2221zm-3.8697 12.674c-0.7321-0.2135-0.9072-0.5088-1.1032-0.839-0.1061-0.1789-0.2184-0.3681-0.4286-0.5601 3.5587 0.1961 8.5456 3.2921 8.7068 4.1151 0.1613 0.823-0.4837 1.7525-1.6123 1.646-0.684-0.0645-0.9319-0.4125-1.1598-0.7322-0.1481-0.2079-0.2878-0.4039-0.5332-0.5023-0.3156-0.1265-0.613-0.0404-0.9005 0.043-0.3266 0.0946-0.6404 0.1855-0.9538-0.043-0.208-0.1517-0.3495-0.5621-0.5142-1.04-0.2819-0.8181-0.632-1.8339-1.5012-2.0875zm14.673 2.2222s-1.3042 0.7687-3.2248 0.2469c-2.1287-0.5783-3.7466-1.8078-5.471-3.1183-0.3986-0.3028-0.8028-0.61-1.2203-0.9145-1.3544-0.9876-4.4341-1.7832-5.4015-1.893 0 0 2.8217-0.2647 4.9178 0.247 1.6094 0.3928 2.7632 1.2184 3.9682 2.0806 0.7854 0.5621 1.5926 1.1396 2.5619 1.623 1.6127 0.8042 3.8697 1.7283 3.8697 1.7283zm-5.2348-4.9332c1.2718 1.0203 2.3157 1.8577 3.9449 2.1349 0.3766 0.0641 0.4292-0.2627 0.4878-0.6268 0.0403-0.2509 0.0836-0.5196 0.2377-0.69 0.1676-0.1854 0.361-0.2387 0.5243-0.2837 0.2049-0.0565 0.3626-0.0999 0.3626-0.3747 0-0.4939-4.7321-1.9661-7.6588-1.7284 0.8156 0.5372 1.4853 1.0745 2.1015 1.5687zm-5.6488-6.1776c-1.1304 0.7696-0.6414 2.716 0.5663 2.716 1.2076 0 8.5456-0.2469 11.043-0.823 2.4976-0.5762 2.3929-1.9134-0.6449-3.4568-3.0378-1.5433-6.8361-1.4934-10.964 1.5638zm16.285-7.9834c-1.2092 0.3292-13.141 3.786-13.141 3.786 5.033-6.3859 9.8736-5.9637 11.777-5.7977 0.2308 0.0201 0.4183 0.0365 0.5578 0.0365 1.2899 0 2.0155 1.646 0.8062 1.9752zm-4.5146-4.6088c0.663 0.4569 1.2886 0.5763 2.4992 0.7407 0 0 2.5798-2.8806 2.8216-3.1275 0.2419-0.2469 0.4837-1.4814-0.8062-0.7407s-4.5146 3.1275-4.5146 3.1275zm7.82 5.4319-9.513 3.3744c0.3513 0 0.7541 0.0298 1.1929 0.0624 1.4406 0.1068 3.2688 0.2423 4.9341-0.5562 1.558-0.7471 2.7948-2.085 3.386-2.8806zm-6.2884 11.111c0.5643-0.6584 2.7252-0.8724 2.9832-0.4115 0.3225 0.5761-1.1288 1.4814-1.8544 1.4814s-1.6931-0.4115-1.1288-1.0699z"
    clip-rule="evenodd"
    fill="url(#paint0_linear_78_11388)"
    fill-rule="evenodd"
  />
 <g fill="#04A0C9">
  <path
      d="m67 9.8301v16.507h4.4837v-8.797l7.1415 8.797h3.7673v-16.507h-4.4837v8.797l-7.1416-8.797h-3.7672z"
    />
  <path
      d="m90.243 9.8301-7.1415 16.507h4.6686l1.2614-3.2071h6.8605l1.2615 3.2071h4.7608l-7.1645-16.507h-4.5068zm4.2948 9.8573-2.076-5.2782-2.0761 5.2782h4.1521z"
      clip-rule="evenodd"
      fill-rule="evenodd"
    />
  <path d="m102.63 9.8301v16.507h12.295v-3.7023h-7.719v-12.805h-4.576z" />
  <path
      d="m120.42 26.054c1.094 0.4088 2.28 0.6132 3.559 0.6132 1.495 0 2.827-0.2673 3.998-0.8018 1.187-0.5503 2.173-1.3206 2.959-2.311l-2.912-2.6884c-0.524 0.6289-1.102 1.1084-1.734 1.4385-0.616 0.3302-1.309 0.4953-2.08 0.4953-0.662 0-1.271-0.1101-1.826-0.3302-0.554-0.2201-1.032-0.5345-1.433-0.9433-0.385-0.4244-0.693-0.9275-0.924-1.5092-0.216-0.5817-0.324-1.2263-0.324-1.9337 0-0.7075 0.108-1.352 0.324-1.9337 0.231-0.5817 0.539-1.0769 0.924-1.4857 0.401-0.4245 0.879-0.7467 1.433-0.9668 0.555-0.2201 1.164-0.3302 1.826-0.3302 0.771 0 1.464 0.1651 2.08 0.4952 0.632 0.3302 1.21 0.8097 1.734 1.4385l2.912-2.6883c-0.786-1.0062-1.772-1.7765-2.959-2.311-1.171-0.53454-2.503-0.8018-3.998-0.8018-1.279 0-2.465 0.21224-3.559 0.6367-1.079 0.4088-2.019 0.9983-2.82 1.7686-0.786 0.7704-1.402 1.6822-1.849 2.7355-0.447 1.0376-0.67 2.1853-0.67 3.443s0.223 2.4132 0.67 3.4665c0.447 1.0376 1.063 1.9416 1.849 2.7119 0.801 0.7704 1.741 1.3678 2.82 1.7922z"
    />
  <path
      d="m141.84 9.8301h-4.506l-7.142 16.507h4.669l1.261-3.2071h6.861l1.261 3.2071h4.761l-7.165-16.507zm-0.212 9.8573-2.076-5.2782-2.076 5.2782h4.152z"
      clip-rule="evenodd"
      fill-rule="evenodd"
    />
 </g>
 <g fill="#3CAF86">
  <path
      d="m74.684 29.587v10.82h4.878c1.3331 0 2.3278-0.2525 2.9843-0.7574 0.6666-0.505 0.9998-1.216 0.9998-2.1331 0-0.6183-0.1363-1.1335-0.409-1.5457-0.2727-0.4225-0.6564-0.7368-1.1513-0.9429-0.194-0.0866-0.4034-0.1559-0.6282-0.2078 0.0432-0.0174 0.0859-0.0357 0.1283-0.055 0.4645-0.206 0.8281-0.51 1.0907-0.9119 0.2727-0.4019 0.409-0.8965 0.409-1.4839 0-0.8862-0.3282-1.5714-0.9847-2.0558-0.6463-0.4843-1.5603-0.7264-2.7419-0.7264h-4.575zm4.8628 9.877h-3.7418v-4.0652h3.7418c0.9291 0 1.6411 0.1649 2.136 0.4946 0.4949 0.3195 0.7423 0.8295 0.7423 1.5303 0 0.711-0.2474 1.2314-0.7423 1.5611-0.4949 0.3195-1.2069 0.4792-2.136 0.4792zm-3.7418-5.0081v-3.9261h3.3782c0.8484 0 1.5048 0.1649 1.9694 0.4947 0.4747 0.3194 0.712 0.8089 0.712 1.4684 0 0.6492-0.2373 1.1386-0.712 1.4684-0.4646 0.3297-1.121 0.4946-1.9694 0.4946h-3.3782z"
      clip-rule="evenodd"
      fill-rule="evenodd"
    />
  <path d="m85.726 29.587v10.82h1.121v-10.82h-1.121z" />
  <path
      d="m92.327 40.098c0.6868 0.2679 1.4291 0.4019 2.2269 0.4019 0.7979 0 1.5351-0.134 2.2117-0.4019 0.6767-0.2782 1.2625-0.6646 1.7573-1.1593 0.505-0.4946 0.8938-1.0768 1.1665-1.7466 0.2828-0.6698 0.4246-1.4014 0.4246-2.1949 0-0.7934-0.1418-1.5251-0.4246-2.1949-0.2727-0.6698-0.6615-1.252-1.1665-1.7466-0.4948-0.4947-1.0806-0.8759-1.7573-1.1438-0.6766-0.2783-1.4138-0.4174-2.2117-0.4174-0.8079 0-1.5502 0.1391-2.2269 0.4174-0.6766 0.2679-1.2674 0.6543-1.7724 1.1592-0.4949 0.4947-0.8837 1.0769-1.1665 1.7467-0.2727 0.6595-0.409 1.386-0.409 2.1794 0 0.7935 0.1363 1.5251 0.409 2.1949 0.2828 0.6595 0.6716 1.2417 1.1665 1.7466 0.505 0.4947 1.0958 0.8811 1.7724 1.1593zm3.9842-0.9429c-0.5353 0.2164-1.121 0.3246-1.7573 0.3246-0.6362 0-1.2271-0.1082-1.7724-0.3246-0.5454-0.2267-1.02-0.541-1.424-0.9428-0.3939-0.4122-0.707-0.8914-0.9392-1.4375-0.2222-0.5462-0.3333-1.1387-0.3333-1.7776 0-0.6492 0.1111-1.2417 0.3333-1.7775 0.2322-0.5462 0.5453-1.0202 0.9392-1.4221 0.404-0.4122 0.8786-0.7265 1.424-0.9429 0.5453-0.2267 1.1362-0.34 1.7724-0.34 0.6363 0 1.222 0.1133 1.7573 0.34 0.5453 0.2164 1.015 0.5307 1.4088 0.9429 0.404 0.4019 0.7171 0.8759 0.9393 1.4221 0.2221 0.5358 0.3332 1.1283 0.3332 1.7775s-0.1111 1.2469-0.3332 1.793c-0.2222 0.5359-0.5353 1.0099-0.9393 1.4221-0.3938 0.4018-0.8635 0.7161-1.4088 0.9428z"
      clip-rule="evenodd"
      fill-rule="evenodd"
    />
  <path
      d="m104.16 30.577v9.8307h1.121v-9.8307h3.727v-0.9892h-8.575v0.9892h3.727z"
    />
  <path
      d="m111.54 35.399v4.0188h6.377v0.9893h-7.498v-10.82h7.271v0.9892h-6.15v3.8488h5.484v0.9738h-5.484z"
    />
  <path
      d="m122.54 40.098c0.676 0.2679 1.414 0.4019 2.211 0.4019 0.778 0 1.505-0.134 2.182-0.4019s1.247-0.6646 1.712-1.1902l-0.712-0.7265c-0.435 0.4534-0.914 0.7832-1.439 0.9893-0.526 0.2061-1.091 0.3091-1.697 0.3091-0.636 0-1.227-0.1082-1.773-0.3246-0.545-0.2267-1.02-0.541-1.424-0.9428-0.404-0.4122-0.722-0.8862-0.954-1.4221-0.222-0.5461-0.333-1.1438-0.333-1.793s0.111-1.2417 0.333-1.7775c0.232-0.5462 0.55-1.0202 0.954-1.4221 0.404-0.4122 0.879-0.7265 1.424-0.9429 0.546-0.2267 1.137-0.34 1.773-0.34 0.606 0 1.171 0.103 1.697 0.3091 0.525 0.1958 1.004 0.5204 1.439 0.9738l0.712-0.7265c-0.465-0.5255-1.035-0.9171-1.712-1.1747-0.677-0.2679-1.399-0.4019-2.166-0.4019-0.798 0-1.536 0.1391-2.212 0.4174-0.677 0.2679-1.268 0.6491-1.773 1.1438-0.494 0.4946-0.883 1.0768-1.166 1.7466-0.273 0.6698-0.409 1.4015-0.409 2.1949 0 0.7935 0.136 1.5251 0.409 2.1949 0.283 0.6698 0.672 1.252 1.166 1.7466 0.495 0.4947 1.081 0.8811 1.758 1.1593z"
    />
  <path
      d="m139.52 29.587h-1.106v4.8225h-6.635v-4.8225h-1.121v10.82h1.121v-4.9927h6.635v4.9927h1.106v-10.82z"
    />
 </g>
 <defs>
  <linearGradient
      id="paint0_linear_78_11388"
      x1="3.2134e-7"
      x2="55.949"
      y1="22.475"
      y2="22.475"
      gradientUnits="userSpaceOnUse"
    >
   <stop stop-color="#3CAF85" offset="0" />
   <stop stop-color="#04A1C3" offset="1" />
  </linearGradient>
 </defs>
</svg>
