<?xml version="1.0" encoding="UTF-8" standalone="no" ?>
<!-- Created with Inkscape (http://www.inkscape.org/) -->
<svg
  version="1.1"
  id="svg1"
  width="1202.5205"
  height="1071.3916"
  viewBox="0 0 1202.5206 1071.3916"
  sodipodi:docname="image.png"
  xmlns:inkscape="http://www.inkscape.org/namespaces/inkscape"
  xmlns:sodipodi="http://sodipodi.sourceforge.net/DTD/sodipodi-0.dtd"
  xmlns="http://www.w3.org/2000/svg"
  xmlns:svg="http://www.w3.org/2000/svg"
>
  <defs id="defs1" />
  <sodipodi:namedview
    id="namedview1"
    pagecolor="#ffffff"
    bordercolor="#000000"
    borderopacity="0.25"
    inkscape:showpageshadow="2"
    inkscape:pageopacity="0.0"
    inkscape:pagecheckerboard="0"
    inkscape:deskcolor="#d1d1d1"
  >
    <inkscape:page
      x="3.4540083e-14"
      y="0"
      width="1202.5206"
      height="1071.3916"
      id="page2"
      margin="0"
      bleed="0"
    />
  </sodipodi:namedview>
  <g
    inkscape:groupmode="layer"
    inkscape:label="Image"
    id="g1"
    transform="translate(-81.406367,-146.97086)"
  >
    <path
      style="fill:#000000"
      d="m 575.40635,1212.6806 c -5.86666,-3.0108 -15.16666,-7.577 -20.66666,-10.1472 l -10,-4.673 -0.38196,-11.4262 -0.38196,-11.4261 -50.2847,-21.5329 c -27.65659,-11.8431 -67.08471,-28.7946 -87.61804,-37.6701 -37.93908,-16.399 -112.68788,-47.995 -170.66665,-72.1401 -17.6,-7.3294 -44.15663,-18.425 -59.01474,-24.6569 l -27.01473,-11.3307 -9.43572,5.4401 c -5.18965,2.992 -9.87244,5.4401 -10.4062,5.4401 -3.19169,0 -43.870876,-17.9636 -45.795276,-20.22285 -1.96949,-2.3122 -2.33334,-5.5213 -2.33334,-20.5803 0,-16.397 0.21584,-17.9757 2.66667,-19.50632 2.65169,-1.656 2.66667,-3.10937 2.66667,-258.80097 0,-255.11669 -0.0209,-257.16224 -2.66667,-260.52574 -2.38489,-3.03189 -2.66667,-5.40904 -2.66667,-22.49672 0,-17.99723 0.1613,-19.19294 2.778,-20.59335 2.3374,-1.25094 13.25651,-4.7424 46.613186,-14.90489 3.64304,-1.10989 6.83403,-0.96616 13.94006,0.62791 10.808,2.42452 -1.24191,5.64836 100.00209,-26.75458 36.66666,-11.73509 97.86666,-31.2571 135.99999,-43.38224 38.13333,-12.12514 105.33333,-33.51856 149.33332,-47.54094 44,-14.02238 127.00376,-40.46722 184.4528,-58.76631 150.1864,-47.83849 142.88052,-45.38264 142.88052,-48.02887 0,-1.68629 3.05897,-3.31141 11.66666,-6.19808 l 11.66667,-3.91251 14,1.86717 c 13.93233,1.85814 18.30887,3.92089 16.77881,7.90816 -0.70512,1.83751 -5.55591,0.99418 79.22121,13.77295 109.22741,16.46426 239.19131,36.86729 242.46431,38.06445 0.9887,0.36164 4.4291,-0.23589 7.6454,-1.32785 5.3381,-1.81235 7.3312,-1.74371 22.869,0.78752 11.6954,1.90527 17.5687,3.46255 18.7707,4.97697 1.2918,1.62753 1.6406,6.67975 1.3333,19.31437 -0.3514,14.45076 -0.7788,17.37507 -2.7494,18.81366 -2.2058,1.61026 -2.3333,13.65493 -2.3333,220.39308 0,177.82541 0.3239,218.95858 1.7335,220.12846 1.6325,1.35485 1.7902,5.71457 1.0788,29.8232 -0.1361,4.61174 -0.7796,5.34555 -9.8123,11.18957 -5.3167,3.43979 -12.0667,7.29744 -15,8.57256 -2.9334,1.27511 -14.0334,8.58299 -24.6667,16.23972 -25.1633,18.11934 -48.7482,34.97545 -91.3333,65.27586 -19.0667,13.56643 -45.7667,32.67473 -59.3334,42.4629 -13.5666,9.78817 -44.6467,32.10183 -69.0668,49.5859 -24.42021,17.48408 -59.52016,42.77913 -78.00004,56.21126 -43.41475,31.55605 -78.79511,57.02945 -150.26645,108.19015 -62.11583,44.4637 -114.40472,82.248 -151.99999,109.8359 -31.5162,23.1271 -41.08887,29.5377 -43.75094,29.2993 -1.23698,-0.1107 -7.04906,-2.6647 -12.91573,-5.6755 z m 21.3776,-6.0526 c 2.95768,-1.8721 9.44154,-6.3944 14.40857,-10.0495 7.89302,-5.8083 9.00448,-7.1524 8.82065,-10.6667 -0.58328,-11.1507 0.20876,-27.3542 1.3371,-27.3542 0.70248,0 1.45248,4.4333 1.66666,9.8519 l 0.38942,9.8518 18.20863,-13.0841 c 10.01475,-7.1963 40.01475,-28.4161 66.66666,-47.1551 26.65192,-18.739 63.75804,-45.2354 82.45804,-58.881 18.69999,-13.6455 37.96,-27.6841 42.80001,-31.1969 6.84127,-4.9652 8.99292,-7.3513 9.66667,-10.72 1.06132,-5.3067 1.14677,-20.60875 0.12081,-21.63475 -0.72573,-0.7257 -20.48946,12.81915 -86.90406,59.55855 -17.77412,12.5086 -44.77412,31.4181 -60,42.0212 -15.22589,10.6031 -35.78343,25.0681 -45.68343,32.1445 -18.80672,13.4428 -26.66666,18.175 -26.66666,16.0551 0,-0.6915 3.45,-3.5839 7.66666,-6.4275 16.8153,-11.3398 146.59966,-102.3688 191.45028,-134.2807 13.31901,-9.47675 38.91638,-27.51365 56.88304,-40.08215 17.96667,-12.56857 45.56667,-31.89171 61.33333,-42.94036 70.79747,-49.61205 165.56817,-115.78071 189.33337,-132.19213 14.3,-9.87508 35.6,-24.6526 47.3333,-32.83894 11.7333,-8.18634 32.7333,-22.73013 46.6667,-32.31952 13.9333,-9.5894 27.043,-19.02821 29.1325,-20.97514 l 3.7993,-3.53987 -0.7532,-58.27412 c -0.4142,-32.05076 -0.7739,-134.93631 -0.7992,-228.63454 l -0.046,-170.36042 -5.3333,2.72086 -5.3334,2.72087 V 474.506 c 0,149.60233 0.4529,226.84078 1.3334,227.38491 1.9032,1.17627 1.6514,3.51719 -0.3334,3.09946 -2.9501,-0.62091 -35.1032,19.49306 -48.7873,30.51978 -4.4657,3.59854 -13.3905,9.64614 -19.8328,13.43911 -6.4422,3.79298 -13.5132,8.47808 -15.7132,10.41134 -6.6334,5.82912 -17.0319,13.30118 -26.7815,19.24431 -5.0702,3.0907 -9.4208,6.15147 -9.6682,6.8017 -0.6868,1.80596 -15.7942,12.11734 -25.8753,17.66094 -4.9454,2.71948 -12.4454,7.96842 -16.6666,11.66431 -4.2213,3.69588 -14.4643,10.93359 -22.7622,16.08379 -8.2978,5.1502 -16.6978,10.86729 -18.6666,12.70463 -5.2995,4.94576 -18.4001,13.94843 -28.2463,19.41068 -4.7666,2.64437 -11.776,7.72554 -15.57641,11.2915 -3.8004,3.56596 -13.79285,10.54595 -22.20551,15.5111 -8.41266,4.96515 -17.60327,11.11308 -20.42357,13.66208 -6.28302,5.67862 -19.1204,14.80338 -32.53632,23.12668 -5.54135,3.43788 -13.62892,9.14525 -17.97238,12.68305 -4.34347,3.5378 -14.80964,10.91565 -23.25816,16.39522 -8.44852,5.47956 -18.66095,12.78256 -22.69428,16.22896 -9.59093,8.1951 -18.62957,14.2717 -26.22733,17.6326 -8.58733,3.7985 -17.75545,9.4881 -17.8635,11.08575 -0.15669,2.3169 -21.28711,17.1443 -36.22013,25.4159 -7.87103,4.3599 -14.32103,8.5648 -14.33333,9.3443 -0.0509,3.2279 -23.53248,20.9806 -31.22185,23.6046 -5.36953,1.8324 -19.46462,11.329 -22.49669,15.1572 -3.32966,4.204 -20.02988,16.141 -28.14898,20.1204 -9.62024,4.7152 -23.14191,13.5417 -23.94295,15.6292 -1.8571,4.8395 -33.18412,24.8131 -34.80472,22.1909 -0.44836,-0.7255 0.40161,-1.9703 1.88882,-2.7662 l 2.70401,-1.4471 -0.27418,-297.61977 c -0.1508,-163.69086 -0.47501,-292.31169 -0.72046,-285.82407 -0.27948,7.38689 -1.17081,12.90145 -2.38475,14.75416 -1.68086,2.56531 -1.9417,42.32406 -1.96277,299.17392 l -0.0243,296.21546 -14.98344,9.7641 c -8.24089,5.3703 -16.03343,10.1652 -17.31677,10.6552 -2.06405,0.7883 -2.33333,2.9823 -2.33333,19.0116 0,14.1453 0.36563,17.8994 1.66667,17.1123 0.91666,-0.5545 4.08658,-2.5399 7.04426,-4.412 z m 1.92274,-11.4906 c -3.08464,-8.1132 -1.03198,-15.2711 5.3214,-18.5566 6.14628,-3.1784 8.04493,-1.5457 8.04493,6.9178 0,6.4722 -0.48083,7.7716 -4.14101,11.1907 -5.10462,4.7684 -7.53781,4.8866 -9.22532,0.4481 z m 8.8436,-4.2465 c 2.0422,-2.6903 2.48759,-12.3333 0.56964,-12.3333 -2.08655,0 -4.04691,4.8016 -4.04691,9.9123 0,5.2916 0.8493,5.8829 3.47727,2.421 z m -22.14394,1.2566 v -17.0767 l -5,-2.1513 c -2.75,-1.1831 -10.09999,-4.1009 -16.33333,-6.4839 -6.23333,-2.3829 -11.90333,-4.8303 -12.6,-5.4387 -2.98434,-2.6059 -3.45964,-0.2041 -3.1065,15.6977 l 0.37317,16.8037 16.66667,7.85 c 9.16666,4.3175 17.41666,7.8558 18.33333,7.863 1.24725,0.01 1.66666,-4.2844 1.66666,-17.0638 z m -23.54359,2.9877 c -3.12088,-3.1209 -3.37376,-4.1861 -2.87039,-12.0913 0.35808,-5.6236 1.23033,-9.098 2.48299,-9.8905 3.20313,-2.0265 7.77245,-1.421 10.59766,1.4042 3.70122,3.7012 3.85638,18.51 0.22835,21.7933 -3.43026,3.1043 -6.4729,2.75 -10.43861,-1.2157 z m 4.87894,-1.1825 c -1.83223,-1.014 -3.61485,-1.5601 -3.96139,-1.2135 -0.89701,0.897 2.91114,3.116 5.29271,3.084 1.1595,-0.015 0.60001,-0.8016 -1.33132,-1.8705 z m -4.37857,-12.3768 c -0.30647,-2.0268 -0.56541,-0.685 -0.57542,2.9817 -0.01,3.6666 0.24074,5.3249 0.55722,3.685 0.31648,-1.64 0.32467,-4.64 0.0182,-6.6667 z m 3.70989,-5.685 c 0.45323,-0.7333 0.22405,-1.3333 -0.50929,-1.3333 -0.73333,0 -1.70415,0.6 -2.15737,1.3333 -0.45323,0.7333 -0.22405,1.3333 0.50928,1.3333 0.73334,0 1.70416,-0.6 2.15738,-1.3333 z m 143.33101,-50.0883 c 42.16794,-30.1153 83.56898,-59.7774 92.00231,-65.9159 8.43333,-6.1384 25.23333,-18.3684 37.33333,-27.1778 12.1,-8.8093 55.6,-40.06955 96.66666,-69.46715 85.90687,-61.49638 134.81997,-96.64987 179.63997,-129.10576 17.402,-12.60146 49.502,-35.78698 71.3333,-51.52338 21.8314,-15.7364 45.179,-32.6864 51.8836,-37.66667 6.7046,-4.98026 12.8546,-9.05503 13.6667,-9.05503 0.812,0 1.4764,-0.6 1.4764,-1.33333 0,-4.38172 -6.7171,0.159 -92.6666,62.64195 -51.4206,37.38134 -101.5851,73.45258 -170.66671,122.71949 -32.26666,23.01161 -74.56666,53.29663 -93.99999,67.29993 -19.43333,14.00345 -44.63333,31.98545 -55.99999,39.96015 -11.36667,7.9747 -35.96259,25.6137 -54.6576,39.1978 -18.69501,13.5841 -56.195,40.3816 -83.33333,59.5499 -27.13832,19.1684 -56.0547,39.6019 -64.25862,45.4078 -11.65198,8.2462 -14.93455,11.2474 -15,13.7145 l -0.0838,3.1583 4.99768,-3.8249 c 2.74872,-2.1037 39.49872,-28.4647 81.66666,-58.5799 z m -121.42163,23.755 0.21912,-13.6667 h -4.13842 -4.13841 l 0.24839,14.3333 c 0.21334,12.311 -0.0584,14.3942 -1.92584,14.7645 -3.33676,0.6616 -2.61,1.9694 2.83884,5.1087 l 4.98694,2.8731 0.84513,-4.8731 c 0.46481,-2.6803 0.94373,-11.0232 1.06425,-18.5398 z m 16.49048,13.4284 c 7.48008,-4.8977 13.74806,-8.9957 13.92885,-9.1065 0.90352,-0.554 0.85507,-591.32208 -0.0485,-591.322 -1.4337,1.2e-4 -10.54494,4.6022 -20.61015,10.41019 l -8.32994,4.80667 0.16001,297.05826 c 0.088,163.38208 0.41642,297.05828 0.72981,297.05828 0.31338,0 6.68984,-4.0072 14.16992,-8.9049 z m -59.69564,-6.7042 c 0.42788,-1.9339 2.81819,-3.9132 6.97341,-5.7744 l 6.32237,-2.8319 -7.33333,-3.7326 c -15.64054,-7.9609 -76.10762,-33.7222 -77.01744,-32.8123 -0.52819,0.5282 0.0847,1.5451 1.36188,2.2599 1.70413,0.9537 2.32223,3.0022 2.32223,7.6962 0,7.9918 -2.98521,9.9679 -10.92542,7.2323 -9.46703,-3.2616 -10.40791,-4.3577 -10.40791,-12.124 0,-5.0406 0.57093,-7.2735 2,-7.8219 3.92931,-1.5079 2.11095,-5.1973 -3.66667,-7.4396 -3.11666,-1.2096 -17.06666,-7.0843 -31,-13.0549 -36.8303,-15.7821 -40.18714,-16.8415 -34.11111,-10.7655 8.17983,8.1798 -1.46087,16.1199 -13.83474,11.3943 -5.14708,-1.9657 -6.05414,-2.8593 -6.05414,-5.9643 0,-2.0087 -0.38195,-5.5619 -0.84878,-7.8961 -0.71723,-3.5862 -0.40729,-4.3593 2,-4.9888 5.22685,-1.3669 2.9408,-3.3154 -9.15122,-7.8 -2.56667,-0.9519 -11.11667,-4.4606 -19,-7.797 -7.88333,-3.3365 -14.33333,-5.632 -14.33333,-5.1011 0,0.5308 1.35,1.5574 3,2.2813 2.17503,0.9542 3.11095,2.6435 3.4035,6.1431 0.35838,4.2871 -0.11908,5.1352 -4.26995,7.5843 -4.4672,2.6357 -4.92634,2.662 -10.4035,0.5958 -8.4147,-3.1743 -9.06339,-3.9828 -9.06339,-11.2951 0,-5.5069 0.45114,-6.7462 2.66667,-7.3256 3.70258,-0.9682 3.33891,-3.9285 -0.6042,-4.9182 -1.79898,-0.4515 -19.49898,-7.9452 -39.33334,-16.6526 -32.42119,-14.2332 -42.40129,-17.697 -32.72912,-11.3596 2.43657,1.5965 3.33333,3.3632 3.33333,6.567 0,3.7173 -0.63769,4.6052 -4.19896,5.8466 -5.74733,2.0036 -6.99537,1.8845 -14.61691,-1.3942 l -6.64355,-2.858 0.39638,-6.8086 c 0.24623,-4.2296 1.02771,-6.8719 2.06304,-6.9754 0.91667,-0.092 2.26667,-0.2417 3,-0.3333 2.2008,-0.2751 1.50409,-2.8591 -1,-3.7089 -1.28333,-0.4354 -20.33333,-8.44365 -42.33333,-17.79585 -68.48514,-29.11311 -72.1777,-30.66195 -73.10072,-30.66195 -0.49461,0 -0.89928,1.43581 -0.89928,3.19065 0,1.7549 -1.00033,3.5746 -2.22296,4.0437 -3.06893,1.1777 -1.56999,2.1968 11.89307,8.0858 10.00413,4.376 12.14547,4.8882 15.00001,3.5875 1.83144,-0.8344 3.32988,-2.13 3.32988,-2.8791 0,-2.1735 3.63354,-1.5734 4.52402,0.7472 0.44512,1.1599 0.80932,8.3245 0.80932,15.9212 0,13.21495 1.5002,18.50045 3.67794,12.95805 0.91222,-2.32165 2.74255,-1.77355 23.65539,7.0834 12.46667,5.2798 38.26666,16.0482 57.33333,23.9297 71.87662,29.7113 104.45463,43.4901 225.99999,95.586 l 92.66666,39.7181 0.35992,-4.3194 c 0.19796,-2.3757 0.65289,-5.6436 1.01096,-7.2619 z m 29.73904,3.8929 c 0.27906,-4.7295 -0.0636,-5.2249 -5.40599,-7.8165 l -5.70393,-2.7669 -5.3257,3.3753 -5.32569,3.3754 9.29921,4.4411 c 5.11457,2.4426 9.94383,4.4411 10.73169,4.4411 0.78785,0 1.56654,-2.2723 1.73041,-5.0495 z m -0.53215,-10.7197 c -3.13983,-2.6697 -99.3962,-44.5234 -100.30535,-43.6143 -1.1742,1.1742 -5.11614,-0.6188 63.10735,28.7051 13.22555,5.6847 27.02555,11.8548 30.66667,13.7114 6.09173,3.1063 9.51402,3.7339 6.53133,1.1978 z m 0.75556,-14.6545 v -6.4237 l -11,-4.4658 c -6.05,-2.4561 -11.76939,-5.055 -12.70976,-5.7753 -1.24567,-0.9541 -1.60758,-5.146 -1.33333,-15.4438 l 0.37642,-14.1343 6,0.2105 c 3.3,0.1158 8.85,1.4445 12.33334,2.9526 l 6.33333,2.7421 V 970.66005 846.85731 l -11,-4.36445 c -6.05,-2.40044 -11.75,-4.94135 -12.66667,-5.64646 -1.14103,-0.87769 -1.66666,-5.58066 -1.66666,-14.9121 0,-11.55271 0.37475,-13.96924 2.45881,-15.85529 2.30532,-2.08629 2.90879,-2.02722 9.66667,0.9461 3.96432,1.74421 8.56894,3.59651 10.2325,4.11622 l 3.02465,0.94493 -0.0767,-91.35468 -0.0767,-91.35468 -7.22698,-2.70395 c -3.97484,-1.48718 -8.90142,-3.10426 -10.94795,-3.59351 -6.55402,-1.56683 -7.05571,-2.68555 -7.0339,-15.68511 0.0112,-6.69354 0.46123,-12.81384 1,-13.60066 1.88,-2.74557 5.45701,-3.04373 13.63304,-1.13639 4.52894,1.05653 8.72277,1.61915 9.31962,1.25028 1.77916,-1.09958 0.40461,-17.23747 -1.55688,-18.27858 -0.96224,-0.51074 -6.84953,-2.54084 -13.08286,-4.51134 -13.2425,-4.18625 -14.21865,-4.81829 -15.34218,-9.93367 -0.7675,-3.49439 -1.86967,-4.16249 -11.75237,-7.12385 -10.33702,-3.09749 -50.91679,-14.97692 -55.90545,-16.3659 -1.28333,-0.35731 -2.33333,-0.009 -2.33333,0.77352 0,0.78275 0.82653,1.42318 1.83674,1.42318 3.59959,0 4.74901,3.67184 4.94239,15.78858 0.15778,9.88631 0.62118,12.50178 2.37512,13.40561 1.19849,0.6176 15.97908,5.14379 32.84575,10.05819 16.86666,4.9144 31.45469,9.18881 32.41784,9.4987 0.96315,0.30988 1.39393,1.14145 0.9573,1.84794 -0.43663,0.70648 -1.52466,1.03113 -2.41784,0.72144 -5.1435,-1.78338 -64.35581,-19.32046 -65.23375,-19.32046 -0.58128,0 -1.05688,1.71239 -1.05688,3.8053 0,2.21098 -1.39659,5.31225 -3.33334,7.40203 l -3.33333,3.59673 v 40.40634 40.40634 l 21,6.34159 c 11.55,3.48787 29.25,8.88711 39.33333,11.99831 l 18.33333,5.65672 V 657.6976 c 0,-21.6489 0.47951,-33.80668 1.33334,-33.80668 1.82235,0 1.84105,174.19549 0.0188,175.32169 -0.85046,0.52561 -1.43884,-14.08498 -1.66667,-41.38657 l -0.35215,-42.19898 -37.9529,-11.93208 c -20.87409,-6.56264 -38.22409,-12.20328 -38.55555,-12.53474 -3.55365,-3.55365 14.03497,1.19506 59.84428,16.1572 7.70138,2.51541 14.75137,4.57347 15.66667,4.57347 1.16723,0 1.65933,-2.68745 1.64797,-9 l -0.0162,-9 -37.65047,-11.18964 c -20.70776,-6.15431 -38.40047,-11.4543 -39.31713,-11.77778 -1.32103,-0.46616 -1.66667,15.56881 -1.66667,77.32048 v 77.9086 l 5.39695,2.43369 c 5.2732,2.37788 5.38784,2.57259 5,8.49225 -0.37983,5.79733 -0.61254,6.10927 -5.39695,7.2346 l -5,1.17603 0.01,8.86755 0.01,8.86755 18.32361,7.31016 c 10.07798,4.02059 21.32361,8.32533 24.99027,9.56608 6.20379,2.09929 6.7142,2.61007 7.35126,7.35651 1.11306,8.29292 0.16125,11.10058 -3.76314,11.10058 -1.88888,0 -11.77726,-3.37018 -21.97416,-7.48928 -16.66745,-6.73292 -18.86667,-7.31435 -21.77618,-5.75723 l -3.23636,1.73204 0.36596,20.52502 0.36596,20.52501 12,4.45707 c 6.6,2.45139 24.15,8.91516 38.99999,14.36393 l 27,9.90686 v -10.24282 c 0,-7.28352 -0.48152,-10.25466 -1.66666,-10.2838 -3.10165,-0.0763 -73.81988,-26.11223 -75.50649,-27.79885 -2.96675,-2.96675 5.29174,-0.56067 30.07419,8.762 16.00443,6.02055 33.14896,12.34027 38.09896,14.04382 l 9,3.09736 v -44.50854 c 0,-28.23411 0.48753,-44.80985 1.33334,-45.33259 0.88505,-0.54699 1.33333,38.87504 1.33333,117.25468 0,77.01975 -0.45891,118.07865 -1.31975,118.07865 -0.84617,0 -1.44423,-21.6089 -1.66666,-60.2191 l -0.34692,-60.21905 -36.66667,-13.61762 c -20.16666,-7.48972 -37.71666,-14.05533 -39,-14.59026 -2.20233,-0.918 -2.33113,2.38529 -2.29424,58.83668 l 0.0391,59.80935 4.12277,4.5355 c 3.28321,3.6119 10.53069,7.2245 35.58969,17.7399 17.3068,7.2624 31.73397,13.4714 32.06036,13.7978 0.3264,0.3264 0.26562,0.9213 -0.13507,1.322 -0.64733,0.6473 -55.66809,-21.5281 -61.2856,-24.7004 -2.02822,-1.1454 -2.24422,0.024 -2.32081,12.5681 -0.0946,15.4963 -1.34591,20.2723 -5.75678,21.9727 -2.9232,1.1269 -2.93443,1.196 -0.35273,2.168 3.46126,1.3032 77.36206,32.8712 88.66666,37.8755 4.76667,2.1101 9.11667,3.8855 9.66667,3.9454 0.55,0.06 1,-2.7819 1,-6.3149 z m 12.58382,-15.0776 c -0.0713,-11.6147 -0.43295,-13.7575 -2.58817,-15.3334 -1.37793,-1.0076 -2.99065,-1.8319 -3.58383,-1.8319 -0.59317,0 -1.07849,6.2083 -1.07849,13.7962 0,12.9896 0.1754,13.8809 3,15.2431 1.65,0.7958 3.3,1.4875 3.66667,1.5372 0.36666,0.05 0.62938,-5.9854 0.58382,-13.4112 z m 59.74951,-4.2462 9,-6.7752 V 814.20633 519.71122 l -3,0.92523 c -1.65,0.50888 -7.5,3.09931 -13,5.75652 l -10,4.83129 -0.33627,297.70241 -0.33627,297.70243 4.33627,-2.1886 c 2.38495,-1.2038 8.38627,-5.2375 13.33627,-8.9638 z m -177.66666,6.504 c 0,-1.0505 -1.19645,-2.2898 -2.65877,-2.754 -1.46233,-0.4641 -3.49797,-1.683 -4.52365,-2.7087 -1.59762,-1.5976 -1.96378,-1.4867 -2.55499,0.7741 -0.49421,1.8899 0.31674,3.1858 2.85699,4.5655 4.56498,2.4794 6.88042,2.5208 6.88042,0.1231 z m 107.97958,-9.0898 c -0.0112,-6.05 -0.46153,-11.6932 -1.00067,-12.5404 -1.0393,-1.6332 -16.15003,-7.1263 -19.60352,-7.1263 -1.67004,0 -2.03936,2.004 -2.02725,11 l 0.0148,11 10.31852,4.2572 c 5.67519,2.3415 10.76852,4.2915 11.31852,4.3334 0.55,0.042 0.99082,-4.8739 0.97959,-10.9239 z m -107.97958,-7 c 0,-6.4444 -0.32323,-7.3333 -2.66667,-7.3333 -2.30508,0 -2.66666,0.8889 -2.66666,6.5555 0,6.0114 0.88294,7.6427 4.33333,8.0059 0.55,0.058 1,-3.1948 1,-7.2281 z M 677.40635,801.1047 V 509.37642 l -9.33333,4.12245 -9.33334,4.12244 v 293.81208 293.81211 l 9.33334,-6.2063 9.33333,-6.2062 z m -89.33333,176.78615 c 0,-67.83328 -0.45,-123.34147 -1,-123.35148 -0.55,-0.01 -2.32486,-0.37342 -3.94412,-0.80757 l -2.94413,-0.78936 0.0796,122.81711 c 0.073,112.62605 0.26194,122.92355 2.27746,124.10035 5.71282,3.3354 5.53122,7.3399 5.53122,-121.96905 z M 459.40636,1098.5576 c -0.45322,-0.7334 -1.42501,-1.3334 -2.15951,-1.3334 -0.73451,0 -16.68234,-6.6167 -35.43963,-14.7039 -18.75728,-8.0871 -34.33541,-14.4726 -34.61806,-14.19 -1.07532,1.0753 3.5693,3.3648 25.55054,12.5945 12.46666,5.2346 27.46666,11.6277 33.33333,14.2068 10.90053,4.7921 14.79634,5.7932 13.33333,3.426 z m 12.66667,-21.6745 v -17.6745 l -6.52238,-2.9922 c -3.5873,-1.6457 -7.0373,-2.9899 -7.66666,-2.9871 -1.60425,0.01 -1.40255,36.9432 0.21036,38.5212 0.72161,0.706 3.41201,1.5304 5.97868,1.832 2.56666,0.3015 5.41666,0.6443 6.33333,0.7617 1.26025,0.1613 1.66667,-4.0966 1.66667,-17.4611 z m 6.04849,-2.3498 c 0.73391,-14.0435 0.62719,-15.0951 -1.29089,-12.7209 -1.60219,1.9832 -2.09094,5.8634 -2.09094,16.6 0,18.8083 2.33625,16.1286 3.38183,-3.8791 z m 213.01171,10.8096 c 5.28355,-3.6015 11.70645,-8.3359 14.27312,-10.521 l 4.66666,-3.9729 0.1702,-288.14572 c 0.0936,-158.48013 -0.20639,-288.12599 -0.66667,-288.10192 -0.46027,0.0241 -7.13686,3.00877 -14.83686,6.63268 l -14,6.58892 -0.33632,292.03396 c -0.18498,160.61873 -0.008,292.03398 0.39355,292.03398 0.40142,0 5.05277,-2.9466 10.33632,-6.548 z m -237.72687,-15.1368 v -19.0181 l -25.47986,-10.6485 c -14.01392,-5.8567 -27.21392,-11.4003 -29.33333,-12.3191 l -3.85347,-1.6705 v 15.8001 c 0,15.0767 -0.13734,15.8649 -3,17.2163 -2.77479,1.31 -2.35164,1.7006 5.6368,5.2038 15.86061,6.9553 55.35883,24.2122 55.69653,24.3339 0.18333,0.066 0.33333,-8.4379 0.33333,-18.8979 z m -65.33333,13.6848 c 0,-1.4815 -0.88889,-2.6667 -2,-2.6667 -2.02988,0 -2.73501,2.8206 -1.11111,4.4445 1.69039,1.6904 3.11111,0.8785 3.11111,-1.7778 z m -8,-0.5133 c 0,-1.6227 -5.36498,-6.1534 -7.28642,-6.1534 -1.78532,0 -0.46546,5.3454 1.61976,6.5599 3.30061,1.9224 5.66666,1.7527 5.66666,-0.4065 z m 1.56168,-9.6933 c 3.06645,-2.7751 3.28523,-10.5164 0.32927,-11.6507 -4.0203,-1.5428 -4.55761,-0.7736 -4.55761,6.524 0,7.9132 0.49119,8.5087 4.22834,5.1267 z m 342.77164,-13.5294 5,-3.285 V 771.04706 c 0,-157.20254 -0.31711,-285.8228 -0.70469,-285.8228 -0.38758,0 -4.28758,1.80864 -8.66667,4.01919 l -7.96198,4.0192 v 287.46747 287.46748 l 3.66667,-2.3788 c 2.01667,-1.3084 5.91667,-3.8571 8.66667,-5.6639 z m -351.03214,2.736 c -0.0177,-0.55 -9.76769,-5.0888 -21.66667,-10.0863 -11.89898,-4.9974 -22.3845,-9.4116 -23.30117,-9.8093 -0.91667,-0.3977 -1.66667,-0.1798 -1.66667,0.4841 0,1.0289 42.81757,20.0882 45.66667,20.3275 0.55,0.046 0.98553,-0.366 0.96784,-0.916 z m -48.80117,-1.397 c 0.98879,-1.5999 -0.73923,-3.4694 -4.89607,-5.2968 -4.82579,-2.1215 -4.93727,-2.1008 -4.93727,0.916 0,1.5744 1.40783,3.0698 3.66667,3.8948 4.71217,1.721 5.3713,1.7729 6.16667,0.486 z m 6.16666,-2.2697 c 0,-1.8333 -0.6,-3.3333 -1.33333,-3.3333 -0.73333,0 -1.33333,1.5 -1.33333,3.3333 0,1.8334 0.6,3.3334 1.33333,3.3334 0.73333,0 1.33333,-1.5 1.33333,-3.3334 z m 56,-19.1691 v -18.5025 l -6.58051,-2.8308 c -3.61928,-1.557 -6.91928,-2.8309 -7.33333,-2.8309 -0.41406,0 -0.75283,9.3642 -0.75283,20.8093 0,17.9425 0.27533,20.7037 1.99852,20.0424 1.09918,-0.4218 3.34918,-0.224 5,0.4395 7.63233,3.0677 7.66815,2.9877 7.66815,-17.127 z m 4.54395,15.0081 c 1.25161,-3.2616 0.72244,-32.5056 -0.58819,-32.5056 -0.62746,0 -1.3242,7.801 -1.5483,17.3356 -0.38253,16.275 0.17994,20.2687 2.13649,15.17 z m 357.44693,-9.9007 12.67576,-9.4858 V 753.00604 c 0,-155.46887 -0.5003,-282.47067 -1.11177,-282.22622 -0.61148,0.24444 -7.36148,3.34569 -15,6.89166 l -13.88822,6.44722 0.33942,286.02641 c 0.29979,252.63159 0.57116,285.93749 2.32423,285.26479 1.09164,-0.4189 7.6889,-5.0302 14.66058,-10.2474 z m -278.76455,-76.36195 -0.96544,-84.67634 -3.13045,-0.59843 -3.13045,-0.59842 v 83.77249 83.77255 l 3.66667,1.9252 c 2.01667,1.0588 3.85982,1.7348 4.09589,1.5022 0.23608,-0.2326 -0.005,-38.5273 -0.53622,-85.09925 z m -145.89299,77.23305 c 0,-5.327 -0.54664,-7.4005 -2.10905,-8 -3.18777,-1.2233 -3.22561,-1.1738 -3.20608,4.1906 0.0254,6.963 1.29909,11 3.47064,11 1.34242,0 1.84449,-1.9573 1.84449,-7.1906 z m 45.33333,-13.476 c 0,-17.4815 0.30824,-20.6667 2,-20.6667 1.75957,0 2,-11.7421 2,-97.67927 0,-93.79862 -0.0986,-97.74082 -2.481,-99.22867 -2.06127,-1.28729 -2.37546,-2.75137 -1.85716,-8.65407 0.34311,-3.90755 1.4101,-7.73463 2.37109,-8.50461 1.10582,-0.88602 1.90998,-5.3741 2.1905,-12.22542 0.35326,-8.62799 0.10011,-10.53959 -1.24712,-9.41713 -1.57701,1.31391 -9.11418,0.86214 -17.64298,-1.0575 l -3.33333,-0.75026 0.34577,135.92764 0.34578,135.92769 7.65422,3.4097 c 4.20983,1.8753 8.10423,3.4492 8.65423,3.4975 0.55,0.048 1,-9.2123 1,-20.5789 z m 88.10904,15.3333 c 0.72575,0 1.22429,-24.9754 1.22429,-61.33335 0,-33.73332 -0.45,-61.21008 -1,-61.05947 -0.55,0.15062 -3.87173,-1.02525 -7.38163,-2.61305 -3.50989,-1.58779 -18.50989,-7.50521 -33.33333,-13.14981 -28.97213,-11.03226 -28.44083,-10.79964 -27.29164,-11.94883 0.87854,-0.87854 8.86126,1.93145 43.4958,15.31091 13.46905,5.20315 24.74534,9.46027 25.05841,9.46027 0.31306,0 0.39292,-4.33672 0.17746,-9.63714 l -0.39174,-9.63715 -10,-3.89125 c -5.5,-2.14019 -20.8,-7.95485 -34,-12.92148 -13.2,-4.96662 -23.7,-9.52884 -23.33333,-10.13827 0.82046,-1.36366 -2.3366,-2.41382 33.33333,11.08794 16.5,6.24558 31.05,11.67647 32.33333,12.06865 2.10044,0.64188 2.33324,-0.46693 2.3324,-11.10913 l -9.3e-4,-11.82217 -9.66573,-3.45534 c -5.31616,-1.90043 -10.67187,-3.89779 -11.90159,-4.43858 -1.85156,-0.81424 -2.39364,0.0689 -3.15385,5.1384 -0.5049,3.36691 -1.45226,6.45184 -2.10525,6.85541 -0.65299,0.40357 -3.28376,-0.0243 -5.84615,-0.95091 -3.55027,-1.2838 -4.70856,-2.49346 -4.86759,-5.0835 -0.11479,-1.86935 -0.32676,-5.152 -0.47104,-7.29479 -0.32361,-4.80585 -3.86795,-7.78628 -13.58129,-11.4205 -5.8771,-2.19891 -8.30805,-2.51361 -11.31624,-1.46495 -2.10716,0.73456 -4.7143,0.99669 -5.79364,0.58251 -1.71429,-0.65783 -1.96243,9.3963 -1.96243,79.51442 0,79.88196 0.0132,80.27096 2.74208,80.98456 1.62691,0.4254 2.4573,1.4592 2.04185,2.5418 -0.38513,1.0037 -0.18904,1.8248 0.43574,1.8248 0.62479,0 1.42282,1.05 1.77341,2.3333 0.42425,1.553 7.49926,5.1549 21.15551,10.7701 11.28494,4.6403 24.11808,10.1383 28.51808,12.2179 4.4,2.0796 8.79907,3.533 9.77571,3.2299 0.97665,-0.3032 2.32665,-0.5512 3,-0.5512 z M 346.29054,1001.5576 C 345.80682,979.00755 345.41,918.41562 345.40871,866.9088 l -0.002,-93.64877 -4.70811,-1.96718 -4.70812,-1.96717 0.37478,-16.38405 0.37478,-16.38405 4.33334,-0.41781 4.33333,-0.41781 -0.002,-117.58219 -0.002,-117.58218 -8.15665,-2.39706 c -8.46014,-2.48625 -12.80981,-2.06536 -5.38919,0.52148 l 4.21621,1.46978 v 17.6706 c 0,18.62685 -1.32019,25.2541 -5.47358,27.47692 -2.4496,1.31099 -2.52642,4.83761 -2.52642,115.97185 v 114.61975 h 3.07849 c 5.60477,0 7.81279,2.82012 7.34543,9.38168 -0.39095,5.48864 -0.78697,6.06898 -5.09059,7.45987 l -4.66667,1.50821 -0.34183,98.6662 -0.34184,98.66618 3.34184,2.1896 c 2.03646,1.3344 3.34183,3.4446 3.34183,5.4024 0,2.04185 0.97197,3.52135 2.66667,4.05915 1.46667,0.4655 2.66667,1.4702 2.66667,2.2325 0,0.7624 -0.94669,1.0229 -2.10374,0.5789 -1.84805,-0.7092 -2.06077,0.9215 -1.75016,13.4168 0.3357,13.505 0.20048,14.3258 -2.67462,16.2348 -3.01467,2.0016 -3.00239,2.0209 2.75016,4.3022 11.85232,4.7005 10.99203,8.0081 9.99586,-38.4318 z m -30.55184,37.5545 c -0.42833,-0.4283 -17.17833,-7.82 -37.22222,-16.426 -20.04389,-8.606 -37.86286,-16.4138 -39.59771,-17.3507 -2.47088,-1.3344 -3.03468,-1.3447 -2.60232,-0.048 0.54948,1.6484 78.58708,36.0364 79.64548,35.0965 0.30555,-0.2714 0.2051,-0.8438 -0.22323,-1.2722 z m 10.96958,-21.5545 -0.0314,-17 -6.63524,-2.91505 -6.63524,-2.9151 v 18.47065 18.4706 l 3.66667,1.3392 c 2.01666,0.7365 5.01666,1.3865 6.66666,1.4444 2.96133,0.1039 2.9996,-0.1139 2.96858,-16.8947 z m 6.03142,-0.3334 c 0,-10.1616 -0.49987,-15.2777 -1.52614,-15.6198 -1.08325,-0.3611 -1.58253,4.1906 -1.72046,15.6846 -0.15237,12.697 0.17714,16.0695 1.52614,15.6198 1.27012,-0.4233 1.72046,-4.5288 1.72046,-15.6846 z m 439.92297,9.1844 8.74367,-5.4822 V 741.07531 c 0,-153.91807 -0.28864,-279.85105 -0.64142,-279.85105 -0.35278,0 -4.55278,1.92878 -9.33333,4.28618 l -8.69191,4.28617 v 281.04714 c 0,154.57593 0.26534,281.04715 0.58966,281.04715 0.32431,0 4.52431,-2.467 9.33333,-5.4823 z m -463.04205,-14.1842 c -0.24883,-9.3501 -0.84883,-17.37295 -1.33333,-17.82855 -1.07299,-1.0089 -60.68218,-26.505 -61.96803,-26.505 -0.50209,0 -0.91289,6.2789 -0.91289,13.9531 0,12.5885 -0.26079,14.0927 -2.66666,15.3802 -3.50474,1.8757 -3.3787,3.52785 0.33333,4.36905 3.31648,0.7516 34.92867,13.7502 53.66666,22.0672 6.6,2.9294 12.3,5.3798 12.66667,5.4452 0.36667,0.065 0.46308,-7.5312 0.21425,-16.8812 z m -74.88091,8.5554 c 0,-2.5991 -0.68943,-3.1111 -4.18873,-3.1111 -2.54299,0 -4.90037,-0.9732 -6,-2.4771 -1.69983,-2.3246 -1.81127,-2.2674 -1.81127,0.9302 0,2.6837 1.06179,3.8429 5,5.4586 6.7781,2.7809 7,2.7555 7,-0.8006 z m 5.76548,-0.092 c 0.75282,-1.9618 -0.10904,-3.4637 -1.9877,-3.4637 -0.61112,0 -1.11112,1.2 -1.11112,2.6667 0,3.0572 2.03104,3.5796 3.09882,0.797 z m 558.20915,-11.3074 13.35867,-9.84375 V 723.09456 446.65236 l -5.66667,2.44596 c -3.11667,1.34528 -9.71667,4.36738 -14.66666,6.71577 l -9,4.26981 v 280.01461 c 0,182.47401 0.45563,279.85979 1.308,279.57019 0.7194,-0.2445 7.3194,-4.8741 14.66666,-10.2882 z m -413.5863,-76.04495 c -0.21359,-46.13878 0.089,-84.36606 0.6723,-84.94953 0.58335,-0.58346 2.29178,-0.29198 3.7965,0.64774 3.40451,2.12615 3.86544,1.66545 4.72183,-4.71944 0.65498,-4.88319 0.47307,-5.19337 -3.77877,-6.44345 -4.38606,-1.28954 -4.47405,-1.46406 -4.86382,-9.64663 -0.28464,-5.97544 -0.914,-8.33333 -2.22429,-8.33333 -1.00503,0 -2.7764,-0.3642 -3.93637,-0.80932 -1.91141,-0.73348 -2.10905,8.39165 -2.10905,97.37629 v 98.18562 l 3,1.2059 c 1.65,0.6632 3.47475,1.2438 4.055,1.2903 0.58026,0.046 0.88026,-37.66535 0.66667,-83.80415 z m -151.72166,73.78005 c 0,-3.0219 -0.8188,-4.9024 -2.53432,-5.8205 -2.29321,-1.2273 -2.58023,-0.7789 -3.01708,4.7138 -0.55732,7.0074 -0.48938,7.1507 2.96193,6.2481 1.9133,-0.5003 2.58947,-1.8428 2.58947,-5.1414 z m 630.47593,-2.8245 c 7.07155,-4.91325 15.72311,-11.18315 19.22568,-13.93305 l 6.36833,-4.9999 -4.60535,-0.8639 c -4.91109,-0.9214 -6.61941,0 -25.46463,13.7926 -6.3643,4.65675 -8.16155,6.78225 -8.79011,10.39545 -0.43456,2.4981 -0.52037,4.5419 -0.19069,4.5419 0.32968,0 6.38522,-4.0199 13.45677,-8.9331 z m -734.47593,-9.06695 c 0,-10.9056 -0.49109,-16.6666 -1.42073,-16.6666 -0.7814,0 -6.03139,-2.1548 -11.66666,-4.7884 -5.63528,-2.6336 -11.72668,-4.8086 -13.53646,-4.8333 -1.80979,-0.025 -5.547856,-1.47 -8.306836,-3.2116 -2.75898,-1.7417 -5.32825,-3.1667 -5.70949,-3.1667 -0.38124,0 -0.69316,7.3964 -0.69316,16.4365 v 16.4364 l 13.666666,5.64055 c 7.51666,3.1023 15.76666,6.7807 18.33333,8.1743 9.13877,4.962 9.33334,4.6697 9.33334,-14.02115 z m -25.65855,-0.2103 c -2.01221,-1.06 -4.036206,-3.4321 -4.497796,-5.2712 -0.92898,-3.7014 0.0168,-14.8234 1.376166,-16.1827 1.22534,-1.2253 13.17566,2.1562 14.39437,4.0731 0.5564,0.8751 1.02082,4.6983 1.03205,8.4959 0.0306,10.3423 -4.00598,13.257 -12.30479,8.8849 z m 35.00104,8.35285 c -0.73837,-0.7383 -1.34249,-7.24365 -1.34249,-14.45605 0,-12.7004 -0.084,-13.0686 -2.66667,-11.6864 -2.43913,1.3054 -2.66666,2.7917 -2.66666,17.4201 v 15.99305 l 4.00915,-2.9641 c 2.691,-1.9895 3.56776,-3.4055 2.66667,-4.3066 z m 86.61386,-1.8091 c -0.024,-0.55 -25.074,-11.65945 -55.66666,-24.68755 -30.59266,-13.0282 -56.52303,-24.32383 -57.62303,-25.10152 -1.50506,-1.06406 -1.58755,-1.58134 -0.33333,-2.09025 1.47924,-0.60022 2.52843,-11.12071 1.10905,-11.12071 -0.30669,0 -1.50669,-0.3642 -2.66667,-0.80932 -1.77835,-0.68242 -2.10905,0.44149 -2.10905,7.16774 v 7.97707 l 57.66667,24.75539 c 31.71667,13.6155 58.11667,24.79005 58.66667,24.83225 0.55,0.042 0.98036,-0.3731 0.95635,-0.9231 z m 99.43024,-206.66669 c -0.34993,-0.91667 -2.00507,-1.66749 -3.67809,-1.66849 -2.85663,-0.002 -3.01383,0.44829 -2.58179,7.39054 0.45831,7.36443 0.44702,7.38909 -2.98758,6.52706 -2.49852,-0.62709 -3.67416,-0.27496 -4.27051,1.27911 -1.46642,3.82144 0.59164,8.46422 4.14768,9.35673 l 3.37285,0.84653 -0.36125,87.96788 -0.36124,87.96788 3.33333,1.1109 3.33333,1.1109 0.34475,-100.11118 c 0.18962,-55.06116 0.0584,-100.86119 -0.29148,-101.77786 z m -88.71993,183.70084 v -17.299 l -3.66666,-1.8472 c -2.01667,-1.01587 -5.16667,-2.20564 -7,-2.64387 l -3.33334,-0.7968 v 18.94297 18.943 l 4,0.8245 c 10.62077,2.1891 10,3.19 10,-16.1236 z m 6,2.188 c 0,-19.5783 -2.55439,-19.3794 -3.04485,0.2372 -0.29619,11.8467 -0.007,15.0023 1.33334,14.5555 1.2505,-0.4168 1.71151,-4.4014 1.71151,-14.7927 z m 587.97384,5.8066 c 1.80954,-1.9994 1.9956,-32.23259 1.69599,-275.5867 l -0.33653,-273.34086 -8.33333,3.72115 -8.33334,3.72115 v 275.47822 275.47804 l 6.63735,-3.6125 c 3.65054,-1.9868 7.55198,-4.6231 8.66986,-5.8584 z m 35.35946,1.7896 c 0,-0.3667 -1.8,0.615 -4,2.1816 -2.2,1.5665 -4,3.1482 -4,3.5149 0,0.3667 1.8,-0.6151 4,-2.1816 2.2,-1.5665 4,-3.1482 4,-3.5149 z m -552.76187,2.753 c 1.84368,-1.8437 2.09523,-9.4169 2.09523,-63.07879 v -60.98359 l -6.33333,-2.11612 c -3.48333,-1.16386 -20.13333,-7.3312 -37,-13.70519 -28.1192,-10.62638 -35.79511,-14.02102 -31.70413,-14.02102 1.8601,0 60.75821,22.1291 73.3708,27.56675 1.24894,0.53846 1.66666,-1.78454 1.66666,-9.26859 0,-8.36036 -0.38007,-10.09931 -2.33333,-10.67572 -9.93283,-2.93124 -72.90987,-27.70107 -72.57923,-28.54653 0.23143,-0.59175 1.26248,-0.90396 2.29124,-0.69379 1.48342,0.30304 60.69774,22.46128 70.28799,26.30205 2.09562,0.83926 2.33333,-0.0661 2.33333,-8.88673 v -9.82119 l -12,-5.54309 c -6.6,-3.0487 -11.99999,-5.25391 -11.99999,-4.90047 0,0.35344 0.58739,1.74017 1.30531,3.08163 1.93324,3.61229 -1.48662,5.89858 -7.21555,4.82382 -3.20388,-0.60105 -4.85748,-1.7633 -5.43175,-3.81779 -2.51428,-8.99495 -5.53097,-11.25885 -22.65801,-17.00389 -5.13334,-1.72191 -9.75265,-3.46503 -10.26515,-3.8736 -0.5125,-0.40857 -1.24276,-3.91927 -1.6228,-7.80154 -0.53137,-5.42824 -0.2406,-7.2315 1.25881,-7.80688 1.45733,-0.55923 20.73977,6.08468 28.73414,9.90056 0.42441,0.20259 1.76198,-3.09741 2.97237,-7.33333 3.29405,-11.528 3.82375,-12.05292 9.45353,-9.36826 l 4.6885,2.23579 0.3903,10.30628 0.3903,10.30628 7.95166,3.07579 c 11.4399,4.42507 13.62978,4.16198 14.31646,-1.71995 0.47274,-4.04934 0.0804,-4.97802 -2.52079,-5.967 -2.74541,-1.0438 -3.08067,-2.04037 -3.08067,-9.15735 0,-6.62148 0.45566,-8.22995 2.66667,-9.41325 2.61258,-1.39821 2.66666,-2.79176 2.66666,-68.71357 0,-58.43904 -0.2588,-67.28642 -1.96826,-67.28642 -3.01462,0 -71.85662,-21.3979 -73.2984,-22.78307 -2.41644,-2.32155 1.98779,-1.2103 31.61655,7.9773 16.30756,5.05683 32.80011,10.12449 36.65011,11.26147 l 7,2.06723 -0.0101,-8.92813 -0.0101,-8.92813 -14.98986,-4.60412 c -8.24443,-2.53227 -25.16612,-7.71104 -37.60377,-11.50838 -12.43764,-3.79734 -22.82213,-7.52893 -23.07663,-8.29244 -0.47318,-1.41956 12.07501,2.11084 52.69054,14.82436 l 22.99999,7.19948 v -36.32061 c 0,-35.19926 -0.0823,-36.34213 -2.66666,-37.01795 -2.32011,-0.60672 -2.66667,-1.81869 -2.66667,-9.32558 0,-5.27776 -0.64719,-9.16406 -1.66667,-10.00812 -1.48862,-1.23247 -58.57499,-18.94663 -61.05819,-18.94663 -0.55504,0 -1.72328,2.97679 -2.5961,6.61509 -1.06827,4.45308 -2.41906,6.87921 -4.13299,7.42319 -2.47827,0.78657 -2.54568,3.67159 -2.53248,108.38489 l 0.0136,107.57681 5.31977,2.23432 c 4.75542,1.99729 5.31977,2.72602 5.31977,6.86928 0,4.0058 -0.67872,4.98718 -5,7.22963 l -5,2.59467 -0.34188,99.78749 -0.34189,99.78749 3.21224,3.41522 c 1.76673,1.87837 3.42409,4.59084 3.68303,6.02764 0.36359,2.0175 7.66272,5.669 32.05354,16.035 17.37051,7.3824 32.01699,13.8568 32.54774,14.3875 1.29333,1.2934 1.35303,1.2754 3.75865,-1.1302 z m -93.90476,-16.5535 v -15.9821 l -5,-2.04761 c -29.64182,-12.13897 -68.27597,-29.66721 -68.30133,-30.98817 -0.0426,-2.2203 -0.67287,-2.40911 12.78154,3.82913 6.51922,3.02269 22.52982,10.16931 35.5791,15.88137 l 23.72598,10.38556 3.30377,-3.06183 3.30377,-3.06183 -0.36308,-58.30156 -0.36308,-58.30157 -6.66667,-2.44704 c -3.66667,-1.34587 -22.11726,-8.17895 -41.00132,-15.18463 -18.88405,-7.00568 -34.63405,-12.7376 -34.99999,-12.7376 -0.36595,0 -0.66535,24.4 -0.66535,54.22222 0,29.82222 -0.27153,53.9507 -0.60339,53.61883 -0.33187,-0.33187 -1.02003,-50.23186 -1.52925,-110.88888 -0.69337,-82.59216 -0.54185,-110.28549 0.60339,-110.28549 1.11952,0 1.52925,11.90781 1.52925,44.44444 0,34.61813 0.36848,44.46456 1.66666,44.53544 0.91667,0.0501 10.06667,3.23851 20.33334,7.08548 10.26666,3.84697 27.36666,10.25923 37.99999,14.24947 10.63334,3.99025 20.29547,7.54878 21.4714,7.90785 1.83039,0.55892 2.1182,-0.70487 2,-8.78218 -0.0759,-5.18928 -0.57645,-9.43628 -1.11226,-9.43778 -0.5358,-0.002 -6.02577,-2.40273 -12.19992,-5.33606 -6.17414,-2.93333 -11.50419,-5.33333 -11.84455,-5.33333 -0.34036,0 -0.5504,2.25 -0.46675,5 0.13686,4.49949 -0.2124,5.04198 -3.48909,5.41943 -5.07521,0.58463 -10.21229,-4.69916 -9.83712,-10.11808 0.32071,-4.63251 -1.38951,-5.71365 -19.80297,-12.5188 -5.83802,-2.15759 -11.38802,-4.56478 -12.33333,-5.34931 -2.46091,-2.04238 -2.30156,-15.62662 0.19454,-16.58446 1.05231,-0.40381 7.20231,1.34176 13.66667,3.87904 18.64257,7.31727 17.07807,7.39362 18.93952,-0.92423 1.78322,-7.96824 3.59146,-9.44288 8.6542,-7.05759 4.00019,1.88468 5.33895,6.06544 3.49518,10.91493 -2.74054,7.20816 -2.09159,7.93864 11.66448,13.12993 7.15,2.69828 13.38437,4.89918 13.85416,4.89088 0.46979,-0.008 0.91355,-3.97395 0.98614,-8.81258 0.10745,-7.16263 -0.34843,-9.2068 -2.4532,-11 -1.78376,-1.51971 -2.69313,-4.2279 -2.93338,-8.73594 -0.29277,-5.49348 0.0759,-6.69034 2.3162,-7.51907 1.92083,-0.71056 2.58751,-2.05009 2.38889,-4.79989 -0.15152,-2.09784 -0.32424,-29.65593 -0.38382,-61.2402 l -0.10832,-57.42594 -31,-9.56582 c -17.05,-5.26121 -35.65,-11.02308 -41.33333,-12.80417 l -10.33333,-3.23834 v 31.23011 c 0,19.93118 -0.4824,31.2301 -1.33334,31.2301 -1.83684,0 -1.83684,-143.53142 0,-144.66665 0.87348,-0.53984 1.33334,9.30807 1.33334,28.55373 v 29.37778 l 3.94605,2.04059 c 2.78671,1.44106 77.33944,24.68556 79.20665,24.69552 0.0993,5.3e-4 0.0106,-15.36233 -0.19716,-34.13969 -0.30826,-27.85734 -0.7377,-34.50056 -2.33334,-36.0962 -1.30915,-1.30915 -1.95554,-4.76277 -1.95554,-10.44828 0,-5.10882 -0.62972,-8.88193 -1.58044,-9.46951 -1.62603,-1.00494 -3.2255,-1.48378 -48.41956,-14.49546 -14.66666,-4.22263 -26.91666,-7.90423 -27.22222,-8.18133 -3.38845,-3.07289 14.60732,1.51187 60.55555,15.42767 7.33334,2.22095 14.08334,4.04494 15,4.05331 1.20294,0.011 1.66667,-3.11713 1.66667,-11.24253 0,-10.07128 0.30769,-11.47324 2.91956,-13.30266 1.60575,-1.12472 2.65575,-2.25844 2.33333,-2.51938 -0.32242,-0.26094 -18.93796,-5.68742 -41.36786,-12.05884 l -40.78164,-11.58441 -6.26444,3.50125 c -4.86862,2.72113 -7.29397,3.30812 -10.88503,2.63443 l -4.62059,-0.86683 v 7.73632 7.73631 l 6.98015,2.69661 c 4.31982,1.66885 7.64325,3.95211 8.71997,5.99077 2.09485,3.9664 1.61286,20.51452 -0.66383,22.79121 -0.85029,0.85029 -4.5813,1.83764 -8.29114,2.1941 l -6.74515,0.64813 v 74.95264 74.95264 l 5.20378,1.55909 c 8.9094,2.66932 10.67715,5.0395 11.58249,15.52967 0.49088,5.68783 0.22297,10.82905 -0.68591,13.16272 -1.43671,3.68893 -1.75931,3.80716 -8.79589,3.22363 l -7.30447,-0.60574 0.0277,112.77635 0.0277,112.77636 8.33898,5.47612 8.339,5.47613 0.38504,9.43141 c 0.43969,10.76967 -0.0512,11.35996 -10.78518,12.96947 -6.05647,0.90814 -6.33333,1.13844 -6.33333,5.26813 0,4.23714 0.2951,4.44694 15.66667,11.13809 32.25383,14.0399 81.03548,34.7622 82,34.8335 0.55,0.041 1,-7.1181 1,-15.9083 z m 626.35982,4.1282 c 4.20208,-2.8879 9.60547,-6.9521 12.00753,-9.0317 l 4.36739,-3.7811 -0.36739,-270.82462 -0.36739,-270.82468 -13.66666,6.0147 -13.66667,6.0147 v 274.61929 c 0,245.15597 0.21742,274.53581 2.02653,273.84161 1.11459,-0.4277 5.46459,-3.1404 9.66666,-6.0282 z m 158.69727,-72.0364 c 42.7481,-30.4727 77.2437,-55.56494 76.657,-55.76054 -0.5868,-0.1956 -0.849,-5.15417 -0.5827,-11.01905 0.2663,-5.86488 0.1136,-10.66342 -0.3394,-10.66342 -0.453,0 -21.9665,14.7689 -47.8078,32.81979 -25.8413,18.05088 -66.02274,46.10088 -89.29203,62.33333 l -42.3078,29.51354 -0.0255,13.06515 -0.0255,13.0652 13,-8.9746 c 7.15,-4.936 47.97572,-33.9067 90.72383,-64.3794 z M 101.40637,950.55747 V 935.8908 h -3.999996 -4 v 13.12958 c 0,12.29827 0.18995,13.22117 3,14.57647 1.65,0.7957 3.45,1.4874 3.999996,1.537 0.55,0.05 1,-6.50972 1,-14.57638 z m 770.88324,7.861 6.45006,-4.13899 V 685.08525 c 0,-148.05687 -0.45,-269.1589 -1,-269.11562 -0.55,0.0433 -3.7,1.40134 -7,3.01789 l -6,2.93919 -0.33656,270.31543 c -0.18511,148.67348 0.0624,270.31541 0.54994,270.31541 0.48757,0 3.78902,-1.8625 7.33656,-4.13898 z M 234.73971,855.22424 c 0,-87.16343 -0.27505,-102 -1.89095,-102 -1.04002,0 -2.84002,-0.36419 -4,-0.80931 -1.81645,-0.69704 -2.10905,0.69249 -2.10905,10.01575 v 10.82508 l -5.33333,-0.85284 -5.33334,-0.85283 v 4.72596 c 0,4.33443 0.44525,4.87438 5.37416,6.51736 l 5.37415,1.79138 -0.031,84.78703 -0.031,84.78703 2.99016,1.44245 c 1.64458,0.79335 3.44015,1.48306 3.99015,1.53269 0.55,0.0496 1,-45.80976 1,-101.90975 z m 663.66663,85.02763 9.66666,-7.31008 V 667.63858 c 0,-157.60261 -0.4895,-265.12278 -1.20581,-264.85876 -0.6632,0.24445 -6.65504,2.84444 -13.31521,5.77778 l -12.1094,5.33333 -0.0181,269.15333 -0.0181,269.15333 3.66666,-2.31782 c 2.01667,-1.2748 8.01667,-5.60736 13.33334,-9.6279 z m -767.2678,-8.65724 c 1.65397,-1.94959 2.27499,-4.51617 2,-8.26566 -0.37257,-5.08002 -0.87315,-5.69225 -7.6028,-9.2985 -3.96218,-2.12324 -11.16218,-4.67119 -16,-5.66213 -4.83782,-0.99093 -10.446026,-2.17368 -12.462696,-2.62833 l -3.66667,-0.82665 v 12.65169 12.6517 l 5,0.90488 c 2.749996,0.49768 8.599996,1.74256 12.999996,2.76638 9.73635,2.26553 16.53489,1.47537 19.73217,-2.29338 z m 786.86762,-5.13153 6.06684,-4.09446 V 658.57783 394.78701 l -6.5526,2.7684 c -4.9595,2.09532 -6.71703,3.60723 -7.22889,6.21862 -0.37195,1.89763 -0.4964,15.75023 -0.27654,30.78357 0.21986,15.03333 0.47285,132.78332 0.56222,261.66665 0.0894,128.88332 0.4324,234.33332 0.7623,234.33332 0.32991,0 3.32991,-1.84251 6.66667,-4.09447 z m 33.06684,-23.66126 3.66667,-3.40985 V 640.21828 381.04457 l -2.86892,0.91056 c -1.57791,0.5008 -7.87791,3.21377 -14,6.0288 l -11.13108,5.11825 V 657.21569 921.3292 l 10.33333,-7.55875 c 5.68333,-4.15732 11.98333,-9.09319 14,-10.96861 z M 114.73971,791.89091 V 679.89092 h -3.33334 -3.33333 v 111.1111 c 0,61.11111 0.4,111.5111 0.88889,111.99999 0.48889,0.48889 1.98889,0.88889 3.33333,0.88889 2.35097,0 2.44445,-4.28283 2.44445,-111.99999 z m -13.33334,-1.33333 v -112 h -3.999996 -4 v 111.11111 c 0,61.1111 0.4,111.5111 0.88889,111.99999 0.48889,0.48889 2.28889,0.88889 4,0.88889 h 3.111106 z m 865.66663,101.05349 3.66666,-2.56842 v -258.0203 c 0,-141.91117 -0.47001,-257.82031 -1.04447,-257.57586 -0.57446,0.24444 -3.87221,1.64444 -7.32834,3.11111 l -6.28386,2.66667 -0.005,258.11109 c -0.003,141.9611 0.37389,258.48999 0.83698,258.95308 0.92627,0.92627 4.52181,-0.72934 10.15802,-4.67737 z M 520.07302,890.8152 c 0,-3.57457 -0.85191,-4.07904 -18.99999,-11.2511 -10.45,-4.1298 -20.05,-7.90993 -21.33334,-8.40028 -1.8952,-0.72414 -2.33333,-0.15569 -2.33333,3.02739 0,3.2371 0.75395,4.16949 4.33333,5.35896 2.38334,0.792 11.23334,4.43323 19.66667,8.09161 8.43333,3.65839 16.08333,6.71105 17,6.7837 0.96884,0.0768 1.66666,-1.43483 1.66666,-3.61028 z m 461.40533,-7.92854 c 4.07294,-2.74767 9.62294,-6.79576 12.33334,-8.99576 l 4.9279,-4 V 614.98827 l 10e-5,-254.90263 -13,5.85543 -13.00003,5.85543 -0.31671,258.0472 c -0.17419,141.92596 0.12581,258.04529 0.66667,258.04296 0.54086,-0.002 4.31579,-2.25233 8.38873,-5 z m -506.73866,-8.38754 c 0,-5.66523 -0.36773,-6.66337 -2.33333,-6.33333 -2.03809,0.34221 -2.38203,-0.98165 -2.71824,-10.46264 -0.36671,-10.3415 -0.53998,-10.88407 -3.66666,-11.48177 l -3.28177,-0.62735 v 17.05067 c 0,18.60986 -0.24737,18.06291 8.33334,18.42487 3.5358,0.14915 3.66666,-0.0853 3.66666,-6.57045 z m -45.54248,-5.16527 c -0.24998,-4.33972 -0.0998,-8.24513 0.33378,-8.67869 0.43356,-0.43356 5.83289,1.5716 11.9985,4.45591 6.16561,2.88431 12.71021,5.61559 14.54354,6.0695 2.95951,0.73275 3.34811,0.39293 3.46509,-3.03016 0.13699,-4.00897 -1.11609,-4.64651 -27.13176,-13.80416 -3.05019,-1.07368 -3.34344,-2.15414 -3.38051,-12.45534 -0.0179,-4.96661 -1.31139,-7.26374 -4.11793,-7.31292 -0.64081,-0.0112 -0.89144,3.27958 -0.55697,7.31292 0.73575,8.87208 -0.0171,9.08422 -12.42683,3.5014 -13.98867,-6.29316 -14.51775,-6.35116 -14.51775,-1.59125 0,2.46132 0.68836,4.08985 1.72875,4.08985 1.85273,0 23.22478,8.50909 24.4504,9.73471 0.40395,0.40395 0.8504,4.41407 0.99211,8.91137 0.22744,7.21786 1.66336,10.53454 4.61808,10.66683 0.25081,0.0112 0.25148,-3.53026 0.002,-7.86997 z M 1012.073,607.6454 c 0,-139.19829 -0.2796,-253.0878 -0.6214,-253.0878 -0.3418,0 -2.7418,1.01113 -5.3334,2.24695 l -4.7119,2.24695 V 612.88985 866.7282 l 5.3334,-2.9975 5.3333,-2.9975 z M 456.1484,842.34162 c -4.19547,-3.90867 -3.62911,-17.11738 0.73395,-17.11738 1.564,0 1.85581,-11.00307 1.84766,-69.66666 l -0.01,-69.66667 -12.99031,-3.66652 c -7.14467,-2.01658 -23.04031,-6.90494 -35.32365,-10.86301 l -22.33333,-7.1965 v 67.86301 c 0,53.37787 0.35575,67.87249 1.66667,67.90738 4.08238,0.10865 7.66667,5.03839 7.66667,10.54454 0,5.49736 -0.87989,6.52881 -6.22922,7.30224 -1.97549,0.28563 -2.51324,1.78239 -2.83732,7.89731 -0.39574,7.46679 -0.36124,7.54503 3.33333,7.55931 5.1138,0.0198 15.77226,3.38019 21.03241,6.63115 5.1391,3.17613 6.03413,3.3023 6.03413,0.85058 0,-1.01044 0.89811,-3.98664 1.99579,-6.61377 l 1.9958,-4.77661 5.64989,2.39951 c 5.6076,2.38155 5.651,2.45301 5.798,9.54504 0.0815,3.93005 0.6909,7.3561 1.35431,7.61347 0.66341,0.25737 6.00621,2.42614 11.87287,4.8195 l 10.66667,4.35156 0.4087,-6.58144 c 0.32667,-5.26056 -0.14162,-7.09415 -2.33333,-9.13604 z m 568.8366,10.54928 c 4.4289,-3.11666 9.9355,-7.27793 12.237,-9.24725 l 4.1843,-3.58058 V 590.53256 c 0,-137.24178 -0.5004,-249.33051 -1.112,-249.08607 -0.6116,0.24445 -6.6025,2.84445 -13.3131,5.77778 l -12.201,5.33333 -0.02,252.99999 c -0.011,139.14999 0.4731,252.99998 1.0761,252.99998 0.603,0 4.7201,-2.55 9.149,-5.66667 z M 588.07302,837.43826 c 0,-14.19346 -0.0609,-14.4804 -3.39607,-16 -1.86784,-0.85104 -3.66784,-1.54735 -4,-1.54735 -0.33216,0 -0.60393,6.50831 -0.60393,14.46291 0,13.68099 0.16219,14.54114 3,15.90976 1.65,0.79576 3.45,1.48745 4,1.53708 0.55,0.0496 1,-6.41345 1,-14.3624 z m 522.79308,-9.85165 3.9011,-2.88425 -3.6494,-1.49171 c -3.3748,-1.37945 -4.5298,-0.84363 -15.3471,7.11984 -9.9225,7.30468 -11.6977,9.18404 -11.6977,12.38388 v 3.77231 l 11.446,-8.00791 c 6.2952,-4.40435 13.2014,-9.30582 15.3471,-10.89216 z m -640.12641,10.88111 c 0,-4.61829 -0.35668,-5.30997 -2.40327,-4.66041 -1.3218,0.41952 -3.53785,-0.0669 -4.92455,-1.08083 -3.33414,-2.43798 -5.97664,0.0477 -5.07346,4.77234 0.45537,2.38214 1.92192,3.82022 4.86006,4.76573 7.06407,2.27325 7.54122,2.03302 7.54122,-3.79683 z m 104.38658,-21.32236 c -2.06789,-1.95774 -17.61074,-7.92112 -20.64548,-7.92112 -1.83489,0 -1.27815,23.51024 0.59223,25.00894 0.91667,0.73451 5.56667,2.70506 10.33334,4.37901 4.76666,1.67394 9.26666,3.57912 9.99999,4.23371 0.87593,0.78188 1.46596,-3.03479 1.71992,-11.12546 0.32726,-10.42557 0.0203,-12.66238 -2,-14.57508 z m -94.94419,22.74555 c 2.22212,0 1.27245,-5.00533 -1.10905,-5.84535 -1.28334,-0.45267 -3.08334,-1.17265 -4,-1.59996 -1.12997,-0.52673 -1.66667,0.47539 -1.66667,3.11197 0,4.51813 1.1155,6.03556 3.70607,5.04147 1.01495,-0.38947 2.39629,-0.70813 3.06965,-0.70813 z m 570.58622,-6.17719 5.3047,-3.51051 V 582.26929 c 0,-136.36365 -0.45,-247.73092 -1,-247.48281 -0.55,0.2481 -3.25,1.31863 -6,2.37896 l -5,1.92786 v 249.06547 c 0,136.98601 0.3129,249.06547 0.6953,249.06547 0.3823,0 3.0823,-1.57973 6,-3.51052 z m -826.97018,-12.79329 -0.39174,-9.63714 -10,-3.8517 c -21.89218,-8.43222 -67.50825,-25.18621 -70.33333,-25.83222 -2.87883,-0.65829 -3,-0.32834 -3,8.1691 0,8.40643 0.18578,8.93135 3.66666,10.3599 8.4376,3.46278 78.42095,30.16401 79.39175,30.29088 0.58212,0.0761 0.88212,-4.19839 0.66666,-9.49882 z m 245.282,-112.69618 0.34042,-120.33333 h -3.34042 -3.34043 v 120.75939 120.7594 l 3,-0.42607 3,-0.42607 z m 609.37108,106.69985 4.3571,-3.69986 -0.3677,-244.79198 -0.3676,-244.79197 -11.3333,5.45865 -11.3334,5.45866 -0.3368,248.42094 -0.3369,248.42094 7.6808,-5.38776 c 4.2245,-2.96327 9.6415,-7.0527 12.0378,-9.08762 z m 27.7042,3.93814 c -0.4469,-0.44693 -1.8483,0.27177 -3.1141,1.59712 -2.2003,2.30367 -2.1646,2.33943 0.8126,0.81261 1.7128,-0.87842 2.7485,-1.96279 2.3015,-2.40973 z m 5.9176,1.61664 c 0,-1.14327 -0.6098,-1.70182 -1.3551,-1.2412 -0.7453,0.46062 -1.0099,1.39603 -0.588,2.07869 1.143,1.84939 1.9431,1.50455 1.9431,-0.83749 z M 588.07302,728.44589 v -89.95431 l -3.42013,-1.30033 c -1.88107,-0.71518 -3.66526,-1.30033 -3.96485,-1.30033 -0.2996,0 -0.56796,40.65452 -0.59636,90.34339 l -0.0516,90.34339 3.01649,1.40523 c 1.65906,0.77288 3.46648,1.18294 4.01648,0.91125 0.55,-0.27169 1,-40.97342 1,-90.44829 z m -203.23808,86.87359 c 3.75284,-3.75285 2.29709,-6.98331 -4.09524,-9.08775 l -6,-1.97528 v 3.81723 c 0,2.09948 0.6,3.81723 1.33333,3.81723 0.73334,0 1.33334,0.856 1.33334,1.90223 0,1.04623 1.05,2.17663 2.33333,2.512 1.28333,0.33537 2.52619,0.67936 2.7619,0.76443 0.23572,0.0851 1.28572,-0.70247 2.33334,-1.75009 z m 773.70556,-19.85535 c 16.6095,-11.96806 42.4437,-30.58567 57.4092,-41.37247 39.8533,-28.72541 36.3353,-25.22426 35.8584,-35.68711 l -0.4018,-8.81438 -30,20.54723 c -16.5,11.30097 -44.2066,30.44544 -61.5704,42.54326 l -31.5703,21.99603 -0.4297,11.27689 c -0.2362,6.20228 -0.2192,11.27548 0.038,11.27377 0.2571,-0.002 14.0571,-9.79516 30.6667,-21.76322 z m -872.04315,16.1633 c 0.17868,-2.34491 0.61792,-4.55653 0.9761,-4.91471 0.35818,-0.35818 5.17591,1.23738 10.70608,3.54569 l 10.05484,4.19693 -0.414,-4.20865 c -0.39147,-3.97966 -0.96829,-4.38804 -10.60179,-7.50597 -10.17335,-3.29266 -10.18879,-3.30487 -10.90101,-8.61486 -0.39228,-2.92464 -0.50084,-7.92395 -0.24126,-11.10957 0.25959,-3.18563 -0.0208,-5.79205 -0.623,-5.79205 -1.61478,0 -2.45392,2.87511 -3.4761,11.90997 -0.5034,4.44952 -1.37868,8.09003 -1.94505,8.09003 -0.56638,0 -7.74798,-2.7 -15.95912,-6 -8.21114,-3.3 -15.11835,-6 -15.34936,-6 -0.23101,0 0.0185,1.65 0.55455,3.66667 0.864,3.25066 2.70405,4.29182 16.21803,9.17669 13.18121,4.7646 15.29394,5.93708 15.61672,8.66667 0.77579,6.56056 1.73082,9.15664 3.36852,9.15664 0.94548,0 1.83421,-1.87965 2.01585,-4.26348 z M 393.40637,811.129 c 0,-1.15238 -0.9,-2.99524 -2,-4.09524 -1.77778,-1.77777 -2,-1.54497 -2,2.09524 0,2.75133 0.65633,4.09524 2,4.09524 1.1,0 2,-0.94286 2,-2.09524 z m 698.65803,-6.566 5.2718,-3.32791 0.052,-243.32979 0.052,-243.3298 -6.0172,2.92341 -6.0173,2.9234 v 243.7343 c 0,134.05386 0.312,243.7343 0.6932,243.7343 0.3812,0 3.0654,-1.49756 5.9649,-3.32791 z M 385.30638,683.89092 c -0.0731,-98.58941 -0.39205,-118.66666 -1.88497,-118.66666 -0.98832,0 -2.74602,-0.3642 -3.90599,-0.80932 -1.91344,-0.73426 -2.10905,10.18964 -2.10905,117.77777 0,65.2229 0.4,118.98709 0.88889,119.47598 0.48888,0.48888 2.28619,0.88888 3.99401,0.88888 h 3.10513 z m 726.35702,108.86503 10.4096,-7.13495 0.3369,-241.41898 0.337,-241.41899 -8.337,3.8911 c -4.5853,2.1401 -9.8369,4.66238 -11.6702,5.60506 l -3.3334,1.71396 -0.3369,242.94888 c -0.2107,151.97273 0.1352,242.94888 0.9237,242.94888 0.6934,0 5.945,-3.21073 11.6703,-7.13496 z m -786.25703,-4.86504 c 0,-1.46667 0.0994,-3.11667 0.22091,-3.66667 0.1215,-0.55 -2.5785,-2.0394 -6,-3.30977 l -6.22091,-2.30978 v 4.532 c 0,3.73046 0.6485,4.76885 3.66667,5.87118 5.91208,2.15928 8.33333,1.83474 8.33333,-1.11696 z m 8,-1.11111 c 0,-3.08773 -1.11429,-4.22259 -3.31634,-3.37758 -2.21814,0.85118 -0.96147,5.82202 1.47185,5.82202 1.01447,0 1.84449,-1.1 1.84449,-2.44444 z m -138.99999,-4.74495 c -2.88012,-2.18632 -3.05432,-7.2843 -0.28523,-8.3469 1.12646,-0.43226 5.53806,0.48657 9.80356,2.04185 9.72029,3.54419 9.74614,3.54244 9.2369,-0.62416 -0.36256,-2.96644 -1.89902,-4.02087 -10.9243,-7.49709 l -10.50241,-4.04514 0.89134,-9.83625 c 0.53539,-5.90825 0.38877,-9.83625 -0.36716,-9.83625 -1.75213,0 -4.18604,7.4953 -4.18604,12.89103 0,4.23021 -0.21454,4.44061 -3.66666,3.5958 -2.01667,-0.49352 -8.89405,-2.90495 -15.28307,-5.35873 -6.38902,-2.45379 -12.23902,-4.46143 -13,-4.46143 -0.76098,0 -1.37344,1.65 -1.36102,3.66666 0.0212,3.43708 0.8769,3.97361 13.66667,8.56874 7.50424,2.69615 14.99408,5.28658 16.64408,5.75652 2.58231,0.73548 3,1.75654 3,7.33349 0,6.57244 0.77472,7.48012 6.66667,7.81085 1.587,0.0891 1.51817,-0.2535 -0.33333,-1.65899 z m -16.33333,-18.14394 c -0.45323,-0.73333 -0.18864,-1.33333 0.58797,-1.33333 0.77661,0 1.41203,0.6 1.41203,1.33333 0,0.73333 -0.26459,1.33333 -0.58798,1.33333 -0.32339,0 -0.9588,-0.6 -1.41202,-1.33333 z M 1136.0627,536.22426 c 0.01,-131.45 -0.2693,-238.99999 -0.6111,-238.99999 -0.3418,0 -2.7418,1.01113 -5.3334,2.24695 l -4.7119,2.24695 v 239.79285 239.79285 l 5.3231,-3.03981 5.3231,-3.03982 z m -810.9823,126.66666 -0.3407,-115.66666 -3,-0.42607 -3,-0.42607 -0.0235,46.42607 c -0.089,175.61505 -0.0168,183.57692 1.6758,184.65138 5.12106,3.25095 5.04119,5.20267 4.68843,-114.55865 z m 38.99263,96.3869 v -13.94643 l -8.80711,-2.72024 c -4.84391,-1.49613 -10.24391,-2.72024 -12,-2.72024 -3.15417,0 -3.19288,0.16072 -3.19288,13.25464 0,7.29006 0.57717,13.61136 1.28261,14.04735 1.22317,0.75596 19.62506,5.80432 21.71738,5.95793 0.55,0.0404 1,-6.20248 1,-13.87301 z m 5.94306,12.70522 c 0.42191,-0.68266 0.15732,-1.61807 -0.58797,-2.07869 -0.7453,-0.46062 -1.35509,0.0979 -1.35509,1.2412 0,2.34204 0.80008,2.68688 1.94306,0.83749 z m 783.76981,-9.53809 6.8396,-6.11262 0.057,-234.10869 c 0.031,-128.75978 -0.2743,-234.44046 -0.6793,-234.84596 -0.405,-0.4055 -5.3383,1.1941 -10.9628,3.55466 l -10.2264,4.29193 -0.037,239.07537 -0.037,239.07537 4.1033,-2.40872 c 2.2568,-1.32479 7.1811,-5.15939 10.9429,-8.52134 z m -779.86503,-96.0671 c -0.13873,-96.19881 -0.34468,-105.61922 -2.33333,-106.73212 -1.8762,-1.04997 -2.18117,-4.17431 -2.18117,-22.34507 0,-17.54729 0.33867,-21.25439 2,-21.8919 2.90185,-1.11355 2.61839,-7.51513 -0.33334,-7.52802 -1.28333,-0.006 -6.01127,-1.12878 -10.50652,-2.49595 l -8.1732,-2.48576 -0.7033,28.82928 c -0.38682,15.8561 -0.67523,68.50596 -0.64092,116.99967 l 0.0624,88.1704 8.14744,3.16293 8.14745,3.16293 0.38524,11.66667 c 0.30272,9.16753 0.80255,11.66667 2.33333,11.66667 1.07145,0 1.94809,1.2 1.94809,2.66666 0,1.46667 0.45,2.66631 1,2.66588 0.55,-4.4e-4 0.93153,-47.48096 0.84784,-105.51227 z M 1174.4238,514.01322 c 0.193,-128.76725 -0.107,-234.09346 -0.6666,-234.05824 -0.5597,0.0352 -3.1175,1.09085 -5.6842,2.34584 l -4.6667,2.2818 -0.337,235.12506 -0.3371,235.12506 5.6704,-3.34862 5.6704,-3.34862 z M 235.81119,745.6291 c 0.42546,-4.26323 -1.73503,-5.67748 -8.73815,-5.71998 -1.65,-0.01 -3,-0.61821 -3,-1.35154 0,-0.73333 -0.54023,-1.33333 -1.20051,-1.33333 -2.30843,0 -0.66286,8.26291 1.95343,9.80872 7.34647,4.34058 10.45156,3.94376 10.98523,-1.40387 z m 7.6783,-4.27037 c -1.94843,-3.15263 -4.74978,-1.48444 -4.74978,2.82848 v 4.29629 l 2.82847,-2.82847 c 1.55566,-1.55566 2.42025,-3.48899 1.92131,-4.2963 z m 949.50321,-6.22469 5.7165,-5.42354 0.023,-224.77811 c 0.013,-123.62796 0.4016,-227.54272 0.8648,-230.92169 l 0.842,-6.14359 -11.8495,5.27591 -11.8495,5.27591 -0.3371,234.15672 -0.337,234.15673 5.6053,-3.0874 c 3.0829,-1.69807 8.1778,-5.52799 11.3218,-8.51094 z m -959.34794,-106.18819 -0.42829,-108.2788 -3.25303,-0.43564 -3.25304,-0.43564 0.0449,107.94654 c 0.0349,84.01069 0.40774,108.09342 1.68132,108.60897 5.92101,2.39685 5.66347,7.70783 5.20816,-107.40543 z M 1266.7397,730.4126 c 10.101,-6.06426 10.6666,-7.12941 10.6666,-20.08744 0,-7.91597 -0.4972,-11.76758 -1.5192,-11.76758 -1.9394,0 -14.8304,7.86662 -16.127,9.84138 -1.2253,1.86615 -1.3399,22.72802 -0.1316,23.9364 1.3242,1.3241 2.0134,1.13775 7.1112,-1.92276 z m -2.4624,-4.18409 c -0.8457,-0.84568 -1.5376,-4.00534 -1.5376,-7.02148 0,-4.33783 0.8258,-6.2751 3.9517,-9.26993 3.3064,-3.16769 4.2864,-3.50842 6,-2.0862 2.6579,2.20585 2.6462,10.593 -0.02,14.39969 -2.931,4.18454 -6.4973,5.87463 -8.394,3.97792 z m 7.7957,-11.21091 c 0,-4.8854 -1.3516,-5.58459 -4.5714,-2.36478 -2.1044,2.10432 -2.8695,8.68609 -1.2035,10.35211 1.8384,1.83842 5.7749,-3.60617 5.7749,-7.98733 z m -14.6667,2.60665 c 0,-9.2433 -0.4099,-12.52339 -1.4368,-11.49651 -0.7903,0.79026 -1.4374,6.16026 -1.4381,11.93334 0,13.00371 -0.064,12.4965 1.5416,12.4965 0.7972,0 1.3333,-5.2 1.3333,-12.93333 z m -45.3618,-225.30097 0.029,-229.56764 -5.3133,2.23432 -5.3133,2.23431 -0.3534,230.4445 c -0.1943,126.74447 -0.1225,230.67528 0.1596,230.95736 0.2821,0.28208 2.8193,-1.11795 5.6382,-3.11118 l 5.1253,-3.62404 z m 11.6876,221.94857 5.659,-3.83192 0.341,-227.27453 c 0.1875,-125.00099 -0.1479,-227.27451 -0.7453,-227.27449 -0.5974,2e-5 -4.0474,1.27392 -7.6666,2.83089 l -6.5805,2.83086 v 229.24781 c 0,183.02791 0.336,229.0518 1.6666,228.27556 0.9167,-0.53474 4.2133,-2.69662 7.3258,-4.80418 z m 20.3409,-239.11164 c 0,-124.26477 -0.2879,-225.93594 -0.6397,-225.93594 -0.3518,0 -3.0518,0.96515 -6,2.14478 l -5.3603,2.14477 v 227.91927 227.91927 l 6,-4.12811 6,-4.12811 z m 25.977,222.59245 3.3103,-2.13825 0.034,-221.19507 c 0.019,-121.65729 -0.1975,-221.19507 -0.4808,-221.19507 -0.2833,0 -2.7585,0.93732 -5.5003,2.08293 -2.7418,1.14561 -5.8151,1.76444 -6.8295,1.37518 -1.5657,-0.60083 -1.8443,32.99203 -1.8443,222.3615 0,122.68809 0.4021,223.47136 0.8935,223.96282 0.4915,0.49146 2.2915,-0.009 4,-1.11111 1.7086,-1.10257 4.5961,-2.96689 6.4168,-4.14293 z m -811.32831,-23.52841 -0.018,-9.66667 -32.98199,-10.18755 c -18.1401,-5.60315 -34.032,-10.61734 -35.31533,-11.14265 -2.0987,-0.85906 -2.33334,0.0422 -2.33334,8.96292 v 9.91801 l 5.66667,1.40328 c 4.14796,1.02719 42.74657,13.12648 64.66666,20.27068 0.18334,0.0598 0.32524,-4.24135 0.31533,-9.55802 z m -326.91531,1.4 c 1.87001,-1.87001 2.13097,-12.82985 0.41307,-17.34828 -1.53042,-4.0253 -14.23603,-8.5248 -28.47974,-10.08567 l -10.333336,-1.13236 v 12.85241 12.85242 l 14.333336,2.02339 c 18.71246,2.64159 22.14368,2.76108 24.06667,0.83809 z m 324.28794,-91.98969 c -1.99714,-2.70128 -2.68796,-5.70557 -2.68796,-11.68965 0,-4.42969 -0.27105,-8.05399 -0.60233,-8.05399 -0.33128,0 -12.56237,-3.6 -27.1802,-8 -26.14628,-7.87009 -31.03964,-8.98489 -30.72624,-7 0.68693,4.35054 -0.68453,8.98119 -3.49122,11.78788 l -3.33334,3.33333 v 37.89039 37.89039 l 23.66667,7.48342 c 13.01666,4.11588 28.76666,9.09081 35,11.0554 l 11.33333,3.57198 0.35462,-37.31675 c 0.33853,-35.62303 0.23263,-37.48176 -2.33333,-40.9524 z m -341.57367,-12.40773 -0.44761,-75.33075 -3.77659,-0.003 -3.77659,-0.003 0.71334,46.33333 c 0.39234,25.48333 0.7418,59.38333 0.77659,75.33333 l 0.0632,28.99999 h 3.44761 3.4476 z m -13.11428,-2.00257 v -74.66667 h -3.999996 -4 v 73.90726 73.90726 l 3,0.57783 c 1.65,0.3178 3.45,0.65953 3.999996,0.7594 0.55,0.0999 1,-33.41842 1,-74.48508 z m 486.37864,36.67733 c -0.20826,-0.16621 -2.02866,-0.69804 -4.04532,-1.18184 l -3.66667,-0.87964 v 14.43468 14.43468 l 3.66667,1.29205 3.66666,1.29205 0.37866,-14.54489 c 0.20826,-7.99969 0.20826,-14.68088 0,-14.84709 z m -10.66008,7.83558 -0.38524,-11.48708 -7.94065,-2.4534 c -4.36736,-1.34937 -9.46736,-2.63018 -11.33333,-2.84625 -3.38561,-0.39203 -3.39269,-0.37054 -3.39269,10.31266 v 10.70552 l 10.66667,3.48814 c 5.86667,1.91848 11.14002,3.551 11.71858,3.62782 0.57855,0.0768 0.87855,-5.02951 0.66666,-11.34741 z M 222.73971,597.89092 c 0,-7.70551 -0.43038,-10 -1.87571,-10 -1.03165,0 -18.71781,-5.1 -39.30258,-11.33333 -20.58478,-6.23333 -38.0407,-11.33333 -38.79095,-11.33333 -0.77744,0 -1.36409,3.42038 -1.36409,7.95308 0,6.21095 0.51112,8.22596 2.33333,9.19875 1.28334,0.68512 19.0804,6.40329 39.54903,12.70706 20.46864,6.30376 37.51864,11.76432 37.88889,12.13458 1.39741,1.39741 1.56208,0.41424 1.56208,-9.32681 z m 365.20754,-7.77732 0.1899,-11.14838 -4.03206,-0.11464 -4.03207,-0.11464 v 11.15142 c 0,10.52905 0.16743,11.17902 3,11.64586 1.65,0.27194 3.37897,0.32216 3.84216,0.1116 0.46319,-0.21057 0.92762,-5.39962 1.03207,-11.53122 z m -117.47422,-6.48935 c 1.08708,-1.08707 1.6,-7.39452 1.6,-19.67536 v -18.07536 l -5.31234,-1.65797 c -9.7415,-3.04031 -9.35433,-3.74028 -9.35433,16.91192 0,18.47325 0.0183,18.58428 3.51315,21.33333 3.9687,3.12179 7.20148,3.51548 9.55352,1.16344 z m 6.64125,-9.06666 c 0.0625,-2.2 -0.44614,-4 -1.13043,-4 -1.41721,0 -1.70505,5.76133 -0.35527,7.11111 1.31893,1.31893 1.36232,1.22807 1.4857,-3.11111 z m 127.92923,-8.87242 c 7.16449,-4.0574 13.46787,-8.07096 14.00751,-8.91901 1.09579,-1.72204 1.41652,-40.87523 0.33483,-40.87523 -0.37794,0 -7.87794,3.60462 -16.66667,8.01027 l -15.97949,8.01028 v 21.4129 c 0,25.05205 -1.87285,23.78729 18.30382,12.36079 z m -6.22447,-13.03197 c -0.89676,-1.08053 -1.6614,-5.4063 -1.6992,-9.61282 -0.0601,-6.6921 0.37949,-8.03376 3.51658,-10.73217 7.03293,-6.04947 11.4366,-3.31239 11.4366,7.10836 0,5.38464 -0.68976,7.75104 -3,10.29225 -3.8741,4.26143 -8.1435,5.48736 -10.25398,2.94438 z m 5.91121,-2.08034 c 0.46712,-0.75581 -0.0681,-0.97934 -1.25465,-0.52401 -2.30989,0.88639 -2.73251,1.84207 -0.8146,1.84207 0.69005,0 1.62121,-0.59312 2.06925,-1.31806 z m 4.0979,-17.03792 c -1.42279,-1.42279 -1.70945,0.3597 -0.91498,5.68932 l 0.79503,5.33333 0.43754,-5.13376 c 0.24064,-2.82357 0.0977,-5.47357 -0.31759,-5.88889 z m -24.75513,18.32298 v -20.033 l -3.66667,-1.44216 c -2.01666,-0.79318 -9.85939,-2.9946 -17.42829,-4.89204 -11.77817,-2.95265 -13.94013,-3.17242 -15.00015,-1.52484 -0.68119,1.05878 -1.08846,9.91729 -0.90504,19.68559 l 0.33349,17.76054 15.33333,5.11455 c 23.25379,7.75648 21.33333,9.07697 21.33333,-14.66864 z m -23.37962,8.09764 c -1.49213,-0.60482 -3.46287,-2.00326 -4.37944,-3.10765 -2.61203,-3.14731 -3.52608,-14.91157 -1.53253,-19.72443 1.62202,-3.91589 2.08312,-4.14417 7.03051,-3.48059 7.29314,0.97822 9.08342,3.26627 9.62896,12.30621 0.74546,12.35274 -2.94902,17.16749 -10.7475,14.00646 z m 6.04629,-2.43899 c 0,-0.57256 -1.8,-1.72044 -4,-2.55084 -3.78107,-1.4272 -4,-1.91392 -4,-8.89273 0,-5.62472 0.55567,-7.70655 2.33333,-8.74194 2.10814,-1.22788 2.05756,-1.36296 -0.52401,-1.39959 -3.41389,-0.0484 -4.48293,2.28735 -4.45557,9.73517 0.023,6.26138 0.60778,7.44008 5.27626,10.6349 3.57448,2.44617 5.36999,2.85242 5.36999,1.21503 z m 0.66667,-18.95898 c -0.45323,-0.73333 -1.53864,-1.32415 -2.41203,-1.31292 -0.95415,0.0123 -0.7897,0.53631 0.41203,1.31292 2.56149,1.65537 3.02307,1.65537 2,0 z m -90,17.33333 c 0,-7.11111 -0.54321,-12 -1.33333,-12 -0.79013,0 -1.33334,4.88889 -1.33334,12 0,7.11111 0.54321,12 1.33334,12 0.79012,0 1.33333,-4.88889 1.33333,-12 z m -90.96339,-14.33333 c 0.33981,-17.45236 0.1769,-19.00119 -1.99999,-19.01467 -1.30347,-0.008 -4.61995,-0.38658 -7.36995,-0.84113 l -5,-0.82644 v 17.08852 c 0,15.81452 0.22053,17.32326 2.95804,20.2372 2.09901,2.2343 4.13183,3.03366 7,2.7526 l 4.04196,-0.39608 z m 66.96339,9.04691 c 0,-9.25515 0.34266,-10.80314 2.66667,-12.04691 1.46667,-0.78494 2.66667,-2.28878 2.66667,-3.34187 0,-2.04695 -1.94771,-2.69683 -42,-14.01385 -13.2,-3.72974 -25.05,-7.09094 -26.33333,-7.46933 -3.63722,-1.07243 -2.82245,2.84082 0.94928,4.55934 3.09788,1.41149 3.30422,2.19001 3.66666,13.83394 l 0.38406,12.33829 4.66666,1.30332 c 2.56667,0.71682 15.16667,4.45453 28,8.30602 12.83333,3.85149 23.78333,7.03603 24.33333,7.07676 0.55,0.0407 1,-4.70484 1,-10.54571 z m -61.42704,-10.45893 c -0.0515,-8.57339 -0.60937,-16.78798 -1.23962,-18.25465 -0.71477,-1.66335 -1.18117,4.51156 -1.23962,16.41203 -0.0609,12.4025 0.37286,18.79033 1.23962,18.25464 0.77494,-0.47894 1.29409,-7.35225 1.23962,-16.41202 z m 231.70134,3.41202 c -0.3178,-1.65 -0.57782,-0.3 -0.57782,3 0,3.3 0.26002,4.65 0.57782,3 0.31781,-1.65 0.31781,-4.35 0,-6 z m -80.72102,2 c 0.12097,-2.01667 0.27097,-8.45926 0.33333,-14.31686 l 0.11339,-10.6502 -37.33333,-10.37452 C 447.35437,493.89875 383.9988,475.9935 306.7397,453.88138 267.50637,442.65251 217.70638,428.5699 196.07304,422.58668 c -46.56621,-12.879 -53.51095,-15.0528 -50.28042,-15.7385 2.52872,-0.53673 51.56148,12.84889 138.28042,37.74966 51.25651,14.71797 212.24731,60.23243 242.31141,68.50499 8.23796,2.26678 16.32241,4.12143 17.96547,4.12143 3.09957,0 24.97487,-8.1584 25.02566,-9.33333 0.0159,-0.36667 -21.42074,-6.52463 -47.63687,-13.68436 -26.21612,-7.15972 -68.06568,-18.65956 -92.99901,-25.5552 -24.93333,-6.89564 -75.33333,-20.74883 -112,-30.78487 -36.66666,-10.03605 -83.16666,-23.05146 -103.33332,-28.92315 -20.16667,-5.87169 -37.56667,-10.66357 -38.66667,-10.64864 -5.22138,0.0709 -20.41913,3.13201 -26.20714,5.27861 l -6.45952,2.39564 -0.41911,13.96156 -0.4191,13.96157 40.4191,11.68913 c 22.23051,6.42902 40.81601,11.67876 41.30112,11.66608 1.54329,-0.0403 0.3953,-3.80496 -1.95081,-6.39739 -1.2455,-1.37626 -2.26454,-4.39361 -2.26454,-6.70523 0,-3.36219 0.66151,-4.36897 3.30688,-5.03292 3.5624,-0.8941 21.33308,3.91192 22.71151,6.14226 1.45212,2.34959 -0.81908,6.75387 -4.13248,8.01362 -2.13061,0.81005 -3.21925,2.27326 -3.21925,4.32689 0,3.64479 1.77766,4.3595 34,13.66982 11.73334,3.39023 26.06676,7.63469 31.85207,9.43214 5.7853,1.79745 10.79233,2.99448 11.12674,2.66007 0.33441,-0.33441 -0.64902,-1.68433 -2.1854,-2.99981 -2.01627,-1.72639 -2.79341,-3.9567 -2.79341,-8.01679 0,-3.09374 0.45,-5.89916 1,-6.23426 1.29091,-0.78652 20.05315,2.68164 24.08747,4.45252 4.72025,2.07196 3.52997,8.10085 -2.08747,10.57333 -4.71145,2.07371 -5.83094,6.14005 -2,7.26463 1.28333,0.37672 10.82711,3.11441 21.2084,6.08376 10.38129,2.96934 19.83129,5.76574 21,6.21421 1.50573,0.5778 2.12493,0.0421 2.12493,-1.8384 0,-1.55877 -1.13406,-2.95037 -2.74839,-3.37253 -2.33054,-0.60945 -2.68528,-1.59595 -2.33333,-6.48884 l 0.41505,-5.77012 6,0.12541 c 7.44422,0.1556 16.58009,2.64515 19.15464,5.2197 2.80024,2.80024 1.08615,7.46231 -3.36078,9.14084 -2.61581,0.98735 -3.79386,2.36034 -3.79386,4.42164 0,2.3934 1.1301,3.28828 5.66667,4.48719 6.02293,1.59171 29.08171,8.26087 50.84006,14.70418 7.24536,2.14557 13.39536,3.90104 13.66666,3.90104 1.80712,0 -10e-4,-7.83076 -2.25371,-9.7594 -1.94256,-1.66328 -2.62586,-3.6047 -2.33334,-6.62966 0.38397,-3.97055 0.84436,-4.33837 6.41366,-5.12404 4.76532,-0.67226 7.78342,-0.11572 14.66666,2.70454 10.71607,4.39069 11.5242,7.45838 3.02292,11.47522 -5.18775,2.45121 -5.57915,2.98986 -4.84424,6.66667 0.43972,2.2 0.87941,4.09747 0.97708,4.21659 0.37771,0.4607 65.60321,20.18334 67.17757,20.31291 0.91667,0.0754 1.76565,-1.51283 1.88662,-3.5295 z M 326.7397,524.82544 v -19.06548 l -4.89453,-1.76988 c -7.44255,-2.69126 -8.4388,-0.41903 -8.4388,19.24712 v 16.16992 l 4.33333,2.15663 c 9.00093,4.47961 9,4.48134 9,-16.73831 z m 142.66666,5.06548 c 0,-6.23333 -0.55093,-11.33333 -1.22428,-11.33333 -0.67336,0 -2.17336,-0.36419 -3.33334,-0.80932 -1.82164,-0.69903 -2.10905,0.74125 -2.10905,10.5689 0,11.62752 0.11855,11.8943 5.66667,12.75242 0.55,0.0851 1,-4.94533 1,-11.17867 z m -136.84037,5.66667 c 0.44218,-1.65 0.81216,-9.75 0.82217,-18 0.0135,-11.12161 -0.41272,-14.99961 -1.64846,-14.9985 -1.25095,10e-4 -1.66666,4.49109 -1.66666,18.00096 0,17.17375 0.73108,21.57193 2.49295,14.99754 z m 268.28944,-13.80884 c 8.35958,-4.11153 14.89684,-7.96478 14.52726,-8.56278 -0.95783,-1.5498 -16.20251,-6.26904 -23.30967,-7.21589 -5.04488,-0.6721 -8.54247,0.16614 -21.97168,5.26576 -8.78442,3.33582 -16.46347,6.55691 -17.06456,7.15799 -0.78285,0.78285 23.51266,8.89075 32.16117,10.73282 0.25204,0.0537 7.29791,-3.26637 15.65748,-7.3779 z m 79.21759,-19.21663 c 28.96666,-13.37275 58.96666,-27.29953 66.66666,-30.9484 7.7,-3.64888 25.4,-11.91109 39.33333,-18.36048 13.93333,-6.44938 30.43333,-14.10841 36.66666,-17.02006 6.23334,-2.91165 29.03334,-13.55216 50.66667,-23.64558 21.63333,-10.09342 44.43333,-20.74091 50.66666,-23.6611 27.78971,-13.01888 41.57612,-19.33023 102.6667,-47.00023 15.0333,-6.80911 42.6333,-19.55118 61.3333,-28.3157 18.7,-8.76452 48.1,-22.29601 65.3333,-30.06998 17.2334,-7.77396 47.2334,-21.30485 66.6667,-30.06863 l 35.3333,-15.93414 0.403,-6.80844 c 0.2217,-3.74464 -0.1651,-6.80844 -0.8595,-6.80844 -0.6945,0 -17.6758,7.42394 -37.7364,16.49765 -20.0605,9.07371 -63.1737,28.50846 -95.8071,43.18834 -173.21261,77.91852 -492.62044,224.04523 -496.99995,227.3738 -1.02838,0.7816 -1.66666,4.54125 -1.66666,9.81703 0,7.72511 0.22519,8.43104 2.33333,7.31438 1.28333,-0.67977 26.03333,-12.17728 55,-25.55002 z m -294.66665,7.40572 c 0,-8.47572 -0.38281,-10.15796 -2.57902,-11.33334 -4.87696,-2.61007 -5.42098,-1.68794 -5.42098,9.18866 0,8.94444 0.35863,10.66262 2.33333,11.17866 5.50334,1.43818 5.66667,1.17779 5.66667,-9.03398 z m -76,-1.22474 c 0,-8.86395 0.27752,-9.91706 2.78621,-10.5731 2.21067,-0.5781 2.58959,-1.36765 1.83437,-3.82218 -0.52352,-1.70146 -1.02732,-3.15729 -1.11955,-3.23518 -0.0922,-0.0779 -15.4677,-4.50505 -34.16769,-9.83812 -18.7,-5.33308 -35.35,-10.2045 -37,-10.82538 -4.1014,-1.54333 -3.81306,0.67329 0.33333,2.56252 3.1543,1.43719 3.34229,2.12903 3.5,12.88068 0.21403,14.5907 0.15317,14.21315 2.5,15.50875 3.23053,1.78346 55.04897,16.95038 58.33333,17.07378 2.85041,0.1071 3,-0.37816 3,-9.73177 z m -74.17371,5.51116 c 0.44218,-1.65 0.81216,-10.53147 0.82218,-19.73661 l 0.0182,-16.7366 -6.33333,-2.26999 c -3.48333,-1.24849 -6.80873,-2.26702 -7.38978,-2.26339 -0.58104,0.004 -0.97165,8.4223 -0.86801,18.70816 0.17215,17.08684 0.43605,18.98429 3.05644,21.97591 3.75696,4.28921 9.58417,4.46495 10.6943,0.32252 z m 235.88115,-2 c -1.29825,-3.45993 -4.57507,-5.57647 -8.70745,-5.62426 -3.00587,-0.0348 -3.66666,0.5416 -3.66666,3.19819 0,3.34012 1.77559,4.18464 9.62481,4.57783 2.93027,0.14678 3.45706,-0.26552 2.7493,-2.15176 z m 4.95922,1 c 0,-0.73333 -0.6,-1.33333 -1.33334,-1.33333 -0.73333,0 -1.33333,0.6 -1.33333,1.33333 0,0.73333 0.6,1.33333 1.33333,1.33333 0.73334,0 1.33334,-0.6 1.33334,-1.33333 z m -234.20964,-6.33333 c 0.61588,-3.29627 0.33898,-4.33334 -1.15702,-4.33334 -1.42116,0 -1.96666,1.5533 -1.96666,5.6 0,6.27327 1.85549,5.52087 3.12368,-1.26666 z m 429.04036,-21.17968 c 63.25532,-29.06673 90.05515,-41.39537 144.50259,-66.47505 47.00734,-21.65261 68.28445,-31.34897 119.99999,-54.68614 19.06667,-8.60402 57.76666,-26.14338 85.99997,-38.97636 28.2334,-12.83297 72.0334,-32.60961 97.3334,-43.9481 130.923,-58.67465 130.0667,-58.26546 124.439,-59.46318 -2.8081,-0.59765 -6.6825,-0.78288 -8.6096,-0.41161 -5.2615,1.01363 -78.8513,33.18352 -224.4961,98.13881 -31.53334,14.06337 -84.93333,37.75301 -118.66666,52.64364 -33.73334,14.89063 -80.23333,35.61177 -103.33333,46.04698 -94.32175,42.60895 -181.00775,81.38178 -185.85749,83.13014 -1.3883,0.50049 -2.22364,1.21052 -1.85632,1.57784 1.12127,1.12127 14.90504,5.83668 17.21122,5.88794 1.19024,0.0265 25.19024,-10.53276 53.33333,-23.46491 z m -89.0644,16.80092 c 3.64673,-1.95453 6.32889,-2.47408 9.6022,-1.86 5.00352,0.93866 9.84572,-1.12463 133.9648,-57.08327 34.09999,-15.37386 75.49999,-33.93451 91.99999,-41.24589 34.79879,-15.41983 33.72604,-14.94275 52,-23.12567 7.7,-3.448 29,-12.85117 47.33333,-20.89595 18.33333,-8.04477 37.23333,-16.43878 42,-18.65334 4.76666,-2.21457 20.66666,-9.29567 35.33332,-15.73579 14.66671,-6.44011 44.36671,-19.63581 66.00001,-29.32376 21.6333,-9.68796 58.5333,-26.00904 82,-36.26906 23.4667,-10.26003 49.8667,-21.81272 58.6667,-25.67265 8.8,-3.85993 19,-8.14943 22.6666,-9.53221 4.7134,-1.77753 5.8854,-2.65601 4,-2.99831 -4.4764,-0.81275 -5.609,-2.86805 -2.7451,-4.98175 1.4235,-1.05064 1.9792,-1.91024 1.2349,-1.91024 -0.7442,0 -6.7089,-0.89306 -13.2548,-1.98458 -39.3557,-6.5625 -139.112,-22.10876 -235.23497,-36.65962 -29.7,-4.49591 -58.2,-8.91432 -63.33333,-9.8187 -7.97972,-1.40584 -10.56283,-1.33193 -17.81091,0.5096 -7.52443,1.91174 -9.71202,1.94513 -19.45704,0.29699 l -10.97947,-1.85693 -21.87629,6.84207 c -33.25047,10.39948 -128.82941,40.82477 -188.54294,60.01818 -29.33333,9.42846 -80.93333,25.93204 -114.66666,36.67462 -33.73333,10.74259 -89.23333,28.4335 -123.33333,39.31315 -34.09999,10.87965 -76.69999,24.39264 -94.66666,30.02886 -27.07441,8.49337 -153.53645,48.92163 -157.99999,50.51052 -0.73333,0.26105 0.46557,1.18791 2.66423,2.0597 2.19866,0.87179 4.9018,2.4034 6.00699,3.40358 1.71522,1.55225 4.74144,0.88894 20.6691,-4.53043 10.26283,-3.49192 41.75968,-13.70025 69.99301,-22.68518 58.81599,-18.71752 177.48862,-57.07343 233.33332,-75.41513 20.9,-6.86443 56.9,-18.58567 79.99999,-26.04721 23.1,-7.46154 55.5,-17.98969 72,-23.39588 16.5,-5.40619 54.9,-17.7203 85.33333,-27.36469 30.43333,-9.6444 68.83333,-21.92691 85.33333,-27.29448 38.35526,-12.47724 48.03318,-15.27111 52.89891,-15.27111 5.07397,0 17.62207,2.00441 183.10108,29.24823 143.8619,23.68486 152,25.12855 152,26.96472 0,1.3916 -0.6887,1.37087 -7.3333,-0.22079 -2.9334,-0.70266 -12.8334,-2.51355 -22,-4.02422 -68.335,-11.26159 -172.4572,-28.47449 -226.6667,-37.47125 -76.85484,-12.75506 -81.11136,-13.19732 -91.63532,-9.52118 -4.23391,1.47895 -12.64801,4.04786 -18.69801,5.70868 -17.08766,4.69084 -18.89348,4.05297 32.33333,11.42099 17.6,2.53143 46.4,7.27236 64,10.53539 17.6,3.26304 52.69999,9.57915 78,14.03581 25.3,4.45666 63.7,11.3083 85.3333,15.22587 21.6334,3.91756 44.2691,7.89799 50.3017,8.8454 6.0326,0.9474 11.7153,2.18413 12.6281,2.74828 4.1347,2.55537 -1.1855,2.32369 -17.0759,-0.7436 -20.1889,-3.89705 -51.1567,-9.5096 -122.5205,-22.20539 -28.60001,-5.088 -68.50003,-12.22872 -88.6667,-15.86825 -20.16667,-3.63953 -51.96666,-8.74272 -70.66666,-11.34042 -21.55806,-2.99473 -34.48792,-5.36283 -35.33333,-6.47127 -1.06688,-1.39882 -6.66239,-0.0411 -28,6.79418 -32.7082,10.47769 -31.87062,10.12361 -25.33333,10.70967 8.49173,0.76128 123.09953,21.8377 197.33332,36.28968 37.4,7.28111 82.7,15.96854 100.6667,19.30542 35.9855,6.68343 36.5025,6.80893 35.3998,8.59307 -0.4756,0.76957 -2.416,0.76446 -5.0845,-0.0134 -2.3734,-0.69185 -28.0153,-5.77229 -56.982,-11.28985 -28.9667,-5.51757 -73.96667,-14.18608 -100,-19.26336 -80.27733,-15.65649 -163.65773,-30.65908 -170.39501,-30.65908 -2.29158,0 -4.89606,-0.78098 -5.78772,-1.73551 -1.32361,-1.41692 -3.84206,-1.01071 -13.71924,2.21281 -11.36865,3.71029 -11.85687,4.01824 -8.09802,5.10792 2.2,0.63778 5.8,1.70382 8,2.36899 2.2,0.66517 16.3,3.37488 31.33333,6.02159 15.03333,2.6467 37.83333,6.8676 50.66667,9.37978 12.83333,2.51218 41.03333,7.91274 62.66666,12.00124 21.63333,4.08851 47.73333,9.16356 58,11.2779 15.96018,3.28687 104.76823,19.9686 117.66663,22.10253 3.9954,0.661 6.259,3.26275 2.8387,3.26275 -1.7595,0 -45.6875,-8.37939 -111.83867,-21.33355 -79.2911,-15.5273 -150.17121,-28.94147 -208.66665,-39.49047 -6.6,-1.19024 -13.38607,-3.02921 -15.08015,-4.08661 -2.78172,-1.73627 -4.33189,-1.51675 -16,2.26574 -7.10592,2.30355 -13.75573,4.45514 -14.77735,4.7813 -1.02163,0.32617 -1.603,0.84754 -1.29192,1.15861 0.57753,0.57754 57.82179,11.9444 127.14941,25.24777 96.86343,18.58725 137.39863,26.56728 173.33333,34.12354 21.2667,4.47191 40.3542,8.4839 42.4167,8.91554 2.5737,0.53863 3.319,1.21573 2.3761,2.15867 -0.9429,0.94294 -2.9556,0.90384 -6.4167,-0.12465 -12.829,-3.81228 -103.69071,-22.06137 -213.70943,-42.92242 -78.76857,-14.9356 -124.21273,-24.13706 -126.61382,-25.63657 -1.67746,-1.04759 -8.48401,0.6162 -28.13284,6.87678 -14.256,4.5423 -28.91999,9.18918 -32.58666,10.32642 -3.66667,1.13723 -7.16114,2.51841 -7.76549,3.06929 -1.2055,1.09883 7.10766,3.20757 36.43216,9.24147 10.63333,2.18794 39.43333,8.25437 63.99999,13.48095 39.07936,8.31417 110.56782,22.96622 218.98679,44.88285 17.4094,3.51927 31.65939,6.84867 31.66669,7.39867 0.024,1.80527 -4.5473,1.0786 -36.11562,-5.74135 -17.16249,-3.70774 -61.20453,-12.75096 -97.8712,-20.09604 -36.66666,-7.34508 -74.76592,-15.14565 -84.66502,-17.33462 -18.87147,-4.173 -95.53052,-20.17802 -120.6683,-25.19335 -8.06667,-1.60941 -14.98424,-3.43175 -15.37239,-4.04963 -0.55778,-0.88792 -23.42667,5.29677 -33.29427,9.00415 -2.5613,0.96231 11.74411,4.73573 34.66666,9.14423 9.9,1.90398 32.7,6.76014 50.66666,10.79145 17.96667,4.03132 45.56667,9.94009 61.33333,13.1306 34.61921,7.00547 66.77003,14.00459 117.33333,25.54306 20.9,4.76934 48.71174,10.98751 61.80386,13.81816 13.09213,2.83064 24.14213,5.48488 24.55556,5.89831 1.85546,1.85547 -1.43731,2.3243 -6.65452,0.94748 -6.82233,-1.80042 -88.92958,-20.52688 -123.7049,-28.21378 -13.56666,-2.99883 -43.26666,-9.29386 -65.99999,-13.98895 -22.73333,-4.69509 -54.58983,-11.52131 -70.79221,-15.16938 -16.20239,-3.64806 -40.71071,-8.80397 -54.46295,-11.45758 -13.75223,-2.6536 -27.23165,-5.71604 -29.95425,-6.80541 -4.74461,-1.89842 -5.52831,-1.77973 -18.87039,2.85771 -7.6561,2.66111 -14.7626,5.30618 -15.79221,5.87792 -1.65236,0.91756 15.94957,5.72709 31.87202,8.70867 2.56666,0.48062 14.86666,3.27188 27.33333,6.2028 12.46666,2.93091 54.76666,12.48047 93.99999,21.22124 114.28654,25.46183 198.82874,45.60889 197.39651,47.04113 -0.81178,0.81177 -6.0238,0.0148 -14.33601,-2.19224 -16.38043,-4.34921 -87.73544,-21.11271 -131.72717,-30.94678 -76.45484,-17.091 -123.84328,-27.77115 -142.66666,-32.15347 -10.99999,-2.56094 -29.86178,-6.71903 -41.91507,-9.2402 -12.05329,-2.52118 -22.32846,-5.25283 -22.83371,-6.07033 -1.16438,-1.88401 -4.18168,-1.00822 -63.25121,18.35899 -25.66666,8.41536 -49.55553,16.21827 -53.08637,17.33978 -3.53084,1.12152 -6.23084,2.21994 -6,2.44093 0.23084,0.221 10.31971,2.83272 22.41971,5.80383 12.1,2.9711 47.8,11.73282 79.33333,19.47049 31.53333,7.73766 87.63332,21.52055 124.66666,30.62865 87.01045,21.39963 127.4233,31.09954 133.75227,32.10327 3.11364,0.4938 4.86953,1.42315 4.52834,2.39673 -0.70661,2.01632 3.41732,2.88803 -58.94729,-12.46024 -171.97225,-42.32332 -279.01476,-68.53326 -291.05516,-71.26643 -7.54701,-1.71318 -14.57556,-3.82339 -15.61899,-4.68937 -1.50462,-1.24872 -11.63151,1.60188 -48.94482,13.77742 -25.87622,8.44354 -54.09767,17.55487 -62.71433,20.24738 -8.61667,2.69252 -15.66667,5.36984 -15.66667,5.94962 0,1.33032 -3.59237,0.32855 60,16.73161 113.72772,29.33501 172.44098,44.56079 202.66665,52.55641 56.5817,14.96761 95.17395,25.03254 104.99999,27.3842 5.31667,1.27243 9.66667,2.91698 9.66667,3.65455 0,0.73757 -1.65,1.05811 -3.66667,0.7123 -3.66809,-0.62897 -80.42126,-20.82047 -135.66665,-35.6899 -16.13334,-4.34232 -47.33333,-12.44854 -69.33333,-18.01382 -22,-5.56527 -47.5,-12.1491 -56.66667,-14.63072 -9.16666,-2.48161 -37.06666,-9.67476 -61.99999,-15.98476 -48.16194,-12.18857 -53.05345,-13.6502 -51.90436,-15.50946 1.21269,-1.96218 -0.75428,-1.46442 -24.8692,6.29336 -12.77454,4.10958 -33.85031,10.83571 -46.83503,14.94696 -12.98473,4.11125 -23.47969,7.60391 -23.32212,7.76147 0.15756,0.15757 17.38143,4.87335 38.27526,10.47952 20.89383,5.60618 54.48878,14.90184 74.65545,20.65703 47.33759,13.50926 110.3837,30.77636 153.33332,41.995 51.7914,13.52816 116.51615,31.55127 117.91111,32.83327 2.72186,2.50146 -0.63806,2.50074 -8.07799,-0.002 -10.63954,-3.57867 -47.46054,-13.73357 -97.16645,-26.79762 -53.79385,-14.13846 -86.25591,-23.01911 -163.33332,-44.6831 -34.83334,-9.79054 -74.43333,-20.61398 -88,-24.05209 -13.56666,-3.43811 -25.90874,-7.02513 -27.42684,-7.97116 -2.37267,-1.47856 -4.61894,-1.08121 -16,2.83031 -18.87532,6.4872 -24.79956,8.74822 -24.28084,9.26694 1.09517,1.09517 133.43384,38.19314 197.04101,55.23571 11.36666,3.04553 47.36666,12.9741 79.99999,22.06349 88.99194,24.78702 112.32754,31.0592 116.01974,31.18402 1.84419,0.0623 5.63016,-1.10709 8.41325,-2.59874 z m 62.90033,-32.89491 c -1.46666,-0.34706 -14.66666,-3.91683 -29.33333,-7.93283 -14.66666,-4.01601 -43.46666,-11.7144 -63.99999,-17.10755 -56.19749,-14.76045 -167.56433,-44.35419 -237.9986,-63.24387 -22.3659,-5.99828 -41.2259,-11.46659 -41.91111,-12.1518 -1.9174,-1.9174 0.048,-2.99915 2.79553,-1.53868 1.34614,0.71554 17.44753,5.31795 35.78086,10.22759 90.2188,24.16044 160.60439,42.90033 205.33332,54.66919 27.13333,7.13919 61.33333,16.22686 75.99999,20.19481 14.66667,3.96796 34.31667,9.097 43.66667,11.39787 9.35,2.30087 17,4.6879 17,5.3045 0,1.17551 -2.83422,1.24537 -7.33334,0.18077 z m 81.7382,-35.76591 c -0.736,-0.73599 -27.57721,-7.72238 -128.40486,-33.42197 -33,-8.41125 -66.6,-17.05896 -74.66666,-19.21713 -8.06667,-2.15818 -46.46667,-11.7305 -85.33333,-21.27182 -38.86666,-9.54132 -72.0505,-17.95828 -73.74185,-18.70435 -5.17457,-2.28255 -2.00572,-4.14803 3.46626,-2.04056 2.71824,1.0469 59.84226,15.69128 126.94225,32.54306 67.1,16.85178 143.89999,36.3325 170.66666,43.29048 26.76666,6.95798 51.06666,13.04888 54,13.53532 7.95354,1.31895 14,3.37617 14,4.76329 0,1.29792 -5.72176,1.73039 -6.92847,0.52368 z M 716.07301,403.19019 C 689.30635,396.38285 644.90635,385.37568 617.40635,378.7298 393.23681,324.55513 404.07303,327.28273 404.07303,325.03151 c 0,-0.79837 1.05,-1.11876 2.33333,-0.71196 11.1669,3.53972 51.58416,13.5348 184.33333,45.58515 99.40257,23.99929 178.09131,43.65381 179.26665,44.77641 2.63709,2.51874 -6.50909,0.57008 -53.93333,-11.49092 z M 840.73967,383.2435 c -9.55725,-2.49222 -94.44676,-22.94449 -140.66666,-33.89054 -21.63333,-5.12332 -73.83332,-17.71683 -115.99999,-27.98558 -42.16666,-10.26874 -79.80571,-19.07764 -83.64232,-19.57532 -3.83661,-0.49768 -8.03661,-1.70995 -9.33333,-2.69393 -2.1443,-1.62713 -2.00423,-1.79289 1.54766,-1.83145 2.14793,-0.0233 5.74793,0.5413 8,1.25472 2.25206,0.71342 19.09466,4.88606 37.42799,9.27252 18.33334,4.38646 57.03333,13.74435 86,20.79529 107.46745,26.1593 210.32664,50.51232 220.67567,52.24735 3.54425,0.5942 6.69214,1.82451 6.99531,2.73403 0.67916,2.03747 -2.27319,1.94972 -11.00433,-0.32709 z m -26,-31.33072 c -38.49999,-9.35748 -87.09999,-20.96467 -107.99999,-25.79376 -20.9,-4.82909 -57.5,-13.33969 -81.33333,-18.91246 -56.15081,-13.12932 -76.47228,-17.78487 -84.64332,-19.39137 -7.47832,-1.47031 -12.92034,-5.25758 -7.55473,-5.25758 1.67202,0 4.05059,0.53423 5.28571,1.18719 1.23513,0.65296 22.04568,5.82041 46.24568,11.48321 24.2,5.66281 56.59999,13.26258 71.99999,16.88838 15.4,3.62579 47.2,11.03112 70.66667,16.45628 23.46666,5.42516 63.96666,15.03353 89.99999,21.35194 26.03333,6.31841 52.43333,12.52317 58.66666,13.78836 6.23334,1.2652 11.22834,2.85782 11.1,3.53916 -0.12833,0.68134 -0.72833,1.33678 -1.33333,1.45653 -0.605,0.11974 -32.6,-7.4384 -71.1,-16.79588 z M 898.073,281.14707 c -68.19999,-13.76776 -137.19999,-27.50606 -153.33332,-30.52956 -16.13333,-3.02351 -37.03999,-6.94743 -46.45923,-8.71982 -14.7521,-2.77586 -22.1062,-5.2191 -20.51099,-6.81431 0.23516,-0.23515 3.69966,0.44029 7.69889,1.50099 3.99923,1.0607 15.67133,3.45947 25.938,5.3306 21.74487,3.96305 306.87135,60.4328 310.33335,61.462 2.2183,0.65947 3.4348,3.38897 1.3333,2.9915 -0.55,-0.10402 -56.8,-11.45365 -125,-25.2214 z m 213.3333,-28.09859 c -23.6376,-4.72066 -53.3544,-10.27208 -142.66664,-26.65167 -43.79559,-8.03198 -152.23464,-26.5495 -161.02779,-27.4978 -8.47564,-0.91406 -10.02907,-3.95228 -1.63886,-3.20532 4.47706,0.39859 156.82788,27.30689 207.99999,36.7371 128.9385,23.76132 126.9546,23.36106 123.919,25.00063 -0.6888,0.372 -12.6523,-1.60032 -26.5857,-4.38294 z m 72,-16.56247 c -0.7333,-0.29026 -43.3333,-8.01395 -94.6666,-17.16376 -152.86641,-27.24738 -190.77177,-33.72455 -215.33336,-36.79558 -11.53895,-1.44276 -20.34926,-3.81635 -14.5819,-3.92851 8.56831,-0.16664 62.23723,8.58178 163.24856,26.61068 34.8929,6.22782 140.4819,24.94162 163.1319,28.91226 3.1501,0.55223 3.9355,1.11846 2.6667,1.92256 -1.9232,1.21873 -2.3875,1.26473 -4.4653,0.44235 z M 323.51685,483.03136 c -0.3814,-0.9939 -1.93256,-1.8071 -3.44702,-1.8071 -2.52064,0 -2.73367,0.72306 -2.51841,8.54774 0.2003,7.28037 0.65178,8.73454 3.04506,9.8076 2.66512,1.19494 2.8306,0.84764 3.21185,-6.74064 0.22108,-4.40027 0.0899,-8.81369 -0.29148,-9.8076 z m -81.06044,4.63409 c -0.26057,-8.30944 -0.91723,-12.40239 -2.05004,-12.77778 -1.25001,-0.41423 -1.66666,2.41981 -1.66666,11.33659 0,6.53889 0.4,12.28889 0.88889,12.77778 2.501,2.501 3.17678,-0.20817 2.82781,-11.33659 z m 142.94996,3.78345 c 0,-2.59209 -0.9971,-3.33687 -6,-4.4817 -5.80475,-1.32831 -6,-1.27054 -6,1.77537 0,2.22756 0.7569,3.14836 2.58797,3.14836 1.42339,0 2.9588,0.6 3.41203,1.33333 0.45322,0.73333 1.98863,1.33333 3.41202,1.33333 1.82175,0 2.58798,-0.92039 2.58798,-3.10869 z m 7.09954,2.23137 c 1.00937,-1.00937 -1.51434,-4.45601 -3.2628,-4.45601 -0.64354,0 -1.17008,1.2 -1.17008,2.66667 0,2.56221 2.60749,3.61473 4.43288,1.78934 z m -260.43286,-2.68723 c 0.36666,-0.36098 0.66666,-4.641 0.66666,-9.51116 v -8.85484 l -6.66667,-3.21368 c -6.83594,-3.29528 -26.621286,-6.59262 -30.538546,-5.08943 -1.72728,0.66282 -2.12812,3.04429 -2.12812,12.64363 v 11.82699 l 11.666666,1.68697 c 6.41667,0.92783 12.26667,1.8375 13,2.02149 1.92667,0.48338 13.21155,-0.73375 14.00001,-1.50997 z m 193.33332,-15.70836 c 0,-2.67306 -0.83945,-3.4304 -4.58015,-4.13216 -8.06807,-1.51358 -10.66197,3.3126 -3.08652,5.74274 6.65722,2.13558 7.66667,1.92352 7.66667,-1.61058 z m 6,0.60625 c 0,-0.97778 -0.75,-2.02778 -1.66667,-2.33334 -0.99145,-0.33048 -1.66666,0.61482 -1.66666,2.33334 0,1.71852 0.67521,2.66381 1.66666,2.33333 0.91667,-0.30555 1.66667,-1.35555 1.66667,-2.33333 z m -97.16418,-11.54662 c -0.43351,-6.45674 -1.20196,-9.21895 -2.81602,-10.12222 -3.29351,-1.84314 -3.97927,-0.3414 -4.00054,8.76069 -0.0197,8.42756 0.8453,10.1852 5.0301,10.22106 2.11062,0.0181 2.3146,-0.9935 1.78646,-8.85953 z m -120.0265,-5.2291 c -0.44512,-1.15998 -0.80932,-4.39578 -0.80932,-7.19068 0,-3.48375 -0.68889,-5.34598 -2.19083,-5.92233 -2.8038,-1.07592 -2.64624,-1.41327 -3.52876,7.5554 l -0.7544,7.66666 h 4.04631 c 3.14192,0 3.86543,-0.47139 3.237,-2.10905 z m -12.80932,-7.22428 c 0,-4.4 -0.45,-8.00819 -1,-8.01821 -0.549996,-0.01 -2.349996,-0.37999 -3.999996,-0.82217 -2.88984,-0.77445 -3,-0.48004 -3,8.0182 v 8.82218 h 4 3.999996 z m 132.45828,-4.27511 c 0.95513,-3.65241 1.2427,-3.42138 -5.62586,-4.51971 -5.46835,-0.87442 -5.71324,-0.77163 -5.28328,2.21762 0.28796,2.00199 1.65525,3.46759 3.7842,4.0563 5.4991,1.52064 6.3215,1.31816 7.12494,-1.75421 z m 7.54172,1.10504 c 0,-0.27688 -0.9,-1.25035 -2,-2.16326 -1.63801,-1.35943 -2,-1.26832 -2,0.5034 0,1.1898 0.9,2.16326 2,2.16326 1.1,0 2,-0.22653 2,-0.5034 z m -112.50705,-22.89418 0.1596,-17.39757 -13.69659,-3.60242 c -7.53312,-1.98134 -16.772346,-3.60242 -20.531626,-3.60242 h -6.83506 l 0.37203,17.52979 0.37204,17.5298 14.666656,3.71112 c 8.06667,2.04112 17.06667,3.60271 20,3.47021 l 5.33334,-0.24093 z m -23.15074,8.01874 c -4.69814,-1.97542 -6.167276,-6.44076 -5.43369,-16.51538 0.57831,-7.94214 2.94215,-9.18131 10.84536,-5.68535 l 6.24612,2.76296 v 8.57838 c 0,5.28602 -0.63966,9.07333 -1.66666,9.86799 -3.20063,2.47655 -5.83687,2.73814 -9.99113,0.9914 z m 8.22922,-2.71639 c 1.15238,-1.15239 2.05463,-3.10239 2.005,-4.33334 -0.0678,-1.68068 -0.45059,-1.49092 -1.53709,0.76191 -1.66026,3.44252 -6.54196,4.00915 -9.00208,1.04489 -0.98484,-1.18666 -1.44206,-4.83048 -1.16326,-9.27073 0.25264,-4.0236 -0.0232,-6.83125 -0.613,-6.23923 -0.58979,0.59203 -0.88979,4.59902 -0.66667,8.90443 0.35292,6.81009 0.83913,8.04649 3.73901,9.50801 4.28227,2.15824 4.727,2.13514 7.23809,-0.37594 z m 22.07166,3.0484 c 2.18634,-0.57174 2.55402,-2.26327 2.92858,-13.47315 0.43808,-13.11071 0.12568,-13.89263 -4.79594,-12.00403 -1.76203,0.67615 -2.0836,3.25396 -1.95438,15.66667 0.0851,8.17154 0.4172,13.86892 0.73808,12.66084 0.32087,-1.20807 1.70852,-2.49072 3.08366,-2.85033 z m 25.08173,-38.2865 c 6.72287,0 0.86435,-2.72875 -13.47811,-6.27777 l -14.18578,-3.51024 -14.02769,4.56067 c -7.71522,2.50837 -14.02893,4.94495 -14.03046,5.41461 -0.002,0.46966 4.94722,2.14488 10.99722,3.7227 6.05,1.57782 12.12771,3.32199 13.50604,3.87594 1.6032,0.64433 7.0521,-0.57673 15.12481,-3.38937 6.94033,-2.41809 14.18262,-4.39654 16.09397,-4.39654 z m 1110.39421,-145.52335 5.8809,-2.60142 v -15.27094 c 0,-8.39902 -0.45,-15.27102 -1,-15.27111 -0.55,-9e-5 -4.75,1.63342 -9.3333,3.63003 l -8.3333,3.6302 0.018,12.03663 c 0.01,6.62015 0.3844,13.40346 0.8319,15.07403 0.8997,3.35828 1.7715,3.26863 11.9356,-1.22742 z m -7.8969,-6.03219 c -0.4888,-0.48889 -0.8888,-4.04604 -0.8888,-7.90477 0,-7.92092 2.2248,-11.20634 7.5888,-11.20634 3.3372,0 3.3877,0.14713 2.8067,8.17917 -0.4322,5.97505 -1.2627,8.66984 -3.0818,9.99999 -2.7142,1.98474 -5.0354,2.32142 -6.4249,0.93195 z m 6.2708,-6.11112 c 1.2408,-4.6301 0.9857,-10.33333 -0.4622,-10.33333 -2.5601,0 -5.5074,6.29805 -4.6137,9.85882 1.071,4.2672 3.9864,4.53975 5.0759,0.47451 z m -7.512,-20.66666 c 3.1216,-1.28333 5.6779,-2.65459 5.6807,-3.04723 0,-0.39264 -4.945,-1.37716 -10.995,-2.18782 -9.1983,-1.2325 -11.828,-1.14283 -16.0553,0.54747 -2.7804,1.11176 -4.689,2.39628 -4.2413,2.85449 0.9119,0.93318 13.1849,3.78567 17.2826,4.0168 1.4589,0.0823 5.2067,-0.90038 8.3283,-2.18371 z M 895.75397,159.89027 c 3.85787,-1.46629 8.30787,-2.66599 9.88889,-2.66599 6.54815,0 0.84287,-1.24009 -12.25275,-2.66323 -12.7359,-1.38405 -14.63818,-1.29056 -21.31711,1.04766 l -7.33333,2.56731 10,1.59613 c 10.06435,1.6064 14,2.34578 14,2.63012 0,0.0847 3.15644,-1.0457 7.0143,-2.512 z"
      id="path1"
    />
  </g>
</svg>
