<?xml version="1.0" encoding="UTF-8" standalone="no"?><svg width="485" height="345" viewBox="0 0 485 345" fill="none" xmlns="http://www.w3.org/2000/svg">
<path d="M308.433 72.3186L472.01 166.76C479.184 170.902 479.184 177.618 472.01 181.76L203.522 336.771C196.348 340.913 184.716 340.913 177.541 336.771L13.9643 242.33C6.78994 238.188 6.78994 231.472 13.9643 227.33L282.452 72.3186C289.626 68.1765 301.258 68.1765 308.433 72.3186Z" fill="white" fill-opacity="0.2"/>
<path d="M278.987 212.273C278.701 204.549 273.433 196.874 263.184 190.98C242.095 178.852 207.904 178.852 186.816 190.98C176.528 196.896 171.259 204.606 171.009 212.359M278.987 212.273C279.29 220.441 274.022 228.665 263.184 234.898C242.095 247.026 207.904 247.026 186.816 234.898C176.015 228.687 170.746 220.499 171.009 212.359M278.987 212.273V129.495C278.987 137.446 273.719 145.395 263.182 151.455C242.108 163.575 207.888 163.575 186.815 151.455C176.278 145.395 171.009 137.446 171.009 129.495V212.359M278.987 212.273V212.634M171.009 212.359V212.634" stroke="white" stroke-width="2"/>
<path d="M233.008 210.876V221.417L248.282 230.2V219.66L233.008 210.876Z" stroke="white" stroke-width="2"/>
<path d="M202.145 192.431V202.971L217.136 211.592V201.052L202.145 192.431Z" stroke="white" stroke-width="2"/>
<path d="M217.136 206.484V208.241L233.009 217.369V215.613L217.136 206.484Z" stroke="white" stroke-width="2"/>
<path d="M217.136 210.876V221.417L201.863 230.2V219.66L217.136 210.876Z" stroke="white" stroke-width="2"/>
<path d="M248 192.431V202.971L233.009 211.592V201.052L248 192.431Z" stroke="white" stroke-width="2"/>
<path d="M233.008 206.484V208.241L217.136 217.369V215.613L233.008 206.484Z" stroke="white" stroke-width="2"/>
<path d="M223.562 212.205C224.248 212.776 225.359 212.776 226.044 212.205C226.339 211.96 226.554 211.649 226.554 211.014V160.81H223.027V211.014L223.058 211.328C223.099 211.648 223.267 211.96 223.562 212.205Z" stroke="white" stroke-width="2"/>
<path d="M199.006 185.716C194.633 184.334 190.522 182.577 186.816 180.446C176.764 174.665 171.504 167.172 171.034 159.6V211.829C171.505 204.257 176.765 196.766 186.816 190.986C190.522 188.855 194.633 187.098 199.006 185.716Z" fill="#A2BECA" fill-opacity="0.5"/>
<path d="M278.965 158.486C278.965 166.434 273.728 174.382 263.184 180.446C259.478 182.577 255.367 184.334 250.994 185.716C255.367 187.098 259.478 188.855 263.184 190.986C273.234 196.766 278.494 204.258 278.965 211.829V158.486Z" fill="#A2BECA" fill-opacity="0.5"/>
<path d="M186.816 234.904C207.904 247.032 242.095 247.032 263.184 234.904C273.234 229.124 278.494 221.633 278.965 214.061V211.829C278.494 204.258 273.234 196.766 263.184 190.986C259.478 188.855 255.367 187.098 250.994 185.716C234.856 190.817 215.144 190.817 199.006 185.716C194.633 187.098 190.522 188.855 186.816 190.986C176.765 196.766 171.505 204.257 171.034 211.829V214.061C171.505 221.633 176.765 229.124 186.816 234.904Z" fill="#A2BECA" fill-opacity="0.5"/>
<path d="M263.184 136.527C242.095 124.4 207.904 124.4 186.816 136.527C176.764 142.308 171.504 149.8 171.034 157.373V159.6C171.504 167.172 176.764 174.665 186.816 180.446C190.522 182.577 194.633 184.334 199.006 185.716C215.144 190.817 234.856 190.817 250.994 185.716C255.367 184.334 259.478 182.577 263.184 180.446C273.728 174.382 278.965 166.434 278.965 158.486C278.964 150.539 273.728 142.591 263.184 136.527Z" fill="#A2BECA" fill-opacity="0.5"/>
<path d="M263.183 136.527C242.095 124.4 207.904 124.4 186.816 136.527C176.764 142.308 171.504 149.8 171.034 157.373V159.6C171.504 167.172 176.764 174.665 186.816 180.446C190.522 182.577 194.632 184.334 199.005 185.716C215.144 190.817 234.856 190.817 250.994 185.716C255.367 184.334 259.478 182.577 263.184 180.446C273.728 174.382 278.964 166.434 278.964 158.486C278.964 150.539 273.727 142.591 263.183 136.527Z" fill="white" fill-opacity="0.2"/>
<path d="M188.574 239.072V235.682V189.91V152.384L191.066 150.619V237.561L188.574 239.072Z" stroke="white" stroke-width="2" stroke-linejoin="bevel"/>
<path d="M186.816 151.418C185.249 150.518 183.798 149.577 182.464 148.6V193.693V231.899V234.908C182.464 235.147 182.578 235.372 182.772 235.512C184.021 236.409 185.369 237.275 186.816 238.106C187.392 238.437 187.978 238.759 188.574 239.072V235.682V189.91V152.383C187.978 152.071 187.392 151.749 186.816 151.418Z" stroke="white" stroke-width="2" stroke-linejoin="bevel"/>
<path d="M261.202 239.072V235.682V189.91V152.384L258.71 150.619V237.561L261.202 239.072Z" stroke="white" stroke-width="2" stroke-linejoin="bevel"/>
<path d="M262.96 151.418C264.528 150.518 265.978 149.577 267.312 148.6V193.693V231.899V234.908C267.312 235.147 267.198 235.372 267.004 235.512C265.756 236.409 264.408 237.275 262.96 238.106C262.384 238.437 261.798 238.759 261.203 239.072V235.682V189.91V152.383C261.798 152.071 262.384 151.749 262.96 151.418Z" stroke="white" stroke-width="2" stroke-linejoin="bevel"/>
<path d="M171 129.495C171 137.446 176.268 145.395 186.806 151.455C207.879 163.575 242.099 163.575 263.172 151.455C273.71 145.395 278.978 137.446 278.978 129.495C278.978 121.546 273.711 113.595 263.174 107.535C242.1 95.416 207.881 95.4159 186.807 107.535C176.27 113.595 171 121.546 171 129.495Z" stroke="white" stroke-width="2"/>
<path d="M204.464 144.964C205.67 144.265 206.272 143.348 206.272 142.432C206.272 141.515 205.67 140.599 204.464 139.899C202.054 138.5 198.145 138.5 195.735 139.899C194.529 140.599 193.927 141.515 193.927 142.432C193.927 143.348 194.53 144.265 195.735 144.964C198.145 146.363 202.054 146.363 204.464 144.964Z" stroke="white" stroke-width="2"/>
<path d="M195.735 144.964C198.145 146.363 202.054 146.363 204.464 144.964C205.67 144.265 206.272 143.348 206.272 142.432V145.809C206.272 146.725 205.67 147.642 204.464 148.341C202.054 149.74 198.145 149.74 195.735 148.341C194.53 147.642 193.927 146.725 193.927 145.809V142.432C193.927 143.348 194.53 144.265 195.735 144.964Z" stroke="white" stroke-width="2"/>
<path d="M232.792 134.25C235.002 132.968 236.107 131.287 236.107 129.607C236.107 127.926 235.002 126.246 232.792 124.963C228.373 122.399 221.207 122.399 216.788 124.963C214.578 126.246 213.473 127.926 213.473 129.607C213.473 131.287 214.578 132.968 216.788 134.25C221.207 136.814 228.373 136.814 232.792 134.25Z" stroke="white" stroke-width="2"/>
<path d="M216.788 134.25C221.207 136.814 228.373 136.814 232.792 134.25C235.002 132.967 236.107 131.287 236.107 129.606V132.284C236.107 133.964 235.002 135.645 232.792 136.927C228.373 139.492 221.207 139.492 216.788 136.927C214.578 135.645 213.473 133.964 213.473 132.284V129.606C213.473 131.287 214.578 132.967 216.788 134.25Z" stroke="white" stroke-width="2"/>
<path d="M256.492 115.1C257.697 114.401 258.299 113.484 258.299 112.568C258.299 111.651 257.697 110.734 256.491 110.035C254.081 108.636 250.173 108.636 247.762 110.035C246.557 110.734 245.954 111.651 245.954 112.568C245.954 113.484 246.557 114.401 247.762 115.1C250.173 116.499 254.081 116.499 256.492 115.1Z" stroke="white" stroke-width="2"/>
<path d="M247.762 115.1C250.173 116.499 254.081 116.499 256.492 115.1C257.697 114.401 258.299 113.484 258.299 112.567V115.944C258.299 116.861 257.697 117.778 256.492 118.477C254.081 119.876 250.173 119.876 247.762 118.477C246.557 117.778 245.954 116.861 245.954 115.944V112.567C245.954 113.484 246.557 114.401 247.762 115.1Z" stroke="white" stroke-width="2"/>
<path d="M278.965 158.174C278.965 162.935 277.074 167.696 273.29 172.052" stroke="white" stroke-width="2"/>
<path d="M278.965 147.634C278.965 152.395 277.073 157.156 273.29 161.512" stroke="white" stroke-width="2"/>
<path d="M278.965 168.714C278.965 173.475 277.074 178.236 273.29 182.592" stroke="white" stroke-width="2"/>
<path d="M278.965 179.255C278.965 184.016 277.074 188.777 273.29 193.133" stroke="white" stroke-width="2"/>
<path d="M278.965 189.795C278.965 194.556 277.074 199.317 273.29 203.673" stroke="white" stroke-width="2"/>
<path d="M278.965 200.336C278.965 205.097 277.074 209.858 273.29 214.214" stroke="white" stroke-width="2"/>
<path d="M223.562 129.593C224.248 129.96 225.359 129.96 226.044 129.593C226.339 129.435 226.554 129.235 226.554 128.825V96.4751H223.027V128.825L223.058 129.028C223.099 129.234 223.267 129.435 223.562 129.593Z" stroke="white" stroke-width="2"/>
<path d="M218.619 85.5407C218.649 86.4242 219.23 87.2945 220.366 87.9599C220.513 88.0456 220.665 88.1259 220.822 88.2007M218.619 85.5407C218.617 85.493 218.617 85.4452 218.619 85.3975L218.619 85.5407ZM218.619 85.5407L218.619 93.1028C218.587 94.0349 219.168 94.9639 220.366 95.6653C221.242 96.178 222.326 96.4976 223.468 96.6253M220.822 95.9061V88.2007M223.468 96.6253C224.338 96.7226 225.242 96.7084 226.113 96.5831M223.468 96.6253V88.9199M226.113 96.5831C227.062 96.4467 227.973 96.1785 228.759 95.7792M226.113 96.5831V88.8778M228.759 95.7792C228.874 95.7208 228.986 95.6596 229.095 95.5956C230.283 94.9002 230.906 94.0021 230.959 93.1028V85.3975C230.906 86.2967 230.283 87.1948 229.095 87.8902C228.986 87.9542 228.874 88.0154 228.759 88.0739M228.759 95.7792V88.0739M220.822 88.2007C221.606 88.5741 222.517 88.8136 223.468 88.9199M223.468 88.9199C224.338 89.0172 225.242 89.003 226.113 88.8778M226.113 88.8778C227.062 88.7413 227.973 88.4731 228.759 88.0739" stroke="white" stroke-width="2"/>
<path d="M218.619 85.5408C218.649 86.4242 219.23 87.2945 220.367 87.9599C222.744 89.3517 226.652 89.3205 229.095 87.8902C230.283 87.1948 230.906 86.2967 230.959 85.3975C231.016 84.4472 230.436 83.4956 229.214 82.7806C226.837 81.3888 222.929 81.42 220.486 82.8503C219.274 83.5597 218.65 84.4801 218.619 85.3975M218.619 85.5408C218.617 85.493 218.617 85.4453 218.619 85.3975M218.619 85.5408L218.619 85.3975" stroke="white" stroke-width="2"/>
<path d="M227.284 83.4939C227.973 83.0943 228.317 82.5705 228.317 82.0467C228.317 81.5229 227.973 80.9991 227.284 80.5995C225.907 79.8002 223.673 79.8002 222.296 80.5995C221.607 80.9991 221.263 81.5229 221.263 82.0467C221.263 82.5705 221.607 83.0943 222.296 83.4939C223.673 84.2932 225.907 84.2932 227.284 83.4939Z" stroke="white" stroke-width="2"/>
<path d="M222.296 83.4941C223.673 84.2934 225.907 84.2934 227.284 83.4941C227.973 83.0945 228.317 82.5707 228.317 82.0469V83.9765C228.317 84.5003 227.973 85.0241 227.284 85.4238C225.907 86.223 223.673 86.223 222.296 85.4237C221.607 85.0241 221.263 84.5003 221.263 83.9765V82.0469C221.263 82.5707 221.607 83.0944 222.296 83.4941Z" stroke="white" stroke-width="2"/>
<path opacity="0.2" d="M242.565 160.946C246.929 160.029 249.617 159.391 253.935 157.948V235C253.935 235.333 253.716 235.626 253.396 235.72L243.526 238.612C243.046 238.752 242.565 238.392 242.565 237.892V160.946Z" fill="white"/>
<path opacity="0.8" d="M122.844 210.033V223.157L104.801 253.873C104.259 254.795 103.974 255.844 103.974 256.912L103.974 262.419C103.974 266.874 106.999 271.329 113.05 274.725C125.15 281.517 144.798 281.517 156.899 274.725C162.949 271.329 165.974 266.874 165.974 262.419V256.776C165.974 255.794 165.733 254.827 165.272 253.96L148.902 223.157V210.033" stroke="white" stroke-width="2"/>
<path d="M146.597 216.084C140.678 219.567 131.068 219.567 125.149 216.084C124.636 215.782 124.167 215.463 123.743 215.131L123.742 210.665H148.003V215.131C147.579 215.463 147.11 215.782 146.597 216.084Z" fill="white" fill-opacity="0.5"/>
<path d="M114.604 272.273C107.602 268.258 104.928 262.703 106.579 257.511C106.918 256.448 107.543 255.492 108.221 254.455C108.459 254.091 108.704 253.717 108.945 253.325C109.872 251.816 115.655 241.45 115.655 241.45C114.604 258.666 156.962 261.659 154.292 241.45C154.292 241.45 160.075 251.816 161.002 253.325C161.243 253.717 161.488 254.091 161.726 254.455C162.404 255.492 163.029 256.448 163.368 257.511C165.02 262.703 162.345 268.258 155.344 272.273C149.83 275.434 142.648 277.057 135.423 277.141V277.144C135.273 277.144 135.123 277.145 134.974 277.144C134.824 277.145 134.674 277.144 134.524 277.144V277.141C127.299 277.057 120.118 275.434 114.604 272.273Z" fill="white" fill-opacity="0.2"/>
<path d="M149.409 252.621C157.302 248.095 157.302 240.758 149.409 236.233C141.516 231.708 128.719 231.708 120.826 236.233C117.013 238.419 115.042 241.262 114.913 244.127C114.776 247.192 116.747 250.282 120.826 252.621C128.719 257.146 141.516 257.146 149.409 252.621Z" fill="white" fill-opacity="0.2"/>
<path d="M105.771 260.688C107.265 263.044 109.692 265.255 113.05 267.14C125.15 273.932 144.799 273.932 156.899 267.14C160.283 265.241 162.72 263.011 164.212 260.634" stroke="#FAFAFB" stroke-width="2"/>
<path d="M120.148 201.296V205.311C120.148 207.596 121.683 209.881 124.752 211.622C130.89 215.105 140.856 215.105 146.994 211.622C150.063 209.881 151.597 207.596 151.597 205.311V201.296M120.148 201.742C120.148 204.027 121.683 206.311 124.752 208.053C130.89 211.536 140.856 211.536 146.994 208.053C150.063 206.311 151.597 204.027 151.597 201.742" stroke="white" stroke-width="2"/>
<path d="M124.752 195.431C121.682 197.173 120.148 199.457 120.148 201.742C120.148 204.027 121.683 206.311 124.752 208.053C130.89 211.536 140.856 211.536 146.994 208.053C150.063 206.311 151.597 204.027 151.597 201.742C151.597 199.457 150.063 197.173 146.994 195.431C140.856 191.948 130.889 191.948 124.752 195.431Z" fill="white" fill-opacity="0.2" stroke="white" stroke-width="2"/>
<path d="M126.438 200.404C126.438 199.033 127.359 197.662 129.2 196.617C131.156 195.507 133.759 194.987 136.322 195.056C138.586 195.116 140.818 195.637 142.545 196.617C144.387 197.662 145.307 199.033 145.307 200.404C145.307 201.774 144.387 203.145 142.546 204.19C140.818 205.17 138.586 205.691 136.322 205.751C133.759 205.82 131.156 205.3 129.2 204.19C127.359 203.145 126.438 201.774 126.438 200.404Z" stroke="white" stroke-width="2"/>
<path opacity="0.8" d="M123.742 225.649C124.377 226.648 125.349 227.584 126.658 228.391C131.744 231.525 140.002 231.525 145.088 228.391C146.396 227.584 147.368 226.648 148.003 225.649" stroke="white" stroke-width="2"/>
<path d="M130.766 237.323C128.923 236.68 127.194 235.925 125.612 235.058C123.933 234.138 122.506 233.139 121.327 232.081M125.416 237.401C125.207 237.293 125.001 237.183 124.797 237.071C123.076 236.128 121.614 235.104 120.406 234.02M124.616 239.421C124.403 239.311 124.191 239.198 123.982 239.083C122.22 238.118 120.722 237.069 119.486 235.959M123.816 241.443C123.597 241.329 123.381 241.214 123.167 241.097C121.363 240.108 119.83 239.034 118.564 237.898M123.016 243.463C122.792 243.347 122.571 243.229 122.352 243.109C120.507 242.098 118.938 240.999 117.643 239.837M127.259 248.064C125.205 247.26 123.263 246.325 121.466 245.259C119.561 244.127 117.916 242.905 116.533 241.618M118.142 260.623C117.876 260.473 117.613 260.321 117.352 260.166C115.151 258.86 113.253 257.449 111.657 255.963M117.57 262.761C117.298 262.608 117.03 262.453 116.764 262.295C114.522 260.964 112.587 259.526 110.961 258.012M116.997 264.9C116.72 264.744 116.447 264.586 116.176 264.425C113.891 263.069 111.921 261.604 110.264 260.061M121.579 247.793C121.343 247.66 121.11 247.525 120.878 247.388C118.93 246.231 117.25 244.983 115.837 243.667M121.006 249.931C120.765 249.796 120.527 249.657 120.291 249.517C118.301 248.335 116.584 247.06 115.14 245.716M120.433 252.069C120.188 251.931 119.944 251.79 119.703 251.648C117.671 250.441 115.918 249.138 114.444 247.766M119.861 254.207C119.61 254.066 119.361 253.923 119.116 253.776C117.041 252.545 115.252 251.215 113.747 249.814M124.958 259.02C122.679 258.128 120.522 257.09 118.527 255.906C116.411 254.65 114.585 253.293 113.05 251.864M118.715 258.484C118.454 258.337 118.196 258.188 117.94 258.036C115.781 256.754 113.92 255.371 112.354 253.913" stroke="white" stroke-width="2"/>
<path opacity="0.6" d="M140.815 230.296C142.654 229.725 144.147 229.331 146.206 227.619L164.177 261.08C160.539 265.034 158.187 266.579 153.394 268.219L140.815 230.296Z" fill="white"/>
<path d="M283.976 50.7829V133.572C283.994 139.695 286.488 145.812 291.305 151.434C294.728 155.428 299.322 159.173 305.034 162.491C315.795 168.746 329.179 172.567 343.155 173.959C365.126 176.145 388.562 172.321 405.59 162.491C414.972 157.074 421.21 150.524 424.301 143.604C425.829 140.184 426.589 136.674 426.58 133.166L426.183 50.3765C426.193 53.8865 425.434 57.3947 423.906 60.8162C420.814 67.7362 414.575 74.2867 405.194 79.7018C388.167 89.5334 365.126 93.5233 343.155 91.3392C329.179 89.9478 315.4 85.9581 304.637 79.704C299.066 76.4667 294.623 72.8244 291.305 68.94C286.435 63.2375 283.993 57.0132 283.976 50.7829Z" stroke="white" stroke-width="2"/>
<path d="M289.67 149.5L289.67 155.573C289.697 165.241 296.059 174.894 308.766 182.27C318.712 188.043 331.084 191.57 344.003 192.855" stroke="white" stroke-width="2"/>
<path d="M344.002 192.856C364.309 194.872 385.971 191.345 401.707 182.27C410.378 177.27 416.143 171.226 419 164.837L419 152" stroke="white" stroke-width="2"/>
<path d="M304.966 104.124C277.105 120.21 276.959 146.287 304.637 162.372C332.313 178.456 377.333 178.456 405.194 162.371C433.051 146.289 433.197 120.21 405.521 104.126C377.843 88.0424 332.823 88.0424 304.966 104.124Z" stroke="white" stroke-width="2"/>
<path d="M400.558 41.1155C375.578 26.7968 335.078 26.7968 310.098 41.1154C298.192 47.9403 291.961 56.7864 291.405 65.727V68.3563V130.021V132.656C291.962 141.596 298.193 150.441 310.098 157.265C335.078 171.584 375.579 171.584 400.558 157.265C412.464 150.441 418.694 141.596 419.251 132.656V130.021V67.0417C419.251 57.6582 413.048 48.2748 400.558 41.1155Z" fill="#A2BECA" fill-opacity="0.6"/>
<path d="M419.251 132.656C418.694 141.596 412.464 150.441 400.558 157.265C375.579 171.584 335.078 171.584 310.098 157.265C298.193 150.441 291.962 141.596 291.405 132.656M419.251 132.656V130.021M419.251 132.656C419.306 131.778 419.306 130.899 419.251 130.021M291.405 132.656V130.021M291.405 132.656C291.35 131.778 291.35 130.899 291.405 130.021M291.405 65.727C291.961 56.7864 298.192 47.9403 310.098 41.1154C335.078 26.7968 375.578 26.7968 400.558 41.1155C413.048 48.2748 419.251 57.6582 419.251 67.0417V130.021M291.405 65.727C291.35 66.6031 291.35 67.4802 291.405 68.3563M291.405 65.727V68.3563M291.405 68.3563V130.021" stroke="white" stroke-width="2"/>
<path d="M400.593 41.0628C375.605 26.8144 335.092 26.8144 310.104 41.0627C298.194 47.8541 291.961 56.6567 291.404 65.5533V68.1697C291.961 77.0664 298.194 85.869 310.104 92.6605C314.496 95.1644 319.366 97.2282 324.548 98.8521C343.67 104.845 367.027 104.845 386.15 98.8522C391.332 97.2284 396.202 95.1645 400.593 92.6605C413.087 85.5364 419.293 76.199 419.292 66.8615C419.292 57.5242 413.087 48.1869 400.593 41.0628Z" fill="white" fill-opacity="0.4"/>
<path d="M304.966 21.4553C277.105 37.541 276.959 63.6179 304.637 79.7035C332.313 95.7873 377.333 95.7873 405.194 79.7016C433.051 63.6198 433.197 37.541 405.521 21.4572C377.843 5.37345 332.823 5.37345 304.966 21.4553Z" stroke="white" stroke-width="2"/>
<path d="M422.5 48V39.5C422.473 30.0033 414.235 20.0411 402.082 12.6708C377.042 -2.51428 335.586 -2.9357 309.488 11.726C296.055 19.2733 288.473 29.9298 288.5 40V48.5" stroke="white" stroke-width="2"/>
<path d="M307.194 75.3244C294.391 67.6184 287.987 57.4814 288.354 47.2145C288.721 36.9601 295.829 26.9815 309.155 19.5507C322.489 12.1152 339.687 8.53095 356.701 8.70305C373.713 8.87514 390.65 12.8042 403.454 20.5102L402.939 21.367L403.454 20.5102C416.258 28.2162 422.662 38.3532 422.294 48.6201C421.928 58.8745 414.819 68.8531 401.494 76.2839C388.16 83.7194 370.962 87.3041 353.948 87.1323C336.935 86.9604 319.999 83.0314 307.194 75.3244ZM307.194 75.3244L307.71 74.4676L307.194 75.3244Z" stroke="white" stroke-width="2"/>
<path d="M364.942 25.3521C370.525 22.2385 370.708 17.1024 365.352 13.8791C359.997 10.6558 351.129 10.5654 345.545 13.679C339.962 16.7906 339.779 21.9287 345.135 25.152C347.95 26.8455 351.733 27.6742 355.5 27.6278M364.942 25.3521C362.293 26.8299 358.903 27.5859 355.5 27.6278M364.942 25.3521L416.5 63.5M355.5 27.6278V86" stroke="white" stroke-width="2"/>
<path d="M366.206 13.1295L366.193 17.95C366.189 19.555 365.135 21.156 363.027 22.3799C358.79 24.8431 351.897 24.8431 347.631 22.378C345.483 21.1387 344.411 19.5126 344.417 17.8885L344.43 13.0679C344.425 14.6921 345.497 16.3201 347.644 17.5575C351.91 20.0226 358.803 20.0226 363.043 17.5594C365.148 16.3355 366.203 14.7344 366.206 13.1295Z" stroke="white" stroke-width="2"/>
<path d="M362.993 8.63778C367.259 11.1029 367.28 15.0959 363.043 17.5591C358.803 20.0223 351.91 20.0223 347.644 17.5572C343.378 15.0959 343.354 11.1029 347.594 8.63971C351.831 6.17654 358.726 6.17653 362.993 8.63778Z" stroke="white" stroke-width="2"/>
</svg>
