<?xml version="1.0" encoding="UTF-8" standalone="no"?><svg width="477" height="378" viewBox="0 0 477 378" fill="none" xmlns="http://www.w3.org/2000/svg">
<g clip-path="url(#clip0_80_15888)">
<path d="M272.798 110.11L463.685 220.319C470.859 224.461 470.859 231.177 463.685 235.319L229.858 370.319C222.683 374.461 211.051 374.461 203.877 370.319L12.9904 260.11C5.816 255.968 5.816 249.253 12.9904 245.11L246.817 110.11C253.992 105.968 265.624 105.968 272.798 110.11Z" fill="white" fill-opacity="0.2"/>
<path d="M256.832 239.466C257.089 232.448 261.82 225.475 271.026 220.12C289.966 209.102 320.675 209.102 339.615 220.12C348.855 225.495 353.587 232.5 353.812 239.544M256.832 239.466C256.56 246.887 261.291 254.358 271.026 260.021C289.966 271.04 320.675 271.04 339.615 260.021C349.316 254.378 354.048 246.939 353.812 239.544M256.832 239.466V164.259C256.832 171.482 261.563 178.704 271.028 184.21C289.955 195.221 320.689 195.221 339.616 184.21C349.08 178.704 353.812 171.482 353.812 164.259V239.544M256.832 239.466V239.794M353.812 239.544V239.794" stroke="white" stroke-width="2"/>
<path d="M298.128 238.197V247.773L284.41 255.754V246.177L298.128 238.197Z" stroke="white" stroke-width="2"/>
<path d="M325.848 221.438V231.015L312.384 238.847V229.271L325.848 221.438Z" stroke="white" stroke-width="2"/>
<path d="M312.383 234.207V235.803L298.127 244.097V242.501L312.383 234.207Z" stroke="white" stroke-width="2"/>
<path d="M312.383 238.197V247.773L326.101 255.754V246.177L312.383 238.197Z" stroke="white" stroke-width="2"/>
<path d="M284.663 221.438V231.015L298.127 238.847V229.271L284.663 221.438Z" stroke="white" stroke-width="2"/>
<path d="M298.128 234.207V235.803L312.384 244.096V242.5L298.128 234.207Z" stroke="white" stroke-width="2"/>
<path d="M306.612 239.404C305.996 239.923 304.998 239.923 304.382 239.404C304.117 239.181 303.925 238.899 303.925 238.322V192.709H307.093V238.322L307.064 238.607C307.028 238.898 306.877 239.181 306.612 239.404Z" stroke="white" stroke-width="2"/>
<path d="M328.667 215.338C332.595 214.082 336.287 212.486 339.615 210.549C348.643 205.298 353.368 198.49 353.789 191.61V239.063C353.367 232.183 348.642 225.377 339.615 220.126C336.287 218.189 332.595 216.593 328.667 215.338Z" fill="#A2BECA" fill-opacity="0.5"/>
<path d="M256.852 190.599C256.852 197.819 261.556 205.04 271.026 210.55C274.354 212.486 278.046 214.082 281.974 215.338C278.046 216.593 274.354 218.189 271.026 220.126C261.999 225.377 257.275 232.183 256.852 239.063V190.599Z" fill="#A2BECA" fill-opacity="0.5"/>
<path d="M339.615 260.027C320.675 271.045 289.966 271.046 271.026 260.027C261.999 254.776 257.275 247.969 256.852 241.09V239.063C257.275 232.183 261.999 225.377 271.026 220.126C274.354 218.189 278.046 216.593 281.974 215.338C296.468 219.972 314.173 219.972 328.667 215.338C332.595 216.593 336.287 218.189 339.615 220.126C348.642 225.377 353.367 232.183 353.789 239.063V241.09C353.367 247.969 348.642 254.776 339.615 260.027Z" fill="#A2BECA" fill-opacity="0.5"/>
<path d="M271.026 170.648C289.966 159.63 320.675 159.63 339.615 170.648C348.643 175.9 353.368 182.707 353.789 189.587V191.61C353.368 198.49 348.643 205.298 339.615 210.549C336.287 212.486 332.595 214.082 328.667 215.338C314.173 219.972 296.468 219.972 281.974 215.338C278.046 214.082 274.354 212.486 271.026 210.55C261.556 205.04 256.852 197.819 256.852 190.599C256.852 183.378 261.556 176.157 271.026 170.648Z" fill="#A2BECA" fill-opacity="0.5"/>
<path d="M271.026 170.648C289.966 159.63 320.675 159.63 339.615 170.648C348.643 175.9 353.368 182.707 353.79 189.587V191.61C353.368 198.49 348.643 205.298 339.615 210.549C336.287 212.486 332.595 214.082 328.667 215.338C314.173 219.972 296.468 219.972 281.974 215.338C278.046 214.082 274.354 212.486 271.026 210.55C261.556 205.04 256.852 197.82 256.852 190.599C256.852 183.378 261.556 176.157 271.026 170.648Z" fill="white" fill-opacity="0.2"/>
<path d="M338.036 263.814V260.734V219.148V185.054L335.798 183.451V262.441L338.036 263.814Z" stroke="white" stroke-width="2" stroke-linejoin="bevel"/>
<path d="M339.615 184.177C341.023 183.359 342.325 182.504 343.524 181.617V222.585V257.297V259.998C343.524 260.236 343.411 260.46 343.219 260.599C342.105 261.407 340.904 262.188 339.615 262.936C339.098 263.237 338.571 263.529 338.036 263.813V260.734V219.148V185.054C338.571 184.77 339.098 184.477 339.615 184.177Z" stroke="white" stroke-width="2" stroke-linejoin="bevel"/>
<path d="M272.804 263.814V260.734V219.148V185.054L275.043 183.451V262.441L272.804 263.814Z" stroke="white" stroke-width="2" stroke-linejoin="bevel"/>
<path d="M271.226 184.177C269.818 183.359 268.515 182.504 267.317 181.617V222.585V257.297V259.998C267.317 260.236 267.429 260.46 267.622 260.599C268.735 261.407 269.936 262.188 271.226 262.936C271.743 263.237 272.269 263.529 272.804 263.813V260.734V219.148V185.054C272.269 184.77 271.743 184.477 271.226 184.177Z" stroke="white" stroke-width="2" stroke-linejoin="bevel"/>
<path d="M353.82 164.259C353.82 171.483 349.089 178.705 339.624 184.211C320.697 195.222 289.963 195.222 271.036 184.211C261.572 178.705 256.84 171.483 256.84 164.259C256.84 157.037 261.57 149.814 271.034 144.308C289.962 133.297 320.696 133.297 339.624 144.308C349.088 149.814 353.82 157.037 353.82 164.259Z" stroke="white" stroke-width="2"/>
<path d="M323.764 178.314C322.682 177.679 322.141 176.846 322.141 176.013C322.141 175.18 322.682 174.347 323.764 173.712C325.93 172.441 329.44 172.441 331.605 173.712C332.687 174.347 333.229 175.18 333.229 176.013C333.229 176.846 332.687 177.679 331.605 178.314C329.44 179.585 325.929 179.585 323.764 178.314Z" stroke="white" stroke-width="2"/>
<path d="M331.605 178.314C329.44 179.584 325.929 179.584 323.764 178.314C322.682 177.678 322.141 176.845 322.141 176.013V179.081C322.141 179.914 322.682 180.746 323.764 181.382C325.929 182.653 329.44 182.653 331.605 181.382C332.687 180.746 333.229 179.914 333.229 179.081V176.013C333.229 176.845 332.687 177.678 331.605 178.314Z" stroke="white" stroke-width="2"/>
<path d="M298.322 168.579C296.338 167.414 295.345 165.887 295.345 164.361C295.345 162.834 296.338 161.307 298.322 160.142C302.292 157.812 308.727 157.812 312.696 160.142C314.681 161.307 315.673 162.834 315.673 164.361C315.673 165.887 314.681 167.414 312.696 168.579C308.727 170.909 302.292 170.909 298.322 168.579Z" stroke="white" stroke-width="2"/>
<path d="M312.696 168.579C308.727 170.909 302.292 170.909 298.322 168.579C296.338 167.414 295.345 165.887 295.345 164.36V166.793C295.345 168.32 296.338 169.847 298.322 171.011C302.292 173.341 308.727 173.341 312.696 171.011C314.681 169.847 315.673 168.32 315.673 166.793V164.36C315.673 165.887 314.681 167.414 312.696 168.579Z" stroke="white" stroke-width="2"/>
<path d="M277.037 151.181C275.954 150.546 275.413 149.713 275.413 148.88C275.413 148.047 275.954 147.215 277.037 146.579C279.202 145.308 282.712 145.308 284.877 146.579C285.96 147.215 286.501 148.047 286.501 148.88C286.501 149.713 285.96 150.546 284.877 151.181C282.712 152.452 279.202 152.452 277.037 151.181Z" stroke="white" stroke-width="2"/>
<path d="M284.877 151.181C282.712 152.452 279.202 152.452 277.037 151.181C275.954 150.545 275.413 149.713 275.413 148.88V151.948C275.413 152.781 275.954 153.614 277.037 154.249C279.202 155.52 282.712 155.52 284.877 154.249C285.96 153.614 286.501 152.781 286.501 151.948V148.88C286.501 149.713 285.96 150.545 284.877 151.181Z" stroke="white" stroke-width="2"/>
<path d="M256.851 190.315C256.851 194.64 258.55 198.966 261.949 202.923" stroke="white" stroke-width="2"/>
<path d="M256.852 180.739C256.852 185.064 258.551 189.39 261.949 193.347" stroke="white" stroke-width="2"/>
<path d="M256.851 199.891C256.851 204.217 258.55 208.542 261.949 212.5" stroke="white" stroke-width="2"/>
<path d="M256.851 209.467C256.851 213.793 258.55 218.118 261.949 222.076" stroke="white" stroke-width="2"/>
<path d="M256.851 219.044C256.851 223.369 258.55 227.695 261.949 231.652" stroke="white" stroke-width="2"/>
<path d="M256.851 228.621C256.851 232.946 258.55 237.271 261.949 241.229" stroke="white" stroke-width="2"/>
<path d="M306.612 164.348C305.996 164.682 304.998 164.682 304.382 164.348C304.117 164.204 303.925 164.022 303.925 163.65V134.259H307.093V163.65L307.064 163.834C307.028 164.022 306.877 164.204 306.612 164.348Z" stroke="white" stroke-width="2"/>
<path d="M311.051 124.325C311.025 125.127 310.503 125.918 309.482 126.522C309.35 126.6 309.214 126.673 309.072 126.741M311.051 124.325C311.053 124.281 311.053 124.238 311.051 124.194L311.051 124.325ZM311.051 124.325L311.051 131.195C311.079 132.042 310.558 132.886 309.482 133.523C308.695 133.989 307.722 134.279 306.696 134.395M309.072 133.742V126.741M306.696 134.395C305.915 134.484 305.103 134.471 304.32 134.357M306.696 134.395V127.395M304.32 134.357C303.468 134.233 302.65 133.989 301.944 133.627M304.32 134.357V127.356M301.944 133.627C301.841 133.573 301.74 133.518 301.642 133.46C300.575 132.828 300.016 132.012 299.968 131.195V124.194C300.016 125.011 300.575 125.827 301.642 126.459C301.74 126.517 301.841 126.573 301.944 126.626M301.944 133.627V126.626M309.072 126.741C308.368 127.08 307.55 127.298 306.696 127.395M306.696 127.395C305.915 127.483 305.103 127.47 304.32 127.356M304.32 127.356C303.468 127.232 302.65 126.989 301.944 126.626" stroke="white" stroke-width="2"/>
<path d="M311.051 124.325C311.025 125.128 310.503 125.918 309.482 126.523C307.346 127.787 303.836 127.759 301.642 126.46C300.575 125.828 300.016 125.012 299.968 124.195C299.917 123.332 300.438 122.467 301.535 121.817C303.67 120.553 307.18 120.581 309.375 121.881C310.463 122.525 311.024 123.361 311.051 124.195M311.051 124.325C311.053 124.282 311.053 124.238 311.051 124.195M311.051 124.325L311.051 124.195" stroke="white" stroke-width="2"/>
<path d="M303.269 122.465C302.651 122.102 302.341 121.626 302.341 121.151C302.341 120.675 302.651 120.199 303.269 119.836C304.507 119.109 306.512 119.109 307.75 119.836C308.368 120.199 308.677 120.675 308.677 121.151C308.677 121.626 308.368 122.102 307.75 122.465C306.512 123.192 304.506 123.192 303.269 122.465Z" stroke="white" stroke-width="2"/>
<path d="M307.75 122.465C306.512 123.191 304.506 123.191 303.269 122.465C302.651 122.102 302.341 121.626 302.341 121.15V122.904C302.341 123.379 302.651 123.855 303.269 124.218C304.506 124.945 306.512 124.945 307.75 124.218C308.368 123.855 308.677 123.379 308.677 122.904V121.15C308.677 121.626 308.368 122.102 307.75 122.465Z" stroke="white" stroke-width="2"/>
<path opacity="0.2" d="M289.545 192.833C285.626 192 283.211 191.421 279.332 190.109V260.065C279.332 260.397 279.551 260.69 279.869 260.784L288.582 263.366C289.062 263.508 289.545 263.148 289.545 262.647V192.833Z" fill="white"/>
<path d="M70.4859 137.292L34.0001 158.398L70.4857 179.505L106.972 158.398L70.4859 137.292Z" fill="white" fill-opacity="0.2" stroke="white" stroke-width="2" stroke-linejoin="bevel"/>
<path d="M106.972 158.398L70.4865 179.504V263.931L106.972 242.824V158.398Z" stroke="white" stroke-width="2" stroke-linejoin="bevel"/>
<path d="M102.412 166.314L75.0475 182.144V208.527L102.412 192.697V166.314Z" stroke="white" stroke-width="2"/>
<path d="M77.3267 223.038L85.308 218.421M77.3267 223.038V228.315M77.3267 223.038L75.046 221.719M85.308 218.421V223.697L77.3267 228.315M85.308 218.421L83.0274 217.102L75.046 221.719M77.3267 228.315L75.046 226.995V221.719" stroke="white" stroke-width="2"/>
<path d="M97.851 211.165L105.832 206.548M97.851 211.165V216.442M97.851 211.165L95.5704 209.846M105.832 206.548V211.825L97.851 216.442M105.832 206.548L103.552 205.229L95.5704 209.846M97.851 216.442L95.5704 215.123V209.846" stroke="white" stroke-width="2"/>
<path d="M87.5889 217.102L95.5702 212.485M87.5889 217.102V222.379M87.5889 217.102L85.3082 215.783M95.5702 212.485V217.761L87.5889 222.379M95.5702 212.485L93.2896 211.166L85.3082 215.783M87.5889 222.379L85.3082 221.059V215.783" stroke="white" stroke-width="2"/>
<path d="M70.4859 179.505L34.0001 158.398V242.824L70.4859 263.931V179.505Z" fill="white" fill-opacity="0.2" stroke="white" stroke-width="2" stroke-linejoin="bevel"/>
<path d="M88.7292 224.356L75.047 232.271V242.825L88.7292 234.91V224.356Z" stroke="white" stroke-width="2"/>
<path d="M103.55 228.974L75.046 245.463V256.017L103.55 239.527V228.974Z" stroke="white" stroke-width="2"/>
<path d="M103.552 215.782L91.0099 223.038V233.591L103.552 226.336V215.782Z" stroke="white" stroke-width="2"/>
<path d="M70.4859 244.144L34.0001 223.038V226.995L70.4859 248.102V244.144Z" stroke="white" stroke-width="2"/>
<path d="M70.4859 223.038L34.0001 201.931V205.889L70.4859 226.995V223.038Z" stroke="white" stroke-width="2"/>
<path fill-rule="evenodd" clip-rule="evenodd" d="M89.8275 207.472C89.3161 207.171 89.0001 206.533 89.0001 205.628C89.0001 203.808 90.2777 201.591 91.8508 200.681C92.6375 200.226 93.3501 200.183 93.8662 200.481L96.1623 201.81C91.9723 201.573 90.3863 207.472 92.1083 208.794L89.8275 207.472Z" stroke="white" stroke-width="2"/>
<path d="M94.1308 208.595C95.7051 207.685 96.9813 205.47 96.9813 203.649C96.9813 201.827 95.7051 201.089 94.1308 202C92.5566 202.911 91.2804 205.125 91.2804 206.947C91.2804 208.768 92.5566 209.506 94.1308 208.595Z" stroke="white" stroke-width="2"/>
<path fill-rule="evenodd" clip-rule="evenodd" d="M93.3856 206.867C93.1416 206.724 92.9908 206.419 92.9908 205.987C92.9908 205.119 93.6004 204.061 94.3509 203.627C94.7263 203.41 95.0663 203.39 95.3125 203.532L96.408 204.166C95.3125 203.532 93.3856 206.867 94.6492 207.598L93.3856 206.867Z" fill="#AFB3BF" stroke="white" stroke-width="2"/>
<path d="M95.4392 207.403C96.1903 206.969 96.7992 205.912 96.7992 205.043C96.7992 204.174 96.1903 203.822 95.4392 204.257C94.6881 204.691 94.0792 205.748 94.0792 206.617C94.0792 207.486 94.6881 207.838 95.4392 207.403Z" stroke="white" stroke-width="2"/>
<path fill-rule="evenodd" clip-rule="evenodd" d="M81.8275 212.472C81.3161 212.171 81.0001 211.533 81.0001 210.628C81.0001 208.808 82.2777 206.591 83.8508 205.681C84.6375 205.226 85.3501 205.183 85.8662 205.481L88.1623 206.81C83.9723 206.573 82.3863 212.472 84.1083 213.794L81.8275 212.472Z" stroke="white" stroke-width="2"/>
<path d="M86.1308 213.595C87.7051 212.685 88.9813 210.47 88.9813 208.649C88.9813 206.827 87.7051 206.089 86.1308 207C84.5566 207.911 83.2804 210.125 83.2804 211.947C83.2804 213.768 84.5566 214.506 86.1308 213.595Z" stroke="white" stroke-width="2"/>
<path fill-rule="evenodd" clip-rule="evenodd" d="M85.3856 211.867C85.1416 211.724 84.9908 211.419 84.9908 210.987C84.9908 210.119 85.6004 209.061 86.3509 208.627C86.7263 208.41 87.0663 208.39 87.3125 208.532L88.408 209.166C87.3125 208.532 85.3856 211.867 86.6492 212.598L85.3856 211.867Z" fill="#AFB3BF" stroke="white" stroke-width="2"/>
<path d="M87.4392 212.403C88.1903 211.969 88.7992 210.912 88.7992 210.043C88.7992 209.174 88.1903 208.822 87.4392 209.257C86.6881 209.691 86.0792 210.748 86.0792 211.617C86.0792 212.486 86.6881 212.838 87.4392 212.403Z" stroke="white" stroke-width="2"/>
<path fill-rule="evenodd" clip-rule="evenodd" d="M97.8738 203.472C97.3625 203.171 97.0465 202.533 97.0465 201.628C97.0465 199.808 98.3241 197.591 99.8972 196.681C100.684 196.226 101.396 196.183 101.913 196.481L104.209 197.81C101.913 196.681 97.8738 201.628 99.9733 204.662L97.8738 203.472Z" stroke="white" stroke-width="2"/>
<path d="M102.177 204.595C103.751 203.685 105.028 201.47 105.028 199.649C105.028 197.827 103.751 197.089 102.177 198C100.603 198.911 99.3268 201.125 99.3268 202.947C99.3268 204.768 100.603 205.506 102.177 204.595Z" stroke="white" stroke-width="2"/>
<path fill-rule="evenodd" clip-rule="evenodd" d="M73.8275 217.472C73.3161 217.171 73.0001 216.533 73.0001 215.628C73.0001 213.808 74.2777 211.591 75.8508 210.681C76.6375 210.226 77.3501 210.183 77.8662 210.481L80.1623 211.81C77.8662 210.681 73.8275 215.628 75.9269 218.662L73.8275 217.472Z" stroke="white" stroke-width="2"/>
<path d="M78.1308 218.595C79.7051 217.685 80.9813 215.47 80.9813 213.649C80.9813 211.827 79.7051 211.089 78.1308 212C76.5566 212.911 75.2804 215.125 75.2804 216.947C75.2804 218.768 76.5566 219.506 78.1308 218.595Z" stroke="white" stroke-width="2"/>
<path d="M92.9522 157.07C93.5047 156.749 93.7809 156.328 93.7809 155.908C93.7809 155.487 93.5047 155.067 92.9521 154.746C91.8471 154.104 90.0555 154.104 88.9505 154.746C88.398 155.067 88.1217 155.487 88.1217 155.908C88.1217 156.328 88.398 156.749 88.9505 157.07C90.0555 157.711 91.8471 157.711 92.9522 157.07Z" stroke="white" stroke-width="2"/>
<path d="M88.9505 157.07C90.0555 157.712 91.8471 157.712 92.9522 157.07C93.5047 156.749 93.7809 156.329 93.7809 155.908V157.457C93.7809 157.878 93.5047 158.298 92.9522 158.619C91.8471 159.261 90.0555 159.261 88.9505 158.619C88.398 158.298 88.1217 157.878 88.1217 157.457V155.908C88.1217 156.329 88.398 156.749 88.9505 157.07Z" fill="#D0D2D9" stroke="white" stroke-width="2"/>
<path fill-rule="evenodd" clip-rule="evenodd" d="M57.2188 179.748C57.5901 179.532 57.8195 179.074 57.8195 178.424C57.8195 177.118 56.8919 175.527 55.7499 174.874C55.1787 174.547 54.6614 174.517 54.2868 174.731L52.6198 175.684L55.6946 180.602L57.2188 179.748Z" stroke="white" stroke-width="2"/>
<path d="M54.0953 180.553C52.9524 179.9 52.0259 178.31 52.0259 177.003C52.0259 175.696 52.9524 175.166 54.0953 175.819C55.2382 176.473 56.1647 178.063 56.1647 179.37C56.1647 180.677 55.2382 181.207 54.0953 180.553Z" stroke="white" stroke-width="2"/>
<path fill-rule="evenodd" clip-rule="evenodd" d="M66.2838 185.794C66.655 185.578 66.8844 185.12 66.8844 184.47C66.8844 183.164 65.9569 181.573 64.8149 180.92C64.2437 180.593 63.7264 180.563 63.3517 180.776L61.6848 181.73L64.7596 186.648L66.2838 185.794Z" stroke="white" stroke-width="2"/>
<path d="M63.1597 186.599C62.0168 185.945 61.0903 184.356 61.0903 183.049C61.0903 181.741 62.0168 181.212 63.1597 181.865C64.3026 182.519 65.2291 184.109 65.2291 185.416C65.2291 186.723 64.3026 187.253 63.1597 186.599Z" stroke="white" stroke-width="2"/>
<path d="M68.4736 172.8C69.0261 172.48 69.3024 172.059 69.3024 171.639C69.3024 171.218 69.0262 170.798 68.4736 170.477C67.3686 169.835 65.577 169.835 64.472 170.477C63.9194 170.798 63.6432 171.218 63.6432 171.639C63.6432 172.059 63.9195 172.48 64.472 172.8C65.577 173.442 67.3686 173.442 68.4736 172.8Z" stroke="white" stroke-width="2"/>
<path d="M64.472 172.801C65.577 173.443 67.3686 173.443 68.4736 172.801C69.0261 172.48 69.3024 172.06 69.3024 171.639V173.188C69.3024 173.609 69.0261 174.029 68.4736 174.35C67.3686 174.992 65.577 174.992 64.472 174.35C63.9195 174.029 63.6432 173.609 63.6432 173.188V171.639C63.6432 172.06 63.9195 172.48 64.472 172.801Z" fill="#D0D2D9" stroke="white" stroke-width="2"/>
<path d="M182.832 283.466C183.089 276.449 187.82 269.476 197.026 264.121C215.966 253.103 246.675 253.103 265.615 264.121C274.855 269.496 279.587 276.501 279.812 283.545M182.832 283.466C182.56 290.888 187.291 298.359 197.026 304.022C215.966 315.041 246.675 315.041 265.615 304.022C275.316 298.379 280.048 290.94 279.812 283.545M182.832 283.466V208.26C182.832 215.483 187.563 222.705 197.028 228.211C215.955 239.222 246.689 239.222 265.616 228.211C275.08 222.705 279.812 215.483 279.812 208.26V283.545M182.832 283.466V283.795M279.812 283.545V283.795" stroke="white" stroke-width="2"/>
<path d="M224.128 282.198V291.774L210.41 299.754V290.178L224.128 282.198Z" stroke="white" stroke-width="2"/>
<path d="M251.848 265.439V275.015L238.384 282.848V273.271L251.848 265.439Z" stroke="white" stroke-width="2"/>
<path d="M238.383 278.208V279.804L224.127 288.097V286.501L238.383 278.208Z" stroke="white" stroke-width="2"/>
<path d="M238.383 282.198V291.774L252.101 299.754V290.178L238.383 282.198Z" stroke="white" stroke-width="2"/>
<path d="M210.663 265.439V275.015L224.127 282.848V273.271L210.663 265.439Z" stroke="white" stroke-width="2"/>
<path d="M224.128 278.207V279.803L238.384 288.097V286.501L224.128 278.207Z" stroke="white" stroke-width="2"/>
<path d="M232.612 283.405C231.996 283.923 230.998 283.923 230.382 283.405C230.117 283.182 229.925 282.9 229.925 282.322V236.71H233.093V282.322L233.064 282.608C233.028 282.899 232.877 283.182 232.612 283.405Z" stroke="white" stroke-width="2"/>
<path d="M254.667 259.338C258.595 258.082 262.287 256.486 265.615 254.55C274.643 249.298 279.368 242.491 279.789 235.611V283.063C279.367 276.184 274.642 269.377 265.615 264.126C262.287 262.19 258.595 260.594 254.667 259.338Z" fill="#A2BECA" fill-opacity="0.5"/>
<path d="M182.852 234.599C182.852 241.82 187.556 249.041 197.026 254.55C200.354 256.486 204.046 258.082 207.974 259.338C204.046 260.594 200.354 262.19 197.026 264.126C187.999 269.378 183.275 276.184 182.852 283.063V234.599Z" fill="#A2BECA" fill-opacity="0.5"/>
<path d="M265.615 304.028C246.675 315.046 215.966 315.046 197.026 304.028C187.999 298.776 183.275 291.97 182.852 285.09V283.063C183.275 276.184 187.999 269.378 197.026 264.126C200.354 262.19 204.046 260.594 207.974 259.338C222.468 263.972 240.173 263.972 254.667 259.338C258.595 260.594 262.287 262.19 265.615 264.126C274.642 269.377 279.367 276.184 279.789 283.063V285.09C279.367 291.97 274.642 298.776 265.615 304.028Z" fill="#A2BECA" fill-opacity="0.5"/>
<path d="M197.026 214.649C215.966 203.63 246.675 203.63 265.615 214.649C274.643 219.9 279.368 226.708 279.789 233.588V235.611C279.368 242.491 274.643 249.298 265.615 254.55C262.287 256.486 258.595 258.082 254.667 259.338C240.173 263.972 222.468 263.972 207.974 259.338C204.046 258.082 200.354 256.486 197.026 254.55C187.556 249.041 182.852 241.82 182.852 234.599C182.852 227.379 187.556 220.158 197.026 214.649Z" fill="#A2BECA" fill-opacity="0.5"/>
<path d="M197.026 214.649C215.966 203.63 246.675 203.63 265.615 214.649C274.643 219.9 279.368 226.708 279.79 233.588V235.611C279.368 242.491 274.643 249.298 265.615 254.55C262.287 256.486 258.595 258.082 254.667 259.338C240.173 263.972 222.468 263.972 207.974 259.338C204.046 258.082 200.354 256.486 197.026 254.55C187.556 249.041 182.852 241.82 182.852 234.599C182.852 227.379 187.556 220.158 197.026 214.649Z" fill="white" fill-opacity="0.2"/>
<path d="M264.037 307.814V304.734V263.149V229.055L261.798 227.452V306.441L264.037 307.814Z" stroke="white" stroke-width="2" stroke-linejoin="bevel"/>
<path d="M265.615 228.177C267.023 227.36 268.326 226.505 269.524 225.617V266.586V301.297V303.999C269.524 304.236 269.411 304.46 269.219 304.6C268.106 305.408 266.904 306.188 265.615 306.937C265.098 307.237 264.571 307.53 264.037 307.814V304.734V263.149V229.054C264.571 228.77 265.098 228.478 265.615 228.177Z" stroke="white" stroke-width="2" stroke-linejoin="bevel"/>
<path d="M198.805 307.814V304.734V263.149V229.055L201.043 227.452V306.441L198.805 307.814Z" stroke="white" stroke-width="2" stroke-linejoin="bevel"/>
<path d="M197.226 228.177C195.818 227.36 194.516 226.505 193.317 225.617V266.586V301.297V303.999C193.317 304.236 193.43 304.46 193.622 304.6C194.736 305.408 195.937 306.188 197.226 306.937C197.743 307.237 198.27 307.53 198.805 307.814V304.734V263.149V229.054C198.27 228.77 197.743 228.478 197.226 228.177Z" stroke="white" stroke-width="2" stroke-linejoin="bevel"/>
<path d="M279.82 208.26C279.82 215.483 275.089 222.705 265.624 228.211C246.697 239.222 215.963 239.222 197.036 228.211C187.572 222.705 182.84 215.483 182.84 208.26C182.84 201.037 187.57 193.814 197.034 188.309C215.962 177.298 246.696 177.297 265.624 188.309C275.088 193.814 279.82 201.037 279.82 208.26Z" stroke="white" stroke-width="2"/>
<path d="M249.764 222.314C248.682 221.679 248.141 220.846 248.141 220.013C248.141 219.181 248.682 218.348 249.764 217.712C251.93 216.442 255.44 216.442 257.605 217.712C258.687 218.348 259.229 219.181 259.229 220.013C259.229 220.846 258.687 221.679 257.605 222.314C255.44 223.585 251.929 223.585 249.764 222.314Z" stroke="white" stroke-width="2"/>
<path d="M257.605 222.314C255.44 223.585 251.929 223.585 249.764 222.314C248.682 221.679 248.141 220.846 248.141 220.013V223.081C248.141 223.914 248.682 224.747 249.764 225.382C251.929 226.653 255.44 226.653 257.605 225.382C258.687 224.747 259.229 223.914 259.229 223.081V220.013C259.229 220.846 258.687 221.679 257.605 222.314Z" stroke="white" stroke-width="2"/>
<path d="M224.322 212.579C222.338 211.415 221.345 209.888 221.345 208.361C221.345 206.834 222.338 205.307 224.322 204.142C228.292 201.813 234.727 201.813 238.696 204.142C240.681 205.307 241.673 206.834 241.673 208.361C241.673 209.888 240.681 211.415 238.696 212.579C234.727 214.909 228.292 214.909 224.322 212.579Z" stroke="white" stroke-width="2"/>
<path d="M238.696 212.579C234.727 214.909 228.292 214.909 224.322 212.579C222.338 211.414 221.345 209.888 221.345 208.361V210.793C221.345 212.32 222.338 213.847 224.322 215.012C228.292 217.342 234.727 217.342 238.696 215.012C240.681 213.847 241.673 212.32 241.673 210.793V208.361C241.673 209.888 240.681 211.414 238.696 212.579Z" stroke="white" stroke-width="2"/>
<path d="M203.037 195.182C201.954 194.546 201.413 193.713 201.413 192.881C201.413 192.048 201.954 191.215 203.037 190.58C205.202 189.309 208.712 189.309 210.877 190.58C211.96 191.215 212.501 192.048 212.501 192.881C212.501 193.713 211.96 194.546 210.877 195.182C208.712 196.452 205.202 196.452 203.037 195.182Z" stroke="white" stroke-width="2"/>
<path d="M210.877 195.181C208.712 196.452 205.202 196.452 203.037 195.181C201.954 194.546 201.413 193.713 201.413 192.88V195.948C201.413 196.781 201.954 197.614 203.037 198.249C205.202 199.52 208.712 199.52 210.877 198.249C211.96 197.614 212.501 196.781 212.501 195.948V192.88C212.501 193.713 211.96 194.546 210.877 195.181Z" stroke="white" stroke-width="2"/>
<path d="M182.851 234.315C182.851 238.641 184.55 242.966 187.949 246.924" stroke="white" stroke-width="2"/>
<path d="M182.852 224.739C182.852 229.065 184.551 233.39 187.949 237.348" stroke="white" stroke-width="2"/>
<path d="M182.851 243.892C182.851 248.217 184.55 252.542 187.949 256.5" stroke="white" stroke-width="2"/>
<path d="M182.851 253.468C182.851 257.793 184.55 262.119 187.949 266.076" stroke="white" stroke-width="2"/>
<path d="M182.851 263.044C182.851 267.37 184.55 271.695 187.949 275.653" stroke="white" stroke-width="2"/>
<path d="M182.851 272.621C182.851 276.947 184.55 281.272 187.949 285.23" stroke="white" stroke-width="2"/>
<path d="M232.612 208.349C231.996 208.682 230.998 208.682 230.382 208.349C230.117 208.205 229.925 208.023 229.925 207.651V178.26H233.093V207.651L233.064 207.835C233.028 208.022 232.877 208.205 232.612 208.349Z" stroke="white" stroke-width="2"/>
<path d="M237.051 168.325C237.025 169.128 236.503 169.918 235.482 170.523C235.35 170.601 235.214 170.674 235.072 170.742M237.051 168.325C237.053 168.282 237.053 168.238 237.051 168.195L237.051 168.325ZM237.051 168.325L237.051 175.195C237.079 176.042 236.558 176.886 235.482 177.524C234.695 177.989 233.722 178.28 232.696 178.396M235.072 177.742V170.742M232.696 178.396C231.915 178.484 231.103 178.471 230.32 178.357M232.696 178.396V171.395M230.32 178.357C229.468 178.233 228.65 177.99 227.944 177.627M230.32 178.357V171.357M227.944 177.627C227.841 177.574 227.74 177.518 227.642 177.46C226.575 176.828 226.016 176.012 225.968 175.195V168.195C226.016 169.012 226.575 169.828 227.642 170.46C227.74 170.518 227.841 170.573 227.944 170.626M227.944 177.627V170.626M235.072 170.742C234.368 171.081 233.55 171.299 232.696 171.395M232.696 171.395C231.915 171.484 231.103 171.471 230.32 171.357M230.32 171.357C229.468 171.233 228.65 170.989 227.944 170.626" stroke="white" stroke-width="2"/>
<path d="M237.051 168.326C237.025 169.128 236.503 169.919 235.482 170.523C233.346 171.788 229.836 171.76 227.642 170.46C226.575 169.828 226.016 169.012 225.968 168.195C225.917 167.332 226.438 166.467 227.535 165.818C229.67 164.553 233.18 164.582 235.375 165.881C236.463 166.526 237.024 167.362 237.051 168.195M237.051 168.326C237.053 168.282 237.053 168.239 237.051 168.195M237.051 168.326L237.051 168.195" stroke="white" stroke-width="2"/>
<path d="M229.269 166.466C228.651 166.103 228.341 165.627 228.341 165.151C228.341 164.675 228.651 164.199 229.269 163.836C230.507 163.11 232.512 163.11 233.75 163.836C234.368 164.199 234.677 164.675 234.677 165.151C234.677 165.627 234.368 166.103 233.75 166.466C232.512 167.192 230.506 167.192 229.269 166.466Z" stroke="white" stroke-width="2"/>
<path d="M233.75 166.466C232.512 167.192 230.506 167.192 229.269 166.466C228.651 166.103 228.341 165.627 228.341 165.151V166.904C228.341 167.38 228.651 167.856 229.269 168.219C230.506 168.945 232.512 168.945 233.75 168.219C234.368 167.856 234.677 167.38 234.677 166.904V165.151C234.677 165.627 234.368 166.103 233.75 166.466Z" stroke="white" stroke-width="2"/>
<path opacity="0.2" d="M215.545 236.834C211.626 236.001 209.211 235.421 205.332 234.11V304.065C205.332 304.398 205.551 304.69 205.869 304.784L214.582 307.366C215.062 307.509 215.545 307.149 215.545 306.647V236.834Z" fill="white"/>
<path d="M133.858 254.563C133.865 250.88 133.849 247.278 133.857 244.843C133.857 244.695 133.857 244.551 133.857 244.42C133.857 243.2 134.524 241.981 135.864 240.914C136.716 240.235 137.569 239.556 138.422 238.878L138.422 238.877C139.275 238.199 140.127 237.52 140.98 236.841C145.243 237.874 147.764 237.899 152.432 236.826C154.146 238.206 155.861 239.586 157.575 240.966C158.897 242.03 159.561 243.247 159.562 244.464L159.536 265.785C159.532 267.409 158.344 269.034 155.959 270.294C151.045 272.892 142.908 272.965 137.786 270.457C135.151 269.165 133.826 267.442 133.832 265.718C133.84 263.085 133.849 258.792 133.858 254.567M133.858 254.563L133.858 254.567M133.858 254.563C133.858 254.564 133.858 254.565 133.858 254.567" stroke="white" stroke-width="2"/>
<path d="M146.779 270.63C148.328 270.63 149.834 270.475 151.253 270.17C152.706 269.856 153.995 269.401 155.085 268.815C157.006 267.783 158.066 266.464 158.07 265.104L158.106 250.746C157.289 257.496 137.214 258.76 135.447 250.694C135.465 250.712 135.429 250.677 135.447 250.694L135.411 265.045C135.409 265.729 135.671 266.403 136.19 267.049C136.763 267.762 137.617 268.404 138.729 268.958C140.893 270.037 143.752 270.63 146.779 270.63Z" fill="white" fill-opacity="0.2"/>
<path d="M139.006 257.6C141.164 258.567 143.899 259.097 146.764 259.097C149.924 259.097 152.883 258.461 155.112 257.307V266.491C154.885 266.641 154.64 266.786 154.377 266.925C153.373 267.456 152.185 267.869 150.845 268.152C149.537 268.429 148.15 268.569 146.721 268.569C143.931 268.569 141.295 268.031 139.3 267.054C139.199 267.005 139.101 266.955 139.006 266.903V257.6Z" fill="#FAFAFB" fill-opacity="0.5"/>
<path d="M138.82 254.668C134.402 252.427 134.402 248.794 138.821 246.553C143.239 244.312 150.402 244.312 154.821 246.553C156.955 247.636 158.058 249.043 158.13 250.462C158.207 251.979 157.104 253.51 154.82 254.668C150.402 256.909 143.239 256.909 138.82 254.668Z" fill="white" fill-opacity="0.5"/>
<path d="M139.522 230.96L139.548 233.819C139.55 234.747 140.245 235.673 141.632 236.382C144.425 237.807 148.967 237.807 151.777 236.382C153.192 235.664 153.898 234.723 153.895 233.783L153.869 230.924C153.873 231.864 153.166 232.806 151.751 233.524C148.941 234.948 144.399 234.948 141.607 233.523C140.219 232.814 139.525 231.888 139.522 230.96Z" stroke="white" stroke-width="2"/>
<path d="M141.639 228.36C138.828 229.786 138.814 232.096 141.606 233.523C144.399 234.947 148.941 234.947 151.751 233.523C154.562 232.097 154.577 229.786 151.784 228.36C148.992 226.935 144.45 226.935 141.639 228.36Z" stroke="white" stroke-width="2"/>
<path d="M157.953 244.844C156.243 247.017 151.853 248.563 146.708 248.563C141.563 248.563 137.173 247.017 135.463 244.844" stroke="white" stroke-width="2"/>
<path d="M152.679 238.56C151.778 239.826 149.467 240.727 146.759 240.727C144.05 240.727 141.739 239.826 140.838 238.56" stroke="white" stroke-width="2"/>
<path opacity="0.6" d="M138.053 269.391C138.148 269.443 138.246 269.493 138.348 269.542C139.312 270.015 140.426 270.384 141.634 270.64L141.579 248.18C140.3 247.927 139.108 247.559 138.053 247.086V269.391Z" fill="white"/>
<path d="M109.858 268.563C109.865 264.88 109.849 261.278 109.857 258.843C109.857 258.695 109.857 258.551 109.857 258.42C109.857 257.2 110.524 255.981 111.864 254.914C112.716 254.235 113.569 253.556 114.422 252.878L114.422 252.877C115.275 252.199 116.127 251.52 116.98 250.841C121.243 251.874 123.764 251.899 128.432 250.826C130.146 252.206 131.861 253.586 133.575 254.966C134.897 256.03 135.561 257.247 135.562 258.464L135.536 279.785C135.532 281.409 134.344 283.034 131.959 284.294C127.045 286.892 118.908 286.965 113.786 284.457C111.151 283.165 109.826 281.442 109.832 279.718C109.84 277.085 109.849 272.792 109.858 268.567M109.858 268.563L109.858 268.567M109.858 268.563C109.858 268.564 109.858 268.565 109.858 268.567" stroke="white" stroke-width="2"/>
<path d="M122.779 284.63C124.328 284.63 125.834 284.475 127.253 284.17C128.706 283.856 129.995 283.401 131.085 282.815C133.006 281.783 134.066 280.464 134.07 279.104L134.106 264.746C133.289 271.496 113.214 272.76 111.447 264.694C111.465 264.712 111.429 264.677 111.447 264.694L111.411 279.045C111.409 279.729 111.671 280.403 112.19 281.049C112.763 281.762 113.617 282.404 114.729 282.958C116.893 284.037 119.752 284.63 122.779 284.63Z" fill="white" fill-opacity="0.2"/>
<path d="M115.006 271.6C117.164 272.567 119.899 273.097 122.764 273.097C125.924 273.097 128.883 272.461 131.112 271.307V280.491C130.885 280.641 130.64 280.786 130.377 280.925C129.373 281.456 128.185 281.869 126.845 282.152C125.537 282.429 124.15 282.569 122.721 282.569C119.931 282.569 117.295 282.031 115.3 281.054C115.199 281.005 115.101 280.955 115.006 280.903V271.6Z" fill="#FAFAFB" fill-opacity="0.5"/>
<path d="M114.82 268.668C110.402 266.427 110.402 262.794 114.821 260.553C119.239 258.312 126.402 258.312 130.821 260.553C132.955 261.636 134.058 263.043 134.13 264.462C134.207 265.979 133.104 267.51 130.82 268.668C126.402 270.909 119.239 270.909 114.82 268.668Z" fill="white" fill-opacity="0.5"/>
<path d="M115.522 244.96L115.548 247.819C115.55 248.747 116.245 249.673 117.632 250.382C120.425 251.807 124.967 251.807 127.777 250.382C129.192 249.664 129.898 248.723 129.895 247.783L129.869 244.924C129.873 245.864 129.166 246.806 127.751 247.524C124.941 248.948 120.399 248.948 117.607 247.523C116.219 246.814 115.525 245.888 115.522 244.96Z" stroke="white" stroke-width="2"/>
<path d="M117.639 242.36C114.828 243.786 114.814 246.096 117.606 247.523C120.399 248.947 124.941 248.947 127.751 247.523C130.562 246.097 130.577 243.786 127.784 242.36C124.992 240.935 120.45 240.935 117.639 242.36Z" stroke="white" stroke-width="2"/>
<path d="M133.953 258.844C132.243 261.017 127.853 262.563 122.708 262.563C117.563 262.563 113.173 261.017 111.463 258.844" stroke="white" stroke-width="2"/>
<path d="M128.679 252.56C127.778 253.826 125.467 254.727 122.759 254.727C120.05 254.727 117.739 253.826 116.838 252.56" stroke="white" stroke-width="2"/>
<path opacity="0.6" d="M114.053 283.391C114.148 283.443 114.246 283.493 114.348 283.542C115.312 284.015 116.426 284.384 117.634 284.64L117.579 262.18C116.3 261.927 115.108 261.559 114.053 261.086V283.391Z" fill="white"/>
<path d="M374.858 182.563C374.865 178.88 374.849 175.278 374.857 172.843C374.857 172.695 374.857 172.551 374.857 172.42C374.857 171.2 375.524 169.981 376.864 168.914C377.716 168.235 378.569 167.556 379.422 166.878L379.422 166.877C380.275 166.199 381.127 165.52 381.98 164.841C386.243 165.874 388.764 165.899 393.432 164.826C395.146 166.206 396.861 167.586 398.575 168.966C399.897 170.03 400.561 171.247 400.562 172.464L400.536 193.785C400.532 195.409 399.344 197.034 396.959 198.294C392.045 200.892 383.908 200.965 378.786 198.457C376.151 197.165 374.826 195.442 374.832 193.718C374.84 191.085 374.849 186.792 374.858 182.567M374.858 182.563L374.858 182.567M374.858 182.563C374.858 182.564 374.858 182.565 374.858 182.567" stroke="white" stroke-width="2"/>
<path d="M387.779 198.63C389.328 198.63 390.834 198.475 392.253 198.17C393.706 197.856 394.995 197.401 396.085 196.815C398.006 195.783 399.066 194.464 399.07 193.104L399.106 178.746C398.289 185.496 378.214 186.76 376.447 178.694C376.465 178.712 376.429 178.677 376.447 178.694L376.411 193.045C376.409 193.729 376.671 194.403 377.19 195.049C377.763 195.762 378.617 196.404 379.729 196.958C381.893 198.037 384.752 198.63 387.779 198.63Z" fill="white" fill-opacity="0.2"/>
<path d="M380.006 185.6C382.164 186.567 384.899 187.097 387.764 187.097C390.924 187.097 393.883 186.461 396.112 185.307V194.491C395.885 194.641 395.64 194.786 395.377 194.925C394.373 195.456 393.185 195.869 391.845 196.152C390.537 196.429 389.15 196.569 387.721 196.569C384.931 196.569 382.295 196.031 380.3 195.054C380.199 195.005 380.101 194.955 380.006 194.903V185.6Z" fill="#FAFAFB" fill-opacity="0.5"/>
<path d="M379.82 182.668C375.402 180.427 375.402 176.794 379.821 174.553C384.239 172.312 391.402 172.312 395.821 174.553C397.955 175.636 399.058 177.043 399.13 178.462C399.207 179.979 398.104 181.51 395.82 182.668C391.402 184.909 384.239 184.909 379.82 182.668Z" fill="white" fill-opacity="0.5"/>
<path d="M380.522 158.96L380.548 161.819C380.55 162.747 381.245 163.673 382.632 164.382C385.425 165.807 389.967 165.807 392.777 164.382C394.192 163.664 394.898 162.723 394.895 161.783L394.869 158.924C394.873 159.864 394.166 160.806 392.751 161.524C389.941 162.948 385.399 162.948 382.607 161.523C381.219 160.814 380.525 159.888 380.522 158.96Z" stroke="white" stroke-width="2"/>
<path d="M382.639 156.36C379.828 157.786 379.814 160.096 382.606 161.523C385.399 162.947 389.941 162.947 392.751 161.523C395.562 160.097 395.577 157.786 392.784 156.36C389.992 154.935 385.45 154.935 382.639 156.36Z" stroke="white" stroke-width="2"/>
<path d="M398.953 172.844C397.243 175.017 392.853 176.563 387.708 176.563C382.563 176.563 378.173 175.017 376.463 172.844" stroke="white" stroke-width="2"/>
<path d="M393.679 166.56C392.778 167.826 390.467 168.727 387.759 168.727C385.05 168.727 382.739 167.826 381.838 166.56" stroke="white" stroke-width="2"/>
<path opacity="0.6" d="M379.053 197.391C379.148 197.443 379.246 197.493 379.348 197.542C380.312 198.015 381.426 198.384 382.634 198.64L382.579 176.18C381.3 175.927 380.108 175.559 379.053 175.086V197.391Z" fill="white"/>
<path d="M387.5 159.11V138.672C387.5 134.845 383.377 132.436 380.044 134.317L348.5 152.11" stroke="white" stroke-width="2"/>
<path d="M248.905 83.6106L208.01 107L237.09 123.631L277.985 100.242L248.905 83.6106Z" fill="white" fill-opacity="0.5" stroke="white" stroke-width="2" stroke-linejoin="bevel"/>
<path d="M277.985 100.216L237.09 123.604V161.98L277.985 138.592V100.216Z" stroke="white" stroke-width="2" stroke-linejoin="bevel"/>
<path d="M253.704 131.671L244.758 136.788V142.635L253.704 137.519V131.671Z" fill="#D0D2D9"/>
<path d="M244.758 136.788L242.202 135.326V141.173L244.758 142.635V136.788Z" fill="#808899"/>
<path d="M251.148 130.209L253.704 131.671L244.758 136.788L242.202 135.326L251.148 130.209Z" fill="white"/>
<path d="M244.758 136.788L253.704 131.671M244.758 136.788V142.635M244.758 136.788L242.202 135.326M253.704 131.671V137.519L244.758 142.635M253.704 131.671L251.148 130.209L242.202 135.326M244.758 142.635L242.202 141.173V135.326" stroke="white" stroke-width="2"/>
<path d="M237.09 123.625L208 106.987V145.356L237.09 161.994V123.625Z" fill="white" fill-opacity="0.2" stroke="white" stroke-width="2" stroke-linejoin="bevel"/>
<path d="M273.854 134.101L241.904 152.374V159.215L273.854 140.943V134.101Z" stroke="white" stroke-width="2"/>
<path d="M233.906 117.784L236.86 119.473L233.391 121.457L230.437 119.768L233.906 117.784Z" stroke="white" stroke-width="2" stroke-linejoin="bevel"/>
<path d="M230.43 119.791L233.382 121.479V130.181L230.43 128.493V119.791Z" stroke="white" stroke-width="2" stroke-linejoin="bevel"/>
<path d="M229.774 115.445L232.728 117.134L229.259 119.118L226.305 117.429L229.774 115.445Z" stroke="white" stroke-width="2" stroke-linejoin="bevel"/>
<path d="M226.299 117.452L229.25 119.14V127.842L226.299 126.154V117.452Z" stroke="white" stroke-width="2" stroke-linejoin="bevel"/>
<path d="M225.642 113.106L228.596 114.795L225.127 116.779L222.173 115.09L225.642 113.106Z" stroke="white" stroke-width="2" stroke-linejoin="bevel"/>
<path d="M222.166 115.113L225.117 116.801V125.503L222.166 123.815V115.113Z" stroke="white" stroke-width="2" stroke-linejoin="bevel"/>
<path d="M237.09 142.634L208 125.997V130.383L237.09 147.02V142.634Z" stroke="white" stroke-width="2"/>
<path fill-rule="evenodd" clip-rule="evenodd" d="M268.545 114.045C267.972 113.713 267.618 113.006 267.618 112.002C267.618 109.985 269.05 107.529 270.813 106.52C271.695 106.016 272.493 105.969 273.072 106.299L275.645 107.772L270.898 115.364L268.545 114.045Z" fill="#808899" stroke="white" stroke-width="2"/>
<path d="M273.368 115.29C275.132 114.281 276.563 111.827 276.563 109.809C276.563 107.791 275.132 106.973 273.368 107.982C271.603 108.991 270.173 111.445 270.173 113.463C270.173 115.482 271.603 116.299 273.368 115.29Z" fill="#EBECEF" stroke="white" stroke-width="2"/>
<path fill-rule="evenodd" clip-rule="evenodd" d="M252.074 123.627C251.501 123.295 251.147 122.588 251.147 121.584C251.147 119.568 252.579 117.111 254.342 116.102C255.224 115.598 256.023 115.551 256.601 115.881L259.175 117.354L254.631 125.092L252.074 123.627Z" fill="#808899" stroke="white" stroke-width="2"/>
<path d="M256.897 124.872C258.662 123.863 260.092 121.409 260.092 119.391C260.092 117.373 258.662 116.555 256.897 117.564C255.133 118.573 253.702 121.027 253.702 123.045C253.702 125.064 255.133 125.881 256.897 124.872Z" fill="#EBECEF" stroke="white" stroke-width="2"/>
<path fill-rule="evenodd" clip-rule="evenodd" d="M256.062 122.958C255.789 122.799 255.62 122.462 255.62 121.983C255.62 121.021 256.303 119.849 257.144 119.368C257.565 119.127 257.946 119.104 258.222 119.262L259.45 119.965L257.479 123.768L256.062 122.958Z" fill="#AFB3BF" stroke="white" stroke-width="2"/>
<path d="M258.364 123.552C259.206 123.07 259.888 121.899 259.888 120.936C259.888 119.973 259.206 119.583 258.364 120.065C257.522 120.546 256.84 121.717 256.84 122.68C256.84 123.643 257.522 124.033 258.364 123.552Z" fill="#EBECEF" stroke="white" stroke-width="2"/>
<path fill-rule="evenodd" clip-rule="evenodd" d="M243.13 128.743C242.557 128.411 242.203 127.704 242.203 126.7C242.203 124.684 243.635 122.227 245.398 121.219C246.28 120.715 247.078 120.667 247.657 120.998L250.23 122.47L245.483 130.062L243.13 128.743Z" fill="#808899" stroke="white" stroke-width="2"/>
<path d="M247.953 129.989C249.717 128.979 251.148 126.525 251.148 124.507C251.148 122.489 249.717 121.671 247.953 122.68C246.188 123.689 244.758 126.143 244.758 128.162C244.758 130.18 246.188 130.998 247.953 129.989Z" fill="#EBECEF" stroke="white" stroke-width="2"/>
<path d="M54 180.61V193.55C54 195.428 55.0528 197.148 56.7256 198.003L120.774 230.718C122.447 231.573 123.5 233.293 123.5 235.171V242.61" stroke="white" stroke-width="2"/>
<path d="M63 184.11V190.58C63 192.443 64.0351 194.151 65.6861 195.013L128.336 227.72C129.976 228.576 131.953 228.457 133.478 227.411L140.672 222.478C143.99 220.203 148.5 222.578 148.5 226.602V233.11" stroke="white" stroke-width="2"/>
<path d="M67.4999 171.61C67.4999 166.31 67.4999 144.643 67.4999 129.211C67.4999 125.374 71.6436 122.973 74.9768 124.874L192 191.61" stroke="white" stroke-width="2"/>
<path d="M90.4999 154.61C90.4999 149.31 90.4999 127.643 90.4999 112.211C90.4999 108.374 94.6436 105.973 97.9768 107.874L212.619 173.253C214.102 174.098 215.914 174.129 217.425 173.334L251.907 155.186C252.625 154.808 253.424 154.61 254.235 154.61H257" stroke="white" stroke-width="2"/>
<path d="M341.5 260.61L353.998 267.797C357.334 269.715 357.344 274.524 354.017 276.455L239.953 342.686C238.431 343.57 236.558 343.588 235.019 342.736L131 285.11" stroke="white" stroke-width="2"/>
<path d="M268.5 302.61L273.523 305.215C277.105 307.072 277.125 312.188 273.558 314.074L240.9 331.341C239.403 332.133 237.608 332.113 236.129 331.288L158.579 288.057C155.402 286.286 155.296 281.754 158.386 279.836V279.836C161.631 277.822 161.311 273 157.828 271.433L156 270.61" stroke="white" stroke-width="2"/>
<path d="M476.808 128.611V221.027C476.808 223.236 475.257 224.132 473.344 223.027L264.464 102.431C262.551 101.326 261 98.6399 261 96.4308V4.01399C261 1.80486 262.551 0.909416 264.464 2.01398L473.344 122.611C475.257 123.715 476.808 126.401 476.808 128.611Z" fill="white" fill-opacity="0.2"/>
<path d="M7 148.226L7 241.234C7 243.444 8.55093 244.339 10.4641 243.234L253.344 103.008C255.257 101.903 256.808 99.217 256.808 97.0079V3.99991C256.808 1.79077 255.257 0.895341 253.344 1.99991L10.4641 142.226C8.55093 143.331 7 146.017 7 148.226Z" fill="white" fill-opacity="0.2"/>
</g>
<defs>
<clipPath id="clip0_80_15888">
<rect width="477" height="377.819" fill="white"/>
</clipPath>
</defs>
</svg>
