<?xml version="1.0" encoding="UTF-8" standalone="no"?><svg width="494" height="342" viewBox="0 0 494 342" fill="none" xmlns="http://www.w3.org/2000/svg">
<path d="M220.836 64.5L12.9904 184.5C5.81599 188.642 5.81599 195.358 12.9904 199.5L246.817 334.5C253.992 338.642 265.624 338.642 272.798 334.5L480.644 214.5C487.818 210.358 487.818 203.642 480.644 199.5L246.817 64.5C239.643 60.3579 228.011 60.3579 220.836 64.5Z" fill="white" fill-opacity="0.2"/>
<path d="M166.739 135.198C166.724 127.912 166.755 120.787 166.741 115.971C166.74 115.677 166.741 115.394 166.741 115.134C166.74 112.721 165.428 110.308 162.791 108.198C161.113 106.856 159.436 105.513 157.758 104.17L157.757 104.169C156.08 102.827 154.402 101.484 152.724 100.142C144.335 102.186 139.377 102.234 130.191 100.111C126.818 102.842 123.444 105.571 120.071 108.301C117.47 110.407 116.163 112.814 116.162 115.221L116.212 157.399C116.221 160.611 118.559 163.826 123.251 166.319C132.921 171.458 148.93 171.601 159.008 166.64C164.195 164.084 166.8 160.676 166.79 157.266C166.773 152.058 166.756 143.565 166.739 135.206M166.739 135.198L166.739 135.206M166.739 135.198C166.739 135.201 166.739 135.204 166.739 135.206" stroke="white" stroke-width="2"/>
<path d="M141.314 166.982C138.265 166.982 135.303 166.675 132.511 166.072C129.653 165.451 127.116 164.551 124.971 163.392C121.192 161.35 119.106 158.742 119.097 156.052L119.027 127.649C120.635 141 160.135 143.5 163.612 127.545C163.576 127.58 163.648 127.511 163.612 127.545L163.682 155.934C163.686 157.287 163.17 158.621 162.149 159.899C161.022 161.309 159.341 162.578 157.153 163.675C152.895 165.808 147.271 166.982 141.314 166.982Z" fill="white" fill-opacity="0.2"/>
<path d="M156.609 141.206C152.362 143.119 146.981 144.169 141.344 144.169C135.126 144.169 129.303 142.91 124.918 140.627V158.796C125.365 159.092 125.846 159.379 126.363 159.653C128.338 160.704 130.677 161.521 133.313 162.081C135.887 162.628 138.617 162.906 141.428 162.906C146.918 162.906 152.104 161.842 156.029 159.909C156.228 159.811 156.421 159.712 156.609 159.61V141.206Z" fill="#FAFAFB" fill-opacity="0.5"/>
<path d="M156.973 135.406C165.667 130.973 165.667 123.786 156.973 119.353C148.28 114.92 134.185 114.92 125.491 119.353C121.291 121.495 119.12 124.279 118.978 127.085C118.827 130.088 120.998 133.115 125.491 135.406C134.185 139.838 148.28 139.838 156.973 135.406Z" fill="white" fill-opacity="0.5"/>
<path d="M155.594 88.5072L155.543 94.1621C155.537 95.999 154.17 97.8302 151.441 99.2317C145.947 102.052 137.009 102.052 131.479 99.2317C128.696 97.8131 127.306 95.951 127.313 94.0912L127.362 88.4352C127.356 90.295 128.747 92.1582 131.53 93.578C137.059 96.3957 145.997 96.3957 151.492 93.5768C154.222 92.1754 155.588 90.3419 155.594 88.5072Z" stroke="white" stroke-width="2"/>
<path d="M151.428 83.3642C156.958 86.1843 156.987 90.7555 151.492 93.5766C145.998 96.3955 137.06 96.3955 131.531 93.5778C126 90.7566 125.971 86.1843 131.466 83.3642C136.96 80.5454 145.897 80.5454 151.428 83.3642Z" stroke="white" stroke-width="2"/>
<path d="M119.327 115.972C122.692 120.27 131.329 123.329 141.453 123.329C151.577 123.329 160.215 120.27 163.58 115.972" stroke="white" stroke-width="2"/>
<path d="M129.705 103.54C131.477 106.045 136.024 107.827 141.354 107.827C146.684 107.827 151.231 106.045 153.003 103.54" stroke="white" stroke-width="2"/>
<path opacity="0.6" d="M158.484 164.531C158.296 164.634 158.103 164.732 157.904 164.831C156.007 165.765 153.815 166.496 151.437 167.002L151.547 122.573C154.062 122.072 156.408 121.343 158.484 120.408V164.531Z" fill="white"/>
<path d="M318.734 194.632C318.354 184.318 311.366 174.07 297.771 166.199C269.8 150.004 224.45 150.004 196.478 166.198C182.833 174.099 175.844 184.394 175.512 194.747M318.734 194.632C319.135 205.54 312.148 216.522 297.772 224.845C269.8 241.04 224.45 241.04 196.479 224.845C182.153 216.551 175.164 205.617 175.512 194.747M318.734 194.632V84.0938C318.734 94.7104 311.746 105.326 297.769 113.418C269.817 129.603 224.429 129.603 196.477 113.418C182.5 105.326 175.512 94.7104 175.512 84.0938V194.747M318.734 194.632V195.115M175.512 194.747V195.115" stroke="white" stroke-width="2"/>
<path d="M257.748 192.768V206.843L278.006 218.572V204.497L257.748 192.768Z" stroke="white" stroke-width="2"/>
<path d="M216.811 168.136V182.211L236.695 193.724V179.649L216.811 168.136Z" stroke="white" stroke-width="2"/>
<path d="M236.695 186.903V189.249L257.749 201.439V199.093L236.695 186.903Z" stroke="white" stroke-width="2"/>
<path d="M236.695 192.768V206.843L216.436 218.572V204.497L236.695 192.768Z" stroke="white" stroke-width="2"/>
<path d="M277.631 168.136V182.211L257.748 193.723V179.648L277.631 168.136Z" stroke="white" stroke-width="2"/>
<path d="M257.747 186.903V189.249L236.694 201.438V199.092L257.747 186.903Z" stroke="white" stroke-width="2"/>
<path d="M245.218 194.542C246.128 195.304 247.601 195.304 248.51 194.542C248.902 194.214 249.186 193.8 249.186 192.951V125.91H244.508V192.951L244.55 193.371C244.604 193.799 244.827 194.214 245.218 194.542Z" stroke="white" stroke-width="2"/>
<path d="M212.646 159.169C206.846 157.323 201.394 154.977 196.479 152.131C183.146 144.412 176.169 134.407 175.546 124.295V194.04C176.17 183.929 183.147 173.925 196.478 166.207C201.394 163.361 206.846 161.015 212.646 159.169Z" fill="#A2BECA" fill-opacity="0.5"/>
<path d="M318.703 122.808C318.703 133.421 311.757 144.034 297.772 152.132C292.856 154.978 287.404 157.323 281.604 159.169C287.404 161.015 292.856 163.361 297.771 166.207C311.102 173.925 318.079 183.929 318.703 194.04V122.808Z" fill="#A2BECA" fill-opacity="0.5"/>
<path d="M196.479 224.854C224.45 241.048 269.8 241.049 297.772 224.854C311.103 217.135 318.079 207.131 318.703 197.02V194.04C318.079 183.929 311.102 173.925 297.771 166.207C292.856 163.361 287.404 161.015 281.604 159.169C260.198 165.981 234.052 165.981 212.646 159.169C206.846 161.015 201.394 163.361 196.478 166.207C183.147 173.925 176.17 183.929 175.546 194.04V197.02C176.17 207.131 183.147 217.135 196.479 224.854Z" fill="#A2BECA" fill-opacity="0.5"/>
<path d="M297.771 93.4846C269.8 77.2897 224.45 77.2896 196.478 93.4845C183.146 101.204 176.169 111.209 175.546 121.321V124.295C176.169 134.407 183.146 144.412 196.479 152.131C201.394 154.977 206.846 157.323 212.646 159.169C234.052 165.981 260.198 165.981 281.604 159.169C287.404 157.323 292.856 154.978 297.772 152.132C311.757 144.034 318.703 133.421 318.703 122.808C318.703 112.195 311.757 101.582 297.771 93.4846Z" fill="#A2BECA" fill-opacity="0.5"/>
<path d="M297.771 93.4846C269.8 77.2897 224.449 77.2896 196.478 93.4845C183.146 101.204 176.169 111.209 175.546 121.321V124.295C176.169 134.407 183.146 144.412 196.478 152.131C201.394 154.977 206.846 157.323 212.646 159.169C234.052 165.981 260.198 165.981 281.603 159.169C287.404 157.323 292.856 154.978 297.771 152.132C311.757 144.034 318.703 133.421 318.703 122.808C318.703 112.195 311.757 101.582 297.771 93.4846Z" fill="white" fill-opacity="0.2"/>
<path d="M198.81 230.419V225.893V164.77V114.659L202.115 112.303V228.401L198.81 230.419Z" stroke="white" stroke-width="2" stroke-linejoin="bevel"/>
<path d="M196.478 113.369C194.4 112.168 192.475 110.911 190.706 109.606V169.822V220.841V224.988C190.706 225.226 190.819 225.451 191.012 225.591C192.696 226.815 194.519 227.997 196.478 229.13C197.242 229.572 198.02 230.001 198.809 230.419V225.892V164.77V114.659C198.02 114.241 197.242 113.811 196.478 113.369Z" stroke="white" stroke-width="2" stroke-linejoin="bevel"/>
<path d="M295.144 230.419V225.893V164.77V114.659L291.838 112.303V228.401L295.144 230.419Z" stroke="white" stroke-width="2" stroke-linejoin="bevel"/>
<path d="M297.476 113.369C299.554 112.168 301.478 110.911 303.248 109.606V169.822V220.841V224.988C303.248 225.226 303.135 225.451 302.942 225.591C301.257 226.815 299.435 227.997 297.476 229.13C296.711 229.572 295.934 230.001 295.144 230.419V225.892V164.77V114.659C295.934 114.241 296.711 113.811 297.476 113.369Z" stroke="white" stroke-width="2" stroke-linejoin="bevel"/>
<path d="M175.5 84.0941C175.5 94.7108 182.488 105.326 196.465 113.418C224.416 129.603 269.805 129.603 297.756 113.418C311.733 105.326 318.721 94.7108 318.721 84.0941C318.722 73.4784 311.735 62.8619 297.759 54.7699C269.807 38.5859 224.418 38.5858 196.466 54.7698C182.49 62.8618 175.5 73.4784 175.5 84.0941Z" stroke="white" stroke-width="2"/>
<path d="M219.887 104.752C221.486 103.818 222.285 102.594 222.285 101.37C222.285 100.146 221.486 98.9217 219.887 97.9878C216.69 96.12 211.506 96.12 208.308 97.9878C206.709 98.9217 205.91 100.146 205.91 101.37C205.91 102.594 206.71 103.818 208.308 104.752C211.506 106.62 216.69 106.62 219.887 104.752Z" stroke="white" stroke-width="2"/>
<path d="M208.308 104.752C211.506 106.619 216.69 106.619 219.887 104.752C221.486 103.818 222.285 102.594 222.285 101.37V105.879C222.285 107.103 221.486 108.327 219.887 109.261C216.69 111.129 211.506 111.129 208.308 109.261C206.71 108.327 205.91 107.103 205.91 105.879V101.37C205.91 102.594 206.71 103.818 208.308 104.752Z" stroke="white" stroke-width="2"/>
<path d="M257.461 90.4427C260.391 88.7306 261.857 86.4865 261.857 84.2424C261.857 81.9983 260.391 79.7541 257.46 78.0419C251.599 74.6175 242.095 74.6175 236.233 78.0419C233.302 79.7541 231.836 81.9983 231.836 84.2424C231.836 86.4865 233.302 88.7305 236.233 90.4427C242.095 93.8671 251.599 93.8671 257.461 90.4427Z" stroke="white" stroke-width="2"/>
<path d="M236.233 90.4425C242.095 93.8669 251.599 93.8669 257.461 90.4425C260.391 88.7303 261.857 86.4863 261.857 84.2422V87.8177C261.857 90.0617 260.391 92.3058 257.461 94.018C251.599 97.4424 242.095 97.4424 236.233 94.018C233.302 92.3058 231.836 90.0617 231.836 87.8177V84.2422C231.836 86.4863 233.302 88.7303 236.233 90.4425Z" stroke="white" stroke-width="2"/>
<path d="M288.895 64.872C290.494 63.9381 291.293 62.714 291.293 61.49C291.293 60.2659 290.494 59.0419 288.895 58.1079C285.698 56.2401 280.514 56.2401 277.316 58.1079C275.718 59.0418 274.918 60.2659 274.918 61.49C274.918 62.714 275.718 63.9381 277.317 64.872C280.514 66.7398 285.698 66.7398 288.895 64.872Z" stroke="white" stroke-width="2"/>
<path d="M277.317 64.8717C280.514 66.7396 285.698 66.7396 288.895 64.8717C290.494 63.9378 291.293 62.7138 291.293 61.4897V65.9991C291.293 67.2232 290.494 68.4472 288.895 69.3811C285.698 71.249 280.514 71.249 277.317 69.3811C275.718 68.4472 274.918 67.2232 274.918 65.9991V61.4897C274.918 62.7138 275.718 63.9378 277.317 64.8717Z" stroke="white" stroke-width="2"/>
<path d="M318.704 122.392C318.704 128.749 316.195 135.107 311.176 140.923" stroke="white" stroke-width="2"/>
<path d="M318.704 108.316C318.704 114.673 316.195 121.031 311.176 126.848" stroke="white" stroke-width="2"/>
<path d="M318.704 136.466C318.704 142.824 316.195 149.181 311.176 154.998" stroke="white" stroke-width="2"/>
<path d="M318.704 150.542C318.704 156.9 316.195 163.257 311.176 169.074" stroke="white" stroke-width="2"/>
<path d="M318.704 164.617C318.704 170.975 316.195 177.332 311.176 183.149" stroke="white" stroke-width="2"/>
<path d="M318.704 178.692C318.704 185.05 316.195 191.407 311.176 197.224" stroke="white" stroke-width="2"/>
<path d="M245.218 84.2244C246.128 84.7152 247.601 84.7152 248.51 84.2244C248.902 84.0131 249.186 83.7459 249.186 83.1991V40H244.508V83.1991L244.55 83.4695C244.604 83.7452 244.827 84.0131 245.218 84.2244Z" stroke="white" stroke-width="2"/>
<path d="M238.662 25.3984C238.701 26.5781 239.472 27.7402 240.98 28.6288C241.174 28.7432 241.376 28.8504 241.584 28.9504M238.662 25.3984C238.66 25.3346 238.66 25.2708 238.662 25.207L238.662 25.3984ZM238.662 25.3984L238.662 35.4964C238.62 36.7411 239.39 37.9817 240.98 38.9183C242.142 39.603 243.579 40.0298 245.093 40.2003M241.584 39.2399V28.9504M245.093 40.2003C246.247 40.3302 247.446 40.3112 248.602 40.144M245.093 40.2003V29.9108M248.602 40.144C249.861 39.9618 251.069 39.6036 252.111 39.0705M248.602 40.144V29.8545M252.111 39.0705C252.263 38.9925 252.412 38.9107 252.557 38.8252C254.133 37.8966 254.959 36.6973 255.03 35.4965V25.207C254.959 26.4079 254.133 27.6071 252.557 28.5358C252.412 28.6212 252.263 28.703 252.111 28.781M252.111 39.0705V28.781M241.584 28.9504C242.624 29.449 243.832 29.7688 245.093 29.9108M245.093 29.9108C246.247 30.0408 247.446 30.0218 248.602 29.8545M248.602 29.8545C249.861 29.6723 251.069 29.3142 252.111 28.781" stroke="white" stroke-width="2"/>
<path d="M238.662 25.3986C238.701 26.5783 239.472 27.7405 240.98 28.6291C244.133 30.4876 249.317 30.4459 252.557 28.536C254.133 27.6074 254.959 26.4081 255.03 25.2073C255.105 23.9383 254.336 22.6676 252.715 21.7128C249.562 19.8543 244.378 19.8959 241.138 21.8058C239.53 22.7532 238.703 23.9823 238.662 25.2073M238.662 25.3986C238.66 25.3349 238.66 25.2711 238.662 25.2073M238.662 25.3986L238.662 25.2073" stroke="white" stroke-width="2"/>
<path d="M250.155 22.6657C251.069 22.132 251.525 21.4326 251.525 20.7331C251.525 20.0337 251.069 19.3342 250.155 18.8005C248.328 17.7332 245.366 17.7332 243.539 18.8005C242.625 19.3342 242.168 20.0337 242.168 20.7331C242.168 21.4326 242.625 22.132 243.539 22.6657C245.366 23.733 248.328 23.733 250.155 22.6657Z" stroke="white" stroke-width="2"/>
<path d="M243.539 22.6655C245.366 23.7328 248.328 23.7328 250.155 22.6655C251.069 22.1318 251.525 21.4324 251.525 20.7329V23.3097C251.525 24.0092 251.069 24.7086 250.155 25.2423C248.328 26.3096 245.366 26.3096 243.539 25.2423C242.625 24.7086 242.168 24.0092 242.168 23.3097V20.7329C242.168 21.4324 242.625 22.1318 243.539 22.6655Z" stroke="white" stroke-width="2"/>
<path opacity="0.2" d="M270.423 126.092C276.211 124.867 279.776 124.016 285.505 122.088V225.171C285.505 225.504 285.286 225.797 284.967 225.891L271.386 229.896C270.905 230.038 270.423 229.678 270.423 229.177V126.092Z" fill="white"/>
<path d="M335.167 190.625C335.167 193.571 337.554 195.958 340.5 195.958C343.446 195.958 345.833 193.571 345.833 190.625C345.833 187.679 343.446 185.292 340.5 185.292C337.554 185.292 335.167 187.679 335.167 190.625ZM334.838 59.8845L334.342 60.7524L334.838 59.8845ZM335.335 59.0166L289.61 32.8447L288.616 34.5805L334.342 60.7524L335.335 59.0166ZM282.5 36.9672V61.125H284.5V36.9672H282.5ZM339.5 69.6483V190.625H341.5V69.6483H339.5ZM289.61 32.8447C286.443 31.0322 282.5 33.3185 282.5 36.9672H284.5C284.5 34.8548 286.783 33.5312 288.616 34.5805L289.61 32.8447ZM334.342 60.7524C337.532 62.5783 339.5 65.9726 339.5 69.6483H341.5C341.5 65.2554 339.148 61.1988 335.335 59.0166L334.342 60.7524Z" fill="white"/>
<path d="M136.417 87C136.417 89.9455 138.804 92.3333 141.75 92.3333C144.696 92.3333 147.083 89.9455 147.083 87C147.083 84.0545 144.696 81.6667 141.75 81.6667C138.804 81.6667 136.417 84.0545 136.417 87ZM147.451 3.47428L147.972 2.62034L147.451 3.47428ZM208.875 39.733L147.972 2.62034L146.931 4.32822L207.834 41.4409L208.875 39.733ZM140.75 6.67656V87H142.75V6.67656H140.75ZM212.75 50.1937V99H214.75V50.1937H212.75ZM147.972 2.62034C144.806 0.691474 140.75 2.96983 140.75 6.67656H142.75C142.75 4.53056 145.098 3.21151 146.931 4.32822L147.972 2.62034ZM207.834 41.4409C210.887 43.3014 212.75 46.6184 212.75 50.1937H214.75C214.75 45.9207 212.523 41.9565 208.875 39.733L207.834 41.4409Z" fill="white"/>
<path d="M365.624 236.948C365.609 229.662 365.639 222.537 365.625 217.721C365.625 217.427 365.625 217.144 365.625 216.884C365.625 214.471 364.312 212.058 361.676 209.948C359.998 208.606 358.321 207.263 356.643 205.92L356.642 205.919C354.965 204.577 353.287 203.234 351.609 201.892C343.22 203.936 338.261 203.984 329.076 201.861C325.703 204.592 322.329 207.321 318.956 210.051C316.355 212.157 315.048 214.564 315.047 216.971L315.097 259.149C315.106 262.361 317.443 265.576 322.136 268.069C331.806 273.208 347.815 273.351 357.893 268.39C363.079 265.834 365.685 262.426 365.675 259.016C365.657 253.808 365.64 245.315 365.624 236.956M365.624 236.948L365.624 236.956M365.624 236.948C365.624 236.951 365.624 236.954 365.624 236.956" stroke="white" stroke-width="2"/>
<path d="M340.199 268.732C337.15 268.732 334.187 268.425 331.396 267.822C328.537 267.201 326.001 266.301 323.855 265.142C320.077 263.1 317.991 260.492 317.981 257.802L317.912 229.399C319.52 242.75 359.02 245.25 362.496 229.295C362.461 229.33 362.532 229.261 362.496 229.295L362.566 257.684C362.571 259.037 362.054 260.371 361.034 261.649C359.907 263.059 358.226 264.328 356.038 265.425C351.78 267.558 346.155 268.732 340.199 268.732Z" fill="white" fill-opacity="0.2"/>
<path d="M355.494 242.956C351.247 244.869 345.866 245.919 340.229 245.919C334.011 245.919 328.188 244.66 323.802 242.377V260.546C324.249 260.842 324.731 261.129 325.248 261.403C327.223 262.454 329.562 263.271 332.198 263.831C334.771 264.378 337.502 264.656 340.313 264.656C345.803 264.656 350.988 263.592 354.914 261.659C355.113 261.561 355.306 261.462 355.494 261.36V242.956Z" fill="#FAFAFB" fill-opacity="0.5"/>
<path d="M355.858 237.156C364.552 232.723 364.552 225.536 355.858 221.103C347.165 216.67 333.069 216.67 324.376 221.103C320.176 223.245 318.005 226.029 317.863 228.835C317.712 231.838 319.883 234.865 324.376 237.156C333.07 241.588 347.165 241.588 355.858 237.156Z" fill="white" fill-opacity="0.5"/>
<path d="M354.478 190.257L354.428 195.912C354.422 197.749 353.055 199.58 350.325 200.982C344.831 203.802 335.894 203.802 330.364 200.982C327.581 199.563 326.191 197.701 326.197 195.841L326.247 190.185C326.241 192.045 327.632 193.908 330.415 195.328C335.944 198.146 344.882 198.146 350.376 195.327C353.107 193.925 354.473 192.092 354.478 190.257Z" stroke="white" stroke-width="2"/>
<path d="M350.313 185.114C355.843 187.934 355.872 192.505 350.377 195.327C344.883 198.145 335.945 198.145 330.416 195.328C324.885 192.507 324.856 187.934 330.35 185.114C335.845 182.295 344.782 182.295 350.313 185.114Z" stroke="white" stroke-width="2"/>
<path d="M318.211 217.722C321.577 222.02 330.214 225.079 340.338 225.079C350.462 225.079 359.1 222.02 362.465 217.722" stroke="white" stroke-width="2"/>
<path d="M328.59 205.29C330.361 207.795 334.909 209.577 340.239 209.577C345.569 209.577 350.116 207.795 351.888 205.29" stroke="white" stroke-width="2"/>
<path opacity="0.6" d="M357.369 266.281C357.181 266.384 356.988 266.482 356.789 266.581C354.892 267.515 352.7 268.246 350.322 268.752L350.431 224.323C352.947 223.822 355.293 223.093 357.369 222.158V266.281Z" fill="white"/>
</svg>
