<?xml version="1.0" encoding="UTF-8" standalone="no"?><svg width="24" height="25" viewBox="0 0 24 25" fill="none" xmlns="http://www.w3.org/2000/svg">
<path d="M15.9994 2.27148V4.27148H14.9994V7.51439C14.9994 8.67199 15.2506 9.8158 15.7357 10.8669L20.017 20.1429C20.3641 20.8951 20.0358 21.7863 19.2836 22.1334C19.0865 22.2244 18.8721 22.2715 18.655 22.2715H5.34375C4.51532 22.2715 3.84375 21.5999 3.84375 20.7715C3.84375 20.5544 3.89085 20.34 3.98181 20.1429L8.26306 10.8669C8.74816 9.8158 8.99939 8.67199 8.99939 7.51439V4.27148H7.99939V2.27148H15.9994ZM13.3873 10.2727H10.6115C10.5072 10.6359 10.3823 10.9936 10.2371 11.3439L10.079 11.705L6.12439 20.2715H17.8734L13.9198 11.705C13.7054 11.2406 13.5276 10.7617 13.3873 10.2727ZM10.9994 7.51439C10.9994 7.76774 10.9898 8.02058 10.9706 8.27235H13.0282C13.0189 8.1513 13.0119 8.03 13.0072 7.90852L12.9994 7.51439V4.27148H10.9994V7.51439Z" fill="#3CAF85"/>
</svg>
