<?xml version="1.0" encoding="UTF-8" standalone="no"?><svg width="24" height="25" viewBox="0 0 24 25" fill="none" xmlns="http://www.w3.org/2000/svg">
<path d="M3.33946 17.2717C2.90721 16.523 2.58277 15.7417 2.36133 14.9456C3.3338 14.4494 3.99972 13.4383 3.99972 12.2717C3.99972 11.106 3.3348 10.0955 2.36353 9.59889C2.81025 7.98799 3.65857 6.48775 4.86474 5.26149C5.7807 5.85564 6.98935 5.92682 7.99972 5.34348C9.01009 4.76014 9.55277 3.67783 9.4962 2.58752C11.1613 2.15608 12.8847 2.17152 14.5031 2.5901C14.4475 3.67954 14.9901 4.7606 15.9997 5.34348C17.0101 5.9268 18.2187 5.85564 19.1346 5.26155C19.7133 5.85134 20.2277 6.52299 20.66 7.27169C21.0922 8.02038 21.4167 8.80173 21.6381 9.59776C20.6656 10.094 19.9997 11.1051 19.9997 12.2717C19.9997 13.4375 20.6646 14.4479 21.6359 14.9445C21.1892 16.5554 20.3409 18.0556 19.1347 19.2819C18.2187 18.6878 17.0101 18.6166 15.9997 19.1999C14.9893 19.7832 14.4467 20.8656 14.5032 21.9559C12.8382 22.3873 11.1148 22.3719 9.49633 21.9533C9.55191 20.8638 9.00929 19.7828 7.99972 19.1999C6.98938 18.6166 5.78079 18.6877 4.86484 19.2818C4.28617 18.692 3.77172 18.0204 3.33946 17.2717ZM8.99972 17.4679C10.0911 18.098 10.8749 19.0942 11.2503 20.2374C11.7486 20.2848 12.2502 20.2855 12.7486 20.239C13.1238 19.0952 13.9078 18.0983 14.9997 17.4679C16.0916 16.8374 17.347 16.657 18.5252 16.9039C18.8146 16.4955 19.0648 16.0607 19.2729 15.6055C18.4706 14.7088 17.9997 13.5319 17.9997 12.2717C17.9997 11.0115 18.4706 9.83468 19.2729 8.93798C19.1688 8.71198 19.0538 8.4897 18.9279 8.27169C18.802 8.05367 18.667 7.84296 18.5233 7.6399C17.3457 7.88624 16.0911 7.70562 14.9997 7.07553C13.9083 6.44543 13.1246 5.44916 12.7491 4.30603C12.2509 4.25862 11.7492 4.25794 11.2509 4.3044C10.8756 5.44819 10.0916 6.44512 8.99972 7.07553C7.9078 7.70595 6.65245 7.88642 5.47428 7.63951C5.18485 8.04789 4.93463 8.48265 4.72656 8.93785C5.52881 9.83459 5.99972 11.0115 5.99972 12.2717C5.99972 13.5319 5.52883 14.7087 4.72656 15.6054C4.83067 15.8314 4.94564 16.0537 5.07152 16.2717C5.19739 16.4897 5.3324 16.7004 5.47612 16.9035C6.65377 16.6572 7.90838 16.8378 8.99972 17.4679ZM11.9997 15.2717C10.3429 15.2717 8.99972 13.9286 8.99972 12.2717C8.99972 10.6149 10.3429 9.27169 11.9997 9.27169C13.6566 9.27169 14.9997 10.6149 14.9997 12.2717C14.9997 13.9286 13.6566 15.2717 11.9997 15.2717ZM11.9997 13.2717C12.552 13.2717 12.9997 12.824 12.9997 12.2717C12.9997 11.7194 12.552 11.2717 11.9997 11.2717C11.4474 11.2717 10.9997 11.7194 10.9997 12.2717C10.9997 12.824 11.4474 13.2717 11.9997 13.2717Z" fill="#3CAF85"/>
</svg>
