<?xml version="1.0" encoding="UTF-8" standalone="no"?><svg width="149" height="50" viewBox="0 0 149 50" fill="none" xmlns="http://www.w3.org/2000/svg">
<path fill-rule="evenodd" clip-rule="evenodd" d="M13.0541 40.0028C16.1499 40.3979 18.7511 39.8382 19.6648 39.509C20.0141 40.963 21.3578 43.871 23.2926 44.2826C25.2275 44.6941 25.7918 43.2949 25.7918 43.2949C25.7918 43.2949 26.5174 44.4472 27.3235 44.941C28.0241 45.3701 28.1159 45.7371 28.2867 46.42L28.2867 46.4202L28.2868 46.4208C28.3125 46.5235 28.34 46.6333 28.3716 46.7516C28.6134 47.6569 29.6615 48.3977 30.2258 48.3977C30.7901 48.3977 31.3545 48.3977 32.2413 48.8092C32.3599 48.8642 32.4784 48.9236 32.5984 48.9837C33.3753 49.3732 34.2089 49.7911 35.466 49.2207C35.835 49.0533 36.1154 48.8752 36.3827 48.7055C37.1666 48.2076 37.8382 47.7811 40.3032 47.9038C43.6085 48.0685 47.317 46.8339 47.8007 45.2702C48.1783 44.0494 46.2323 42.8861 45.1392 42.4227C45.2983 42.4585 45.6976 42.463 46.5108 42.3073C47.8007 42.0604 49.5743 40.4144 50.1386 39.6736C50.3067 39.453 50.6106 39.2763 50.9588 39.0737C51.7798 38.5961 52.8471 37.9752 52.9603 36.2993C53.0893 34.3898 50.3545 33.5833 48.8496 33.4187C48.8466 33.3939 48.8422 33.3653 48.8372 33.3331L48.8372 33.3327C48.7982 33.0794 48.7249 32.6034 49.0108 32.0195C49.2762 31.4778 49.5411 31.4353 50.059 31.3521C50.328 31.309 50.6652 31.2549 51.106 31.1142C51.9514 30.8445 52.6582 29.9739 53.5897 28.8267C54.0795 28.2234 54.6314 27.5436 55.2982 26.8345C57.2331 24.7769 54.8145 23.0486 52.3153 22.6371C50.316 22.3079 51.0532 19.7016 51.6713 18.1928C52.6387 15.3122 50.2192 13.09 48.9293 13.7485C48.2116 14.1148 47.584 13.9829 46.9239 13.8442C46.3976 13.7336 45.8506 13.6187 45.2209 13.7485C42.4768 14.3138 40.6438 16.371 39.2654 17.9181C39.2075 17.9832 39.1503 18.0474 39.0939 18.1105C39.2309 17.6443 39.4024 17.0784 39.591 16.456C40.4015 13.7816 41.5284 10.0633 41.593 8.72802C41.6728 7.08198 40.0353 6.6156 39.0141 6.50586C39.0141 6.03948 38.9395 4.5709 38.2886 2.63766C37.6483 0.736292 37.3018 0.808155 36.4002 0.995123C36.0529 1.06713 35.6234 1.15622 35.0629 1.15622C33.4506 1.15622 32.1875 4.00936 31.7576 5.43593C31.6984 5.32782 31.6326 5.20564 31.5611 5.07286L31.561 5.07266C31.0155 4.05981 30.1381 2.43081 29.3399 1.73233C28.2112 0.744705 26.443 0.00398088 25.7926 0.909312C25.5181 1.29152 25.2976 1.72107 25.0667 2.17108C24.5516 3.17459 23.9843 4.27989 22.6485 5.18903C21.1007 6.24249 21.3578 9.63334 21.519 11.2794C21.304 11.1696 20.6805 10.5716 19.9066 9.05722C19.7618 8.77389 19.6297 8.50346 19.505 8.24842C18.7971 6.79957 18.3318 5.84744 17.1665 5.84744C15.7341 5.84744 14.911 9.16198 14.4368 11.0716L14.4366 11.0724C14.4041 11.2034 14.3732 11.3278 14.3439 11.444C14.1558 11.444 13.57 10.9502 12.7315 9.63334C11.6835 7.98729 9.74864 6.09434 7.49132 6.42355C5.23399 6.75276 4.54013 11.0867 5.07276 14.2423C5.45641 16.5152 7.01623 18.2318 8.14192 19.4707L8.14207 19.4709L8.14245 19.4713C8.31356 19.6596 8.47463 19.8369 8.62001 20.0034C6.68477 18.7689 1.36519 18.1105 0.558508 18.7689C-0.248172 19.4273 -0.168929 20.9087 0.718009 24.2008C1.37951 26.6562 2.88761 27.7285 3.76382 28.3515C3.82746 28.3968 3.88777 28.4397 3.94418 28.4805C2.38555 28.4257 -0.473728 29.1225 0.558192 32.3487C1.59011 35.575 5.98652 36.7108 8.05574 36.8754C8.05574 39.2621 9.95833 39.6078 13.0541 40.0028ZM17.892 35.8878C17.2739 35.6134 15.554 35.18 13.6192 35.6408C11.2006 36.217 9.91069 36.217 9.5076 35.6408C9.30295 35.3484 8.8905 35.2044 8.50235 35.0689C8.12597 34.9375 7.77244 34.814 7.65337 34.5709C7.41151 34.0771 9.58639 33.501 11.3618 33.501C13.1355 33.501 16.8438 33.5833 17.892 35.8878ZM6.44292 24.4477C7.53934 25.3695 11.8444 29.4956 13.8598 31.4434C11.6832 31.608 5.07233 31.0319 4.66923 30.6204C4.42926 30.3754 4.87502 30.1888 5.51323 29.9215C5.94706 29.7399 6.46982 29.521 6.92656 29.2213C8.05522 28.4805 7.00848 27.246 5.23486 26.6699C3.46125 26.0938 2.97715 24.6946 3.62138 23.9539C4.26561 23.2132 5.07241 23.2955 6.44292 24.4477ZM12.1671 26.9991C12.1671 26.9991 6.34962 22.215 6.2829 21.7318C6.21617 21.2485 7.49157 21.238 8.94271 22.2256C10.3938 23.2132 12.1671 26.9991 12.1671 26.9991ZM14.8285 29.0567C15.6261 30.7529 17.757 32.7476 19.3692 34.2566L19.3694 34.2568C19.7127 34.5781 20.0324 34.8773 20.3107 35.147C19.6964 30.5058 16.8348 27.1073 14.6515 24.5144C13.9697 23.7048 13.3542 22.9737 12.8938 22.3079C11.3484 20.0728 9.44293 15.685 8.5331 13.5899L8.53294 13.5895C8.30376 13.0618 8.13776 12.6795 8.05665 12.5139C7.65356 11.6909 7.16998 11.9378 7.00874 12.8431C6.8475 13.7484 7.16972 14.7361 7.73431 15.4768C9.31875 17.5555 10.1792 19.1845 11.184 21.0868C11.6219 21.9158 12.0872 22.7967 12.6518 23.7893C13.5051 25.2895 13.773 26.1353 14.0456 26.9958C14.2366 27.5987 14.4299 28.209 14.8285 29.0567ZM18.2953 25.8469C17.1129 24.5026 14.7479 21.5672 13.6194 19.6742L13.5473 19.5534C12.3603 17.5634 9.28394 12.4063 10.1526 11.1971C10.6524 10.5013 11.2127 11.1483 11.8756 11.9139C12.3888 12.5066 12.9636 13.1704 13.6194 13.337C14.0279 13.4408 14.4594 13.4057 14.8676 13.3726C15.5622 13.3162 16.1895 13.2652 16.5218 13.9131C17.4084 15.6414 18.2953 25.8469 18.2953 25.8469ZM19.4238 20.9087L22.8098 38.1099C22.8098 37.7687 22.8301 37.2466 22.8553 36.6011L22.8554 36.6L22.8554 36.5989C22.9519 34.1294 23.1187 29.8565 22.4873 26.9991C21.774 23.7711 20.5524 21.9787 19.4238 20.9087ZM24.9058 29.4682C24.9058 29.4682 24.261 24.2502 22.6487 21.8141C20.6332 18.7689 19.4239 16.1352 19.0208 14.8184C18.6177 13.5015 18.0532 9.88025 19.0208 10.9502C19.8014 11.8133 20.0942 13.1259 20.3651 14.3405C20.6053 15.4171 20.8283 16.4168 21.3587 16.9582C22.4873 18.1105 23.6966 18.1105 23.9385 16.7113C24.132 15.592 23.6966 10.4838 23.4548 8.0696C23.7678 8.83661 23.9593 9.90145 24.1567 10.9991C24.4676 12.7282 24.7931 14.5387 25.6315 15.3945C26.1396 15.9132 26.8676 16.3547 27.2438 16.5467L26.7601 25.4354C25.5421 26.3428 24.9058 29.4682 24.9058 29.4682ZM25.5511 7.57577C25.5511 9.02429 27.0829 14.1599 27.0829 14.1599C27.0829 14.1599 27.2438 8.23419 26.8407 6.99966C26.4376 5.76514 25.5511 5.76512 25.5511 7.57577ZM28.6684 6.80949C28.6196 6.5885 28.5734 6.37925 28.5337 6.17666C28.2918 4.94212 29.4205 4.36601 30.0655 6.17666C30.2046 6.56727 30.3175 6.87361 30.4081 7.11966C30.7377 8.01411 30.7736 8.11159 30.7104 8.56342C30.6459 9.02431 29.6087 10.8953 29.0981 11.7732C29.2328 9.36534 28.917 7.9351 28.6684 6.80949ZM30.0654 23.2132C28.0661 25.9786 26.4376 31.2239 25.8733 33.501C26.1472 33.2152 26.45 32.8815 26.778 32.5201C27.8983 31.2857 29.3126 29.7274 30.8716 28.6451C32.8871 27.246 34.7413 24.53 35.7088 22.8017C36.6762 21.0733 39.0141 14.0777 38.2079 13.5015C37.614 13.0771 36.4514 14.484 35.4612 15.6821C35.1073 16.1103 34.7754 16.5119 34.4995 16.7936C33.9451 17.3596 33.4358 18.1559 32.7091 19.2922C32.062 20.3039 31.2426 21.5851 30.0654 23.2132ZM32.9677 8.56341C32.1615 10.0174 30.3879 13.2382 29.743 15.1476C29.098 17.057 28.883 20.3326 28.8562 21.6495C28.9903 21.4511 29.1572 21.2161 29.3443 20.9525C30.2442 19.6851 31.6137 17.7562 32.0809 16.0529C32.6452 13.9954 32.9677 10.3466 32.9677 8.56341ZM36.0312 5.18902C35.9022 5.7816 34.8488 11.2519 34.3382 13.9131C35.3325 12.8157 37.434 10.5222 37.8855 10.1272C38.4498 9.63334 38.611 8.48111 37.6436 8.48111C37.0126 8.48111 37.0333 7.71078 37.0568 6.83245C37.0694 6.36419 37.0828 5.86523 36.9986 5.43593C36.7568 4.2014 36.1925 4.4483 36.0312 5.18902ZM47.7964 16.7625L47.7969 16.7622C48.4859 16.3108 49.0008 15.9734 49.0917 15.8883C49.4274 15.5739 48.2757 15.641 47.5597 15.8883C47.4125 15.9392 47.248 16.0144 47.075 16.0935C46.4068 16.399 45.6109 16.7629 45.1843 16.0087C44.8878 15.4845 44.3381 15.925 44.2543 16.3821C44.2403 16.4586 44.2163 16.6094 44.1848 16.8079L44.1846 16.8089C44.0653 17.5598 43.8374 18.993 43.6273 19.6847C44.4389 18.9623 46.45 17.6447 47.7964 16.7625ZM40.1428 20.0034C39.3366 21.238 38.2079 24.3654 38.2079 24.3654C38.2079 24.3654 40.8684 22.061 41.5133 20.7441C42.1582 19.4273 40.949 18.7689 40.1428 20.0034ZM32.3228 30.6204L24.9058 40.1674C24.9058 40.1674 26.5988 35.2293 28.9368 32.8425C30.0605 31.6953 32.3228 30.6204 32.3228 30.6204ZM28.4531 43.2949C27.721 43.0814 27.5459 42.7861 27.3499 42.4559C27.2438 42.277 27.1315 42.0878 26.9213 41.8958C30.48 42.0919 35.4669 45.1879 35.6281 46.0109C35.7894 46.8339 35.1444 47.7634 34.0158 47.6569C33.3318 47.5924 33.0839 47.2444 32.856 46.9247C32.7079 46.7168 32.5682 46.5208 32.3228 46.4224C32.0072 46.2959 31.7098 46.382 31.4223 46.4654C31.0957 46.56 30.7819 46.6509 30.4685 46.4224C30.2605 46.2707 30.119 45.8603 29.9543 45.3824C29.6724 44.5643 29.3223 43.5485 28.4531 43.2949ZM43.1257 45.5171C43.1257 45.5171 41.8215 46.2858 39.9009 45.764C37.7722 45.1857 36.1543 43.9562 34.4299 42.6457C34.0313 42.3429 33.6271 42.0357 33.2096 41.7312C31.8552 40.7436 28.7755 39.948 27.8081 39.8382C27.8081 39.8382 30.6298 39.5735 32.7259 40.0852C34.3353 40.478 35.4891 41.3036 36.6941 42.1658C37.4795 42.7279 38.2867 43.3054 39.256 43.7888C40.8687 44.593 43.1257 45.5171 43.1257 45.5171ZM37.8909 40.5839C39.1627 41.6042 40.2066 42.4416 41.8358 42.7188C42.2124 42.7829 42.265 42.4561 42.3236 42.092C42.3639 41.8411 42.4072 41.5724 42.5613 41.402C42.7289 41.2166 42.9223 41.1633 43.0856 41.1183C43.2905 41.0618 43.4482 41.0184 43.4482 40.7436C43.4482 40.2497 38.7161 38.7775 35.7894 39.0152C36.605 39.5524 37.2747 40.0897 37.8909 40.5839ZM32.2421 34.4063C31.1117 35.1759 31.6007 37.1223 32.8084 37.1223C34.016 37.1223 41.354 36.8754 43.8515 36.2993C46.3491 35.7231 46.2444 34.3859 43.2066 32.8425C40.1688 31.2992 36.3705 31.3491 32.2421 34.4063ZM48.5271 26.4229C47.3179 26.7521 35.3863 30.2089 35.3863 30.2089C40.4193 23.823 45.2599 24.2452 47.1631 24.4112C47.3939 24.4313 47.5814 24.4477 47.7209 24.4477C49.0108 24.4477 49.7364 26.0937 48.5271 26.4229ZM44.0125 21.8141C44.6755 22.271 45.3011 22.3904 46.5117 22.5548C46.5117 22.5548 49.0915 19.6742 49.3333 19.4273C49.5752 19.1804 49.817 17.9459 48.5271 18.6866C47.2372 19.4273 44.0125 21.8141 44.0125 21.8141ZM51.8325 27.246L42.3195 30.6204C42.6708 30.6204 43.0736 30.6502 43.5124 30.6828C44.953 30.7896 46.7812 30.9251 48.4465 30.1266C50.0045 29.3795 51.2413 28.0416 51.8325 27.246ZM45.5441 38.3568C46.1084 37.6984 48.2693 37.4844 48.5273 37.9453C48.8498 38.5214 47.3985 39.4267 46.6729 39.4267C45.9473 39.4267 44.9798 39.0152 45.5441 38.3568Z" fill="url(#paint0_linear_78_11388)"/>
<path d="M67 9.83014V26.3374H71.4837V17.5404L78.6252 26.3374H82.3925V9.83014H77.9088V18.6271L70.7672 9.83014H67Z" fill="#04A0C9"/>
<path fill-rule="evenodd" clip-rule="evenodd" d="M90.2427 9.83014L83.1012 26.3374H87.7698L89.0312 23.1303H95.8917L97.1532 26.3374H101.914L94.7495 9.83014H90.2427ZM94.5375 19.6874L92.4615 14.4092L90.3854 19.6874H94.5375Z" fill="#04A0C9"/>
<path d="M102.634 9.83014V26.3374H114.929V22.6351H107.21V9.83014H102.634Z" fill="#04A0C9"/>
<path d="M120.421 26.0544C121.515 26.4632 122.701 26.6676 123.98 26.6676C125.475 26.6676 126.807 26.4003 127.978 25.8658C129.165 25.3155 130.151 24.5452 130.937 23.5548L128.025 20.8664C127.501 21.4953 126.923 21.9748 126.291 22.3049C125.675 22.6351 124.982 22.8002 124.211 22.8002C123.549 22.8002 122.94 22.6901 122.385 22.47C121.831 22.2499 121.353 21.9355 120.952 21.5267C120.567 21.1023 120.259 20.5992 120.028 20.0175C119.812 19.4358 119.704 18.7912 119.704 18.0838C119.704 17.3763 119.812 16.7318 120.028 16.1501C120.259 15.5684 120.567 15.0732 120.952 14.6644C121.353 14.2399 121.831 13.9177 122.385 13.6976C122.94 13.4775 123.549 13.3674 124.211 13.3674C124.982 13.3674 125.675 13.5325 126.291 13.8626C126.923 14.1928 127.501 14.6723 128.025 15.3011L130.937 12.6128C130.151 11.6066 129.165 10.8363 127.978 10.3018C126.807 9.76726 125.475 9.5 123.98 9.5C122.701 9.5 121.515 9.71224 120.421 10.1367C119.342 10.5455 118.402 11.135 117.601 11.9053C116.815 12.6757 116.199 13.5875 115.752 14.6408C115.305 15.6784 115.082 16.8261 115.082 18.0838C115.082 19.3415 115.305 20.497 115.752 21.5503C116.199 22.5879 116.815 23.4919 117.601 24.2622C118.402 25.0326 119.342 25.63 120.421 26.0544Z" fill="#04A0C9"/>
<path fill-rule="evenodd" clip-rule="evenodd" d="M141.835 9.83014H137.329L130.187 26.3374H134.856L136.117 23.1303H142.978L144.239 26.3374H149L141.835 9.83014ZM141.623 19.6874L139.547 14.4092L137.471 19.6874H141.623Z" fill="#04A0C9"/>
<path fill-rule="evenodd" clip-rule="evenodd" d="M74.6836 29.5874V40.4073H79.5616C80.8947 40.4073 81.8894 40.1548 82.5459 39.6499C83.2125 39.1449 83.5457 38.4339 83.5457 37.5168C83.5457 36.8985 83.4094 36.3833 83.1367 35.9711C82.864 35.5486 82.4803 35.2343 81.9854 35.0282C81.7914 34.9416 81.582 34.8723 81.3572 34.8204C81.4004 34.803 81.4431 34.7847 81.4855 34.7654C81.95 34.5594 82.3136 34.2554 82.5762 33.8535C82.8489 33.4516 82.9852 32.957 82.9852 32.3696C82.9852 31.4834 82.657 30.7982 82.0005 30.3138C81.3542 29.8295 80.4402 29.5874 79.2586 29.5874H74.6836ZM79.5464 39.4644H75.8046V35.3992H79.5464C80.4755 35.3992 81.1875 35.5641 81.6824 35.8938C82.1773 36.2133 82.4247 36.7233 82.4247 37.4241C82.4247 38.1351 82.1773 38.6555 81.6824 38.9852C81.1875 39.3047 80.4755 39.4644 79.5464 39.4644ZM75.8046 34.4563V30.5302H79.1828C80.0312 30.5302 80.6876 30.6951 81.1522 31.0249C81.6269 31.3443 81.8642 31.8338 81.8642 32.4933C81.8642 33.1425 81.6269 33.6319 81.1522 33.9617C80.6876 34.2914 80.0312 34.4563 79.1828 34.4563H75.8046Z" fill="#3CAF86"/>
<path d="M85.7258 29.5874V40.4073H86.8468V29.5874H85.7258Z" fill="#3CAF86"/>
<path fill-rule="evenodd" clip-rule="evenodd" d="M92.327 40.0981C93.0138 40.366 93.7561 40.5 94.5539 40.5C95.3518 40.5 96.089 40.366 96.7656 40.0981C97.4423 39.8199 98.0281 39.4335 98.5229 38.9388C99.0279 38.4442 99.4167 37.862 99.6894 37.1922C99.9722 36.5224 100.114 35.7908 100.114 34.9973C100.114 34.2039 99.9722 33.4722 99.6894 32.8024C99.4167 32.1326 99.0279 31.5504 98.5229 31.0558C98.0281 30.5611 97.4423 30.1799 96.7656 29.912C96.089 29.6337 95.3518 29.4946 94.5539 29.4946C93.746 29.4946 93.0037 29.6337 92.327 29.912C91.6504 30.1799 91.0596 30.5663 90.5546 31.0712C90.0597 31.5659 89.6709 32.1481 89.3881 32.8179C89.1154 33.4774 88.9791 34.2039 88.9791 34.9973C88.9791 35.7908 89.1154 36.5224 89.3881 37.1922C89.6709 37.8517 90.0597 38.4339 90.5546 38.9388C91.0596 39.4335 91.6504 39.8199 92.327 40.0981ZM96.3112 39.1552C95.7759 39.3716 95.1902 39.4798 94.5539 39.4798C93.9177 39.4798 93.3268 39.3716 92.7815 39.1552C92.2361 38.9285 91.7615 38.6142 91.3575 38.2124C90.9636 37.8002 90.6505 37.321 90.4183 36.7749C90.1961 36.2287 90.085 35.6362 90.085 34.9973C90.085 34.3481 90.1961 33.7556 90.4183 33.2198C90.6505 32.6736 90.9636 32.1996 91.3575 31.7977C91.7615 31.3855 92.2361 31.0712 92.7815 30.8548C93.3268 30.6281 93.9177 30.5148 94.5539 30.5148C95.1902 30.5148 95.7759 30.6281 96.3112 30.8548C96.8565 31.0712 97.3262 31.3855 97.72 31.7977C98.124 32.1996 98.4371 32.6736 98.6593 33.2198C98.8814 33.7556 98.9925 34.3481 98.9925 34.9973C98.9925 35.6465 98.8814 36.2442 98.6593 36.7903C98.4371 37.3262 98.124 37.8002 97.72 38.2124C97.3262 38.6142 96.8565 38.9285 96.3112 39.1552Z" fill="#3CAF86"/>
<path d="M104.16 30.5766V40.4073H105.281V30.5766H109.008V29.5874H100.433V30.5766H104.16Z" fill="#3CAF86"/>
<path d="M111.541 35.3992V39.418H117.918V40.4073H110.42V29.5874H117.691V30.5766H111.541V34.4254H117.025V35.3992H111.541Z" fill="#3CAF86"/>
<path d="M122.539 40.0981C123.215 40.366 123.953 40.5 124.75 40.5C125.528 40.5 126.255 40.366 126.932 40.0981C127.609 39.8302 128.179 39.4335 128.644 38.9079L127.932 38.1814C127.497 38.6348 127.018 38.9646 126.493 39.1707C125.967 39.3768 125.402 39.4798 124.796 39.4798C124.16 39.4798 123.569 39.3716 123.023 39.1552C122.478 38.9285 122.003 38.6142 121.599 38.2124C121.195 37.8002 120.877 37.3262 120.645 36.7903C120.423 36.2442 120.312 35.6465 120.312 34.9973C120.312 34.3481 120.423 33.7556 120.645 33.2198C120.877 32.6736 121.195 32.1996 121.599 31.7977C122.003 31.3855 122.478 31.0712 123.023 30.8548C123.569 30.6281 124.16 30.5148 124.796 30.5148C125.402 30.5148 125.967 30.6178 126.493 30.8239C127.018 31.0197 127.497 31.3443 127.932 31.7977L128.644 31.0712C128.179 30.5457 127.609 30.1541 126.932 29.8965C126.255 29.6286 125.533 29.4946 124.766 29.4946C123.968 29.4946 123.23 29.6337 122.554 29.912C121.877 30.1799 121.286 30.5611 120.781 31.0558C120.287 31.5504 119.898 32.1326 119.615 32.8024C119.342 33.4722 119.206 34.2039 119.206 34.9973C119.206 35.7908 119.342 36.5224 119.615 37.1922C119.898 37.862 120.287 38.4442 120.781 38.9388C121.276 39.4335 121.862 39.8199 122.539 40.0981Z" fill="#3CAF86"/>
<path d="M139.517 29.5874H138.411V34.4099H131.776V29.5874H130.655V40.4073H131.776V35.4146H138.411V40.4073H139.517V29.5874Z" fill="#3CAF86"/>
<defs>
<linearGradient id="paint0_linear_78_11388" x1="3.2134e-07" y1="22.4747" x2="55.9494" y2="22.4747" gradientUnits="userSpaceOnUse">
<stop stop-color="#3CAF85"/>
<stop offset="1" stop-color="#04A1C3"/>
</linearGradient>
</defs>
</svg>
