<?xml version="1.0" encoding="UTF-8" standalone="no"?><svg width="24" height="25" viewBox="0 0 24 25" fill="none" xmlns="http://www.w3.org/2000/svg">
<path d="M12 22.2715C6.47715 22.2715 2 17.7943 2 12.2715C2 6.74863 6.47715 2.27148 12 2.27148C17.5228 2.27148 22 6.74863 22 12.2715C22 17.7943 17.5228 22.2715 12 22.2715ZM9.71002 19.9389C8.74743 17.8974 8.15732 15.6457 8.02731 13.2715H4.06189C4.458 16.448 6.71639 19.0462 9.71002 19.9389ZM10.0307 13.2715C10.1811 15.7103 10.8778 18.0012 12 20.0235C13.1222 18.0012 13.8189 15.7103 13.9693 13.2715H10.0307ZM19.9381 13.2715H15.9727C15.8427 15.6457 15.2526 17.8974 14.29 19.9389C17.2836 19.0462 19.542 16.448 19.9381 13.2715ZM4.06189 11.2715H8.02731C8.15732 8.89725 8.74743 6.64555 9.71002 4.60404C6.71639 5.49681 4.458 8.09498 4.06189 11.2715ZM10.0307 11.2715H13.9693C13.8189 8.8327 13.1222 6.54173 12 4.51947C10.8778 6.54173 10.1811 8.8327 10.0307 11.2715ZM14.29 4.60404C15.2526 6.64555 15.8427 8.89725 15.9727 11.2715H19.9381C19.542 8.09498 17.2836 5.49681 14.29 4.60404Z" fill="#3CAF85"/>
</svg>
