<?xml version="1.0" encoding="UTF-8" standalone="no"?><svg width="80" height="89" viewBox="0 0 80 89" fill="none" xmlns="http://www.w3.org/2000/svg">
<path fill-rule="evenodd" clip-rule="evenodd" d="M21.531 45.6885C25.169 46.1427 28.2259 45.4993 29.2996 45.1208C29.7101 46.7925 31.2891 50.1358 33.5629 50.609C35.8366 51.0821 36.4998 49.4735 36.4998 49.4735C36.4998 49.4735 37.3525 50.7982 38.2999 51.366C39.1232 51.8593 39.231 52.2813 39.4317 53.0665L39.4317 53.0667L39.4319 53.0673C39.4621 53.1854 39.4943 53.3117 39.5315 53.4477C39.8157 54.4886 41.0473 55.3402 41.7105 55.3402C42.3737 55.3402 43.0369 55.3402 44.079 55.8133C44.2183 55.8765 44.3577 55.9449 44.4986 56.014C45.4117 56.4618 46.3913 56.9422 47.8686 56.2864C48.3022 56.0939 48.6317 55.8892 48.9458 55.6941C49.8671 55.1216 50.6563 54.6313 53.553 54.7724C57.4373 54.9617 61.7953 53.5423 62.3638 51.7445C62.8075 50.3409 60.5207 49.0035 59.2361 48.4707C59.4231 48.5118 59.8923 48.517 60.8479 48.338C62.3638 48.0541 64.4481 46.1616 65.1112 45.31C65.3087 45.0564 65.6659 44.8531 66.0751 44.6203C67.0399 44.0711 68.2941 43.3573 68.4271 41.4304C68.5787 39.2352 65.3649 38.3078 63.5964 38.1186C63.5929 38.0901 63.5877 38.0572 63.5819 38.0202L63.5818 38.0198C63.536 37.7285 63.4499 37.1812 63.7859 36.51C64.0977 35.8872 64.4091 35.8383 65.0177 35.7427C65.3338 35.693 65.73 35.6308 66.2481 35.4691C67.2415 35.1591 68.0722 34.1581 69.1668 32.8391C69.7424 32.1455 70.391 31.364 71.1746 30.5487C73.4484 28.1831 70.6062 26.196 67.6692 25.7228C65.3197 25.3443 66.186 22.3479 66.9123 20.6131C68.0492 17.3013 65.206 14.7464 63.6901 15.5034C62.8467 15.9246 62.1091 15.773 61.3334 15.6135C60.7149 15.4864 60.0721 15.3543 59.3321 15.5034C56.1074 16.1534 53.9534 18.5187 52.3335 20.2974C52.2654 20.3722 52.1982 20.4459 52.1319 20.5185C52.2929 19.9826 52.4944 19.332 52.7161 18.6163C53.6686 15.5415 54.9928 11.2665 55.0688 9.73137C55.1625 7.83889 53.2382 7.30268 52.0382 7.17651C52.0382 6.64031 51.9505 4.95186 51.1855 2.72918C50.4331 0.543153 50.0259 0.625775 48.9664 0.840735C48.5583 0.923526 48.0535 1.02595 47.3949 1.02595C45.5001 1.02595 44.0158 4.30625 43.5106 5.9464C43.441 5.82211 43.3637 5.68163 43.2796 5.52897L43.2795 5.52874C42.6385 4.36426 41.6074 2.49137 40.6694 1.68831C39.343 0.552826 37.265 -0.298797 36.5008 0.742077C36.1782 1.18151 35.9191 1.67537 35.6477 2.19275C35.0424 3.3465 34.3758 4.61728 32.806 5.66253C30.987 6.87372 31.2891 10.7722 31.4786 12.6647C31.2259 12.5385 30.4933 11.8509 29.5838 10.1099C29.4136 9.7841 29.2583 9.47318 29.1119 9.17996C28.2799 7.5142 27.7332 6.41952 26.3637 6.41952C24.6804 6.41952 23.7132 10.2303 23.1559 12.4258L23.1557 12.4267C23.1175 12.5773 23.0812 12.7203 23.0467 12.854C22.8256 12.854 22.1372 12.2862 21.1519 10.7722C19.9203 8.87974 17.6465 6.70339 14.9938 7.08188C12.3411 7.46038 11.5257 12.4432 12.1516 16.0712C12.6025 18.6844 14.4355 20.6581 15.7584 22.0824L15.7585 22.0826L15.759 22.0831C15.9601 22.2996 16.1494 22.5034 16.3202 22.6949C14.046 21.2755 7.79462 20.5185 6.84665 21.2755C5.89867 22.0325 5.99179 23.7357 7.03408 27.5207C7.81146 30.3436 9.58372 31.5765 10.6134 32.2928C10.6882 32.3448 10.7591 32.3942 10.8254 32.4411C8.99371 32.3781 5.6336 33.1792 6.84628 36.8885C8.05895 40.5977 13.2254 41.9035 15.6571 42.0928C15.6571 44.8369 17.8929 45.2343 21.531 45.6885ZM27.2162 40.9573C26.4899 40.6419 24.4688 40.1436 22.195 40.6735C19.3528 41.3358 17.837 41.3358 17.3633 40.6735C17.1228 40.3372 16.6381 40.1716 16.1819 40.0158C15.7396 39.8648 15.3242 39.7229 15.1842 39.4434C14.9 38.8756 17.4559 38.2133 19.5423 38.2132C21.6266 38.2132 25.9845 38.3079 27.2162 40.9573ZM13.7618 27.8046C15.0502 28.8644 20.1094 33.6082 22.4779 35.8476C19.92 36.0369 12.1511 35.3745 11.6774 34.9014C11.3954 34.6197 11.9192 34.4051 12.6692 34.0979C13.1791 33.889 13.7934 33.6374 14.3301 33.2928C15.6565 32.4411 14.4264 31.0218 12.3421 30.3594C10.2578 29.697 9.68894 28.0884 10.446 27.2368C11.2031 26.3852 12.1512 26.4798 13.7618 27.8046ZM20.4887 30.7379C20.4887 30.7379 13.6521 25.2376 13.5737 24.682C13.4953 24.1264 14.9941 24.1142 16.6994 25.2497C18.4047 26.3852 20.4887 30.7379 20.4887 30.7379ZM23.6162 33.1035C24.5534 35.0538 27.0577 37.347 28.9522 39.0819L28.9525 39.0822C29.3558 39.4516 29.7316 39.7956 30.0586 40.1057C29.3368 34.7696 25.9739 30.8623 23.4081 27.8812C22.607 26.9504 21.8836 26.1099 21.3426 25.3443C19.5265 22.7747 17.2873 17.73 16.2181 15.3212L16.218 15.321L16.2179 15.3207C15.9486 14.714 15.7535 14.2745 15.6582 14.0841C15.1845 13.1378 14.6162 13.4217 14.4267 14.4626C14.2372 15.5034 14.6159 16.6389 15.2794 17.4905C17.1413 19.8805 18.1525 21.7533 19.3333 23.9404C19.8479 24.8935 20.3947 25.9064 21.0582 27.0476C22.0609 28.7724 22.3758 29.7448 22.6962 30.7341C22.9206 31.4273 23.1478 32.1289 23.6162 33.1035ZM27.6902 29.4132C26.3007 27.8677 23.5214 24.4927 22.1953 22.3164L22.1106 22.1774C20.7156 19.8896 17.1004 13.9603 18.1212 12.5701C18.7086 11.7701 19.367 12.514 20.1461 13.3942C20.7492 14.0757 21.4246 14.8388 22.1953 15.0304C22.6754 15.1497 23.1824 15.1094 23.6622 15.0713C24.4784 15.0064 25.2156 14.9478 25.6061 15.6927C26.648 17.6798 27.6902 29.4132 27.6902 29.4132ZM29.0164 23.7357L32.9954 43.5121C32.9954 43.1199 33.0194 42.5196 33.049 41.7775V41.7773L33.049 41.7762L33.0491 41.7749C33.1624 38.9357 33.3585 34.0231 32.6165 30.7379C31.7782 27.0266 30.3427 24.9658 29.0164 23.7357ZM35.4587 33.5766C35.4587 33.5766 34.7009 27.5775 32.8061 24.7766C30.4376 21.2755 29.0165 18.2475 28.5428 16.7335C28.0691 15.2196 27.4057 11.0561 28.5428 12.2862C29.4601 13.2786 29.8042 14.7876 30.1226 16.1841C30.4049 17.4219 30.6669 18.5713 31.2902 19.1938C32.6165 20.5185 34.0376 20.5185 34.3219 18.9099C34.5492 17.623 34.0376 11.75 33.7534 8.97437C34.1213 9.85621 34.3463 11.0805 34.5783 12.3425C34.9436 14.3304 35.3262 16.4119 36.3114 17.3959C36.9086 17.9923 37.764 18.4999 38.2061 18.7206L37.6378 28.9401C36.2064 29.9833 35.4587 33.5766 35.4587 33.5766ZM36.217 8.40661C36.217 10.072 38.017 15.9765 38.017 15.9765C38.017 15.9765 38.2061 9.16361 37.7324 7.74425C37.2587 6.32489 36.217 6.32488 36.217 8.40661ZM39.8803 7.5256C39.823 7.27153 39.7687 7.03095 39.722 6.79802C39.4378 5.37865 40.7642 4.71629 41.5221 6.79802C41.6856 7.24712 41.8182 7.59933 41.9248 7.88221C42.312 8.91058 42.3542 9.02264 42.2799 9.54212C42.2041 10.072 40.9853 12.2231 40.3853 13.2325C40.5436 10.4641 40.1724 8.81974 39.8803 7.5256ZM41.522 26.3852C39.1725 29.5646 37.2587 35.5953 36.5956 38.2132C36.9174 37.8846 37.2733 37.501 37.6588 37.0854C38.9753 35.6662 40.6374 33.8747 42.4694 32.6304C44.8379 31.0218 47.0169 27.8992 48.1538 25.9121C49.2907 23.925 52.0382 15.8819 51.0908 15.2196C50.3928 14.7316 49.0265 16.3491 47.8629 17.7266C47.4471 18.2189 47.057 18.6806 46.7327 19.0045C46.0812 19.6552 45.4827 20.5708 44.6287 21.8771C43.8683 23.0403 42.9053 24.5133 41.522 26.3852ZM44.9327 9.54211C43.9853 11.2138 41.901 14.9168 41.1431 17.112C40.3851 19.3073 40.1325 23.0734 40.1009 24.5873C40.2586 24.3593 40.4547 24.0891 40.6746 23.786C41.7321 22.3289 43.3415 20.1112 43.8905 18.1529C44.5537 15.7873 44.9327 11.5923 44.9327 9.54211ZM48.5328 5.66253C48.3812 6.34382 47.1433 12.6332 46.5432 15.6927C47.7117 14.431 50.1813 11.7942 50.7118 11.34C51.375 10.7722 51.5645 9.44749 50.4276 9.44749C49.686 9.44749 49.7103 8.56183 49.738 7.552C49.7528 7.01363 49.7685 6.43997 49.6697 5.9464C49.3854 4.52704 48.7223 4.81091 48.5328 5.66253ZM62.3586 18.9689L62.3588 18.9688L62.3593 18.9684C63.169 18.4494 63.7741 18.0615 63.881 17.9637C64.2755 17.6022 62.922 17.6793 62.0806 17.9636C61.9075 18.0221 61.7143 18.1086 61.5109 18.1995C60.7257 18.5508 59.7904 18.9692 59.2891 18.1021C58.9407 17.4994 58.2948 18.0058 58.1963 18.5314C58.1798 18.6194 58.1516 18.7927 58.1145 19.021L58.1143 19.0221C57.9741 19.8854 57.7063 21.5331 57.4593 22.3284C58.4132 21.4979 60.7763 19.9831 62.3586 18.9689ZM53.3645 22.6949C52.4171 24.1142 51.0908 27.7099 51.0908 27.7099C51.0908 27.7099 54.2172 25.0605 54.9751 23.5465C55.733 22.0325 54.3119 21.2755 53.3645 22.6949ZM44.1748 34.9014L35.4587 45.8778C35.4587 45.8778 37.4482 40.2003 40.1957 37.4562C41.5163 36.1372 44.1748 34.9014 44.1748 34.9014ZM39.6272 49.4735C38.767 49.228 38.5611 48.8885 38.3309 48.5089C38.2061 48.3031 38.0742 48.0856 37.8272 47.8649C42.0092 48.0904 47.8696 51.6498 48.0591 52.5961C48.2486 53.5423 47.4907 54.611 46.1643 54.4885C45.3605 54.4143 45.0692 54.0143 44.8014 53.6467C44.6273 53.4076 44.4632 53.1823 44.1748 53.0692C43.8039 52.9237 43.4544 53.0228 43.1165 53.1186C42.7328 53.2273 42.364 53.3319 41.9957 53.0692C41.7512 52.8947 41.585 52.4229 41.3915 51.8735C41.0601 50.9329 40.6488 49.765 39.6272 49.4735ZM56.8699 52.0284C56.8699 52.0284 55.3373 52.9121 53.0803 52.3122C50.5788 51.6474 48.6774 50.2338 46.651 48.7271C46.1826 48.3789 45.7076 48.0257 45.2169 47.6756C43.6253 46.5401 40.0062 45.6254 38.8693 45.4993C38.8693 45.4993 42.1852 45.1949 44.6484 45.7832C46.5397 46.2348 47.8957 47.1841 49.3117 48.1753C50.2348 48.8215 51.1834 49.4855 52.3224 50.0413C54.2176 50.9659 56.8699 52.0284 56.8699 52.0284ZM50.7182 46.3566C52.2127 47.5296 53.4395 48.4924 55.3541 48.8111C55.7966 48.8848 55.8584 48.509 55.9273 48.0905C55.9748 47.802 56.0256 47.4931 56.2067 47.2971C56.4036 47.084 56.6309 47.0227 56.8228 46.971C57.0636 46.906 57.2489 46.8561 57.2489 46.5401C57.2489 45.9724 51.688 44.2797 48.2486 44.553C49.2071 45.1707 49.9941 45.7883 50.7182 46.3566ZM44.08 39.2541C42.7516 40.1389 43.3262 42.3767 44.7454 42.3767C46.1646 42.3767 54.7878 42.0929 57.7229 41.4305C60.6579 40.7681 60.5349 39.2306 56.965 37.4562C53.395 35.6818 48.9315 35.7392 44.08 39.2541ZM63.2175 30.0755C61.7964 30.454 47.7749 34.4282 47.7749 34.4282C53.6894 27.0863 59.378 27.5717 61.6145 27.7626C61.8857 27.7857 62.1061 27.8045 62.2701 27.8045C63.7859 27.8045 64.6386 29.697 63.2175 30.0755ZM57.912 24.7766C58.6912 25.302 59.4264 25.4392 60.849 25.6282C60.849 25.6282 63.8807 22.3164 64.1649 22.0325C64.4491 21.7486 64.7333 20.3293 63.2175 21.1809C61.7016 22.0325 57.912 24.7766 57.912 24.7766ZM67.1018 31.0218L55.9225 34.9014C56.3354 34.9014 56.8087 34.9357 57.3243 34.9731C59.0173 35.0959 61.1657 35.2517 63.1227 34.3336C64.9536 33.4747 66.4071 31.9365 67.1018 31.0218ZM59.712 43.796C60.3751 43.0391 62.9145 42.793 63.2177 43.3229C63.5966 43.9853 61.8911 45.0262 61.0385 45.0262C60.1858 45.0262 59.0488 44.553 59.712 43.796Z" fill="white"/>
<path d="M0 59.6386V75.403H4.37433V67.0019L11.3417 75.403H15.017V59.6386H10.6427V68.0397L3.67534 59.6386H0Z" fill="white"/>
<path fill-rule="evenodd" clip-rule="evenodd" d="M22.6758 59.6386L15.7085 75.403H20.2632L21.4939 72.3402H28.187L29.4177 75.403H34.0626L27.0727 59.6386H22.6758ZM26.8659 69.0522L24.8404 64.0116L22.815 69.0522H26.8659Z" fill="white"/>
<path d="M34.7646 59.6386V75.403H46.7602V71.8673H39.2291V59.6386H34.7646Z" fill="white"/>
<path d="M52.1179 75.1328C53.1851 75.5231 54.3426 75.7183 55.5903 75.7183C57.0484 75.7183 58.3486 75.4631 59.4911 74.9526C60.6486 74.4271 61.6106 73.6915 62.3772 72.7456L59.5362 70.1782C59.0251 70.7788 58.4614 71.2367 57.8451 71.552C57.2438 71.8673 56.5673 72.0249 55.8157 72.0249C55.1694 72.0249 54.5756 71.9198 54.0344 71.7096C53.4933 71.4995 53.0273 71.1992 52.6365 70.8088C52.2607 70.4035 51.96 69.923 51.7345 69.3675C51.5241 68.812 51.4189 68.1964 51.4189 67.5208C51.4189 66.8452 51.5241 66.2296 51.7345 65.6741C51.96 65.1186 52.2607 64.6457 52.6365 64.2553C53.0273 63.85 53.4933 63.5422 54.0344 63.332C54.5756 63.1218 55.1694 63.0167 55.8157 63.0167C56.5673 63.0167 57.2438 63.1744 57.8451 63.4897C58.4614 63.8049 59.0251 64.2629 59.5362 64.8634L62.3772 62.2961C61.6106 61.3352 60.6486 60.5995 59.4911 60.089C58.3486 59.5786 57.0484 59.3233 55.5903 59.3233C54.3426 59.3233 53.1851 59.526 52.1179 59.9314C51.0656 60.3218 50.1486 60.8848 49.367 61.6204C48.6003 62.3561 47.9991 63.2269 47.5631 64.2328C47.1272 65.2237 46.9092 66.3197 46.9092 67.5208C46.9092 68.7219 47.1272 69.8254 47.5631 70.8313C47.9991 71.8223 48.6003 72.6855 49.367 73.4212C50.1486 74.1569 51.0656 74.7274 52.1179 75.1328Z" fill="white"/>
<path fill-rule="evenodd" clip-rule="evenodd" d="M73.0101 59.6386H68.6132L61.6458 75.403H66.2006L67.4312 72.3402H74.1244L75.3551 75.403H80L73.0101 59.6386ZM72.8032 69.0522L70.7778 64.0116L68.7524 69.0522H72.8032Z" fill="white"/>
<path fill-rule="evenodd" clip-rule="evenodd" d="M7.49621 78.5067V88.8396H12.2552C13.5558 88.8396 14.5263 88.5985 15.1667 88.1163C15.817 87.6341 16.1422 86.9551 16.1422 86.0793C16.1422 85.4888 16.0092 84.9968 15.7431 84.6031C15.4771 84.1997 15.1027 83.8995 14.6199 83.7027C14.4306 83.62 14.2263 83.5538 14.0071 83.5042C14.0491 83.4876 14.0909 83.4701 14.1322 83.4517C14.5854 83.2549 14.9401 82.9646 15.1963 82.5808C15.4623 82.197 15.5953 81.7247 15.5953 81.1637C15.5953 80.3174 15.2751 79.663 14.6347 79.2005C14.0041 78.7379 13.1124 78.5067 11.9596 78.5067H7.49621ZM12.2404 87.9392H8.58988V84.057H12.2404C13.1469 84.057 13.8415 84.2144 14.3243 84.5293C14.8071 84.8344 15.0485 85.3215 15.0485 85.9907C15.0485 86.6697 14.8071 87.1667 14.3243 87.4816C13.8415 87.7867 13.1469 87.9392 12.2404 87.9392ZM8.58988 83.1565V79.4071H11.8857C12.7133 79.4071 13.3538 79.5646 13.807 79.8795C14.2701 80.1846 14.5017 80.652 14.5017 81.2818C14.5017 81.9018 14.2701 82.3692 13.807 82.6842C13.3538 82.9991 12.7133 83.1565 11.8857 83.1565H8.58988Z" fill="white"/>
<path d="M18.269 78.5067V88.8396H19.3627V78.5067H18.269Z" fill="white"/>
<path fill-rule="evenodd" clip-rule="evenodd" d="M24.7093 88.5444C25.3793 88.8003 26.1035 88.9282 26.8819 88.9282C27.6602 88.9282 28.3795 88.8003 29.0397 88.5444C29.6998 88.2787 30.2713 87.9097 30.7541 87.4373C31.2467 86.9649 31.6261 86.4089 31.8921 85.7693C32.168 85.1296 32.3059 84.4309 32.3059 83.6732C32.3059 82.9154 32.168 82.2167 31.8921 81.577C31.6261 80.9374 31.2467 80.3814 30.7541 79.909C30.2713 79.4366 29.6998 79.0725 29.0397 78.8167C28.3795 78.551 27.6602 78.4181 26.8819 78.4181C26.0936 78.4181 25.3694 78.551 24.7093 78.8167C24.0491 79.0725 23.4727 79.4416 22.9801 79.9238C22.4973 80.3961 22.118 80.9521 21.8421 81.5918C21.576 82.2216 21.443 82.9154 21.443 83.6732C21.443 84.4309 21.576 85.1296 21.8421 85.7693C22.118 86.3991 22.4973 86.9551 22.9801 87.4373C23.4727 87.9097 24.0491 88.2787 24.7093 88.5444ZM28.5963 87.644C28.0741 87.8506 27.5026 87.9539 26.8819 87.9539C26.2611 87.9539 25.6847 87.8506 25.1527 87.644C24.6206 87.4275 24.1575 87.1273 23.7634 86.7435C23.3791 86.3499 23.0737 85.8923 22.8471 85.3707C22.6303 84.8492 22.5219 84.2833 22.5219 83.6732C22.5219 83.0532 22.6303 82.4873 22.8471 81.9756C23.0737 81.454 23.3791 81.0014 23.7634 80.6176C24.1575 80.2239 24.6206 79.9238 25.1527 79.7171C25.6847 79.5006 26.2611 79.3924 26.8819 79.3924C27.5026 79.3924 28.0741 79.5006 28.5963 79.7171C29.1283 79.9238 29.5865 80.2239 29.9708 80.6176C30.3649 81.0014 30.6703 81.454 30.8871 81.9756C31.1039 82.4873 31.2122 83.0532 31.2122 83.6732C31.2122 84.2931 31.1039 84.8639 30.8871 85.3855C30.6703 85.8972 30.3649 86.3499 29.9708 86.7435C29.5865 87.1273 29.1283 87.4275 28.5963 87.644Z" fill="white"/>
<path d="M36.2535 79.4514V88.8396H37.3472V79.4514H40.9829V78.5067H32.6178V79.4514H36.2535Z" fill="white"/>
<path d="M43.4543 84.057V87.8949H49.6765V88.8396H42.3607V78.5067H49.4548V79.4514H43.4543V83.127H48.8045V84.057H43.4543Z" fill="white"/>
<path d="M54.1841 88.5444C54.8442 88.8003 55.5635 88.9282 56.3419 88.9282C57.1006 88.9282 57.81 88.8003 58.4701 88.5444C59.1303 88.2885 59.687 87.9097 60.1402 87.4078L59.4456 86.714C59.0219 87.147 58.5539 87.4619 58.0415 87.6587C57.5292 87.8555 56.9774 87.9539 56.3862 87.9539C55.7655 87.9539 55.1891 87.8506 54.657 87.644C54.125 87.4275 53.6619 87.1273 53.2678 86.7435C52.8737 86.3499 52.5633 85.8972 52.3367 85.3855C52.1199 84.8639 52.0115 84.2931 52.0115 83.6732C52.0115 83.0532 52.1199 82.4873 52.3367 81.9756C52.5633 81.454 52.8737 81.0014 53.2678 80.6176C53.6619 80.2239 54.125 79.9238 54.657 79.7171C55.1891 79.5006 55.7655 79.3924 56.3862 79.3924C56.9774 79.3924 57.5292 79.4908 58.0415 79.6876C58.5539 79.8746 59.0219 80.1846 59.4456 80.6176L60.1402 79.9238C59.687 79.4219 59.1303 79.0479 58.4701 78.8019C57.81 78.546 57.1055 78.4181 56.3567 78.4181C55.5783 78.4181 54.859 78.551 54.1989 78.8167C53.5387 79.0725 52.9623 79.4366 52.4697 79.909C51.9869 80.3814 51.6075 80.9374 51.3317 81.577C51.0656 82.2167 50.9326 82.9154 50.9326 83.6732C50.9326 84.4309 51.0656 85.1296 51.3317 85.7693C51.6075 86.4089 51.9869 86.9649 52.4697 87.4373C52.9525 87.9097 53.524 88.2787 54.1841 88.5444Z" fill="white"/>
<path d="M70.7481 78.5067H69.6693V83.1122H63.1959V78.5067H62.1022V88.8396H63.1959V84.0717H69.6693V88.8396H70.7481V78.5067Z" fill="white"/>
</svg>
