<?xml version="1.0" encoding="UTF-8" standalone="no" ?>
<svg
  width="557"
  height="487"
  viewBox="0 0 557 487"
  fill="none"
  xmlns="http://www.w3.org/2000/svg"
>
<path
    fill-rule="evenodd"
    clip-rule="evenodd"
    d="M129.842 392.61C160.633 396.536 186.507 390.974 195.595 387.702C199.069 402.153 212.433 431.055 231.678 435.145C250.923 439.235 256.536 425.329 256.536 425.329C256.536 425.329 263.753 436.781 271.772 441.689C278.74 445.954 279.653 449.601 281.351 456.389L281.352 456.391L281.353 456.396C281.609 457.417 281.882 458.509 282.196 459.684C284.602 468.682 295.026 476.044 300.639 476.044C306.252 476.044 311.865 476.044 320.686 480.134C321.865 480.681 323.044 481.271 324.237 481.869C331.965 485.74 340.257 489.893 352.76 484.224C356.43 482.56 359.219 480.79 361.878 479.103C369.675 474.155 376.355 469.916 400.873 471.136C433.749 472.772 470.635 460.502 475.446 444.961C479.202 432.828 459.847 421.266 448.974 416.661C450.556 417.016 454.528 417.06 462.616 415.513C475.446 413.059 493.087 396.7 498.7 389.338C500.372 387.146 503.395 385.388 506.858 383.375C515.024 378.628 525.639 372.458 526.766 355.801C528.049 336.823 500.847 328.807 485.879 327.171C485.849 326.925 485.805 326.641 485.756 326.321L485.755 326.317C485.367 323.799 484.639 319.068 487.483 313.266C490.122 307.881 492.757 307.459 497.909 306.633C500.584 306.204 503.938 305.666 508.323 304.268C516.731 301.587 523.761 292.935 533.026 281.533C537.898 275.537 543.387 268.78 550.02 261.733C569.265 241.283 545.209 224.105 520.351 220.016C500.464 216.744 507.797 190.841 513.945 175.844C523.567 147.215 499.502 125.13 486.672 131.673C479.534 135.314 473.291 134.004 466.725 132.625C461.49 131.526 456.05 130.384 449.786 131.673C422.493 137.292 404.261 157.739 390.551 173.115C389.974 173.761 389.405 174.399 388.844 175.026C390.207 170.394 391.913 164.769 393.789 158.583C401.851 132.003 413.059 95.0473 413.702 81.7764C414.495 65.4168 398.208 60.7815 388.051 59.6909C388.051 55.0556 387.309 40.4598 380.834 21.2457C374.466 2.34845 371.02 3.06269 362.052 4.92092C358.598 5.63661 354.325 6.522 348.751 6.522C332.714 6.522 320.151 34.8787 315.874 49.0571C315.286 47.9827 314.631 46.7683 313.92 45.4486L313.919 45.4466C308.493 35.3802 299.766 19.1899 291.827 12.2479C280.601 2.43207 263.013 -4.92982 256.545 4.06806C253.814 7.86679 251.621 12.1359 249.324 16.6085C244.201 26.5821 238.559 37.5675 225.272 46.6032C209.876 57.0733 212.433 90.7742 214.037 107.134C211.899 106.043 205.698 100.099 198 85.0483C196.559 82.2323 195.245 79.5446 194.005 77.0098C186.964 62.61 182.336 53.147 170.745 53.147C156.498 53.147 148.311 86.0895 143.595 105.069L143.593 105.077C143.27 106.379 142.962 107.615 142.671 108.77C140.8 108.77 134.973 103.862 126.633 90.7742C116.209 74.4145 96.9642 55.6009 74.5119 58.8728C52.0596 62.1448 45.1581 105.219 50.4558 136.581C54.2718 159.171 69.7864 176.233 80.9831 188.546L80.9845 188.547L80.9883 188.551C82.6902 190.423 84.2923 192.185 85.7383 193.84C66.4896 181.57 13.5787 175.026 5.55516 181.57C-2.46842 188.114 -1.68024 202.838 7.14162 235.557C13.7212 259.96 28.7215 270.618 37.4366 276.81C38.0696 277.26 38.6694 277.686 39.2305 278.092C23.7277 277.547 -4.7119 284.472 5.55202 316.537C15.8159 348.602 59.5445 359.891 80.1258 361.526C80.1258 385.248 99.0498 388.684 129.842 392.61ZM177.961 351.711C171.813 348.984 154.707 344.676 135.462 349.257C111.406 354.983 98.576 354.983 94.5667 349.257C92.5311 346.35 88.4287 344.919 84.568 343.572C80.8244 342.266 77.308 341.039 76.1237 338.623C73.7181 333.715 95.3503 327.99 113.01 327.99C130.651 327.989 167.536 328.807 177.961 351.711ZM64.0841 238.011C74.9895 247.173 117.809 288.181 137.856 307.54C116.206 309.176 50.4515 303.45 46.4422 299.36C44.0553 296.925 48.4891 295.07 54.837 292.414C59.152 290.609 64.3516 288.433 68.8945 285.454C80.1207 278.092 69.7093 265.823 52.0682 260.097C34.4271 254.371 29.612 240.465 36.0198 233.103C42.4276 225.741 50.4523 226.559 64.0841 238.011ZM121.02 263.369C121.02 263.369 63.156 215.821 62.4924 211.018C61.8287 206.215 74.5144 206.11 88.948 215.926C103.382 225.742 121.02 263.369 121.02 263.369ZM147.491 283.818C155.424 300.677 176.619 320.501 192.654 335.499L192.656 335.501C196.071 338.694 199.251 341.669 202.019 344.349C195.909 298.221 167.446 264.444 145.73 238.674C138.949 230.627 132.826 223.361 128.247 216.744C112.876 194.53 93.9234 150.921 84.8739 130.098L84.8723 130.094C82.5927 124.849 80.9417 121.05 80.1349 119.404C76.1255 111.224 71.3157 113.678 69.7119 122.676C68.1082 131.673 71.3131 141.489 76.9288 148.851C92.6883 169.511 101.247 185.701 111.241 204.607C115.596 212.846 120.225 221.602 125.84 231.467C134.327 246.378 136.992 254.783 139.704 263.336C141.603 269.328 143.526 275.393 147.491 283.818ZM181.973 251.917C170.212 238.557 146.689 209.382 135.465 190.568L134.748 189.367C122.941 169.59 92.342 118.334 100.982 106.316C105.953 99.4003 111.526 105.831 118.12 113.44C123.225 119.331 128.941 125.928 135.465 127.584C139.528 128.615 143.819 128.267 147.88 127.938C154.789 127.377 161.028 126.871 164.333 133.309C173.151 150.487 181.973 251.917 181.973 251.917ZM193.197 202.838L226.876 373.796C226.876 370.406 227.078 365.216 227.329 358.801L227.329 358.789L227.33 358.778C228.289 334.235 229.949 291.768 223.668 263.368C216.573 231.286 204.423 213.472 193.197 202.838ZM247.724 287.908C247.724 287.908 241.311 236.048 225.273 211.836C205.227 181.57 193.199 155.395 189.189 142.307C185.18 129.219 179.565 93.2282 189.189 103.862C196.953 112.44 199.866 125.486 202.56 137.557C204.949 148.258 207.167 158.194 212.443 163.575C223.669 175.026 235.697 175.026 238.102 161.121C240.027 149.996 235.697 99.2267 233.291 75.2325C236.405 82.8557 238.309 93.4389 240.272 104.348C243.365 121.533 246.603 139.527 254.942 148.033C259.996 153.189 267.236 157.576 270.978 159.485L266.168 247.827C254.053 256.846 247.724 287.908 247.724 287.908ZM254.142 70.3245C254.142 84.721 269.378 135.763 269.378 135.763C269.378 135.763 270.978 76.8684 266.969 64.5987C262.96 52.329 254.142 52.3289 254.142 70.3245ZM285.149 62.7086C284.663 60.5122 284.204 58.4326 283.809 56.419C281.403 44.1492 292.629 38.4234 299.044 56.419C300.428 60.3012 301.551 63.3459 302.452 65.7913C305.73 74.6811 306.087 75.6498 305.459 80.1405C304.817 84.7212 294.501 103.317 289.423 112.042C290.762 88.1107 287.621 73.8958 285.149 62.7086ZM299.044 225.741C279.157 253.226 262.96 305.358 257.347 327.989C260.071 325.149 263.083 321.832 266.346 318.24C277.489 305.972 291.556 290.484 307.062 279.728C327.109 265.823 345.552 238.829 355.175 221.651C364.797 204.474 388.051 134.945 380.032 129.219C374.125 125.001 362.561 138.984 352.713 150.891C349.192 155.147 345.891 159.139 343.147 161.939C337.632 167.564 332.567 175.478 325.338 186.771C318.902 196.826 310.752 209.56 299.044 225.741ZM327.911 80.1404C319.892 94.5915 302.251 126.602 295.836 145.579C289.421 164.556 287.283 197.112 287.016 210.2C288.35 208.228 290.01 205.892 291.871 203.273C300.822 190.676 314.444 171.505 319.09 154.577C324.704 134.127 327.911 97.8634 327.911 80.1404ZM358.382 46.6031C357.099 52.4926 346.621 106.861 341.543 133.309C351.432 122.403 372.335 99.6084 376.825 95.6821C382.438 90.7742 384.042 79.3224 374.419 79.3224C368.143 79.3224 368.349 71.6663 368.583 62.9368C368.708 58.2828 368.841 53.3238 368.004 49.0571C365.599 36.7873 359.986 39.2413 358.382 46.6031ZM475.404 161.629L475.408 161.627C482.261 157.14 487.383 153.787 488.287 152.941C491.627 149.816 480.171 150.483 473.049 152.941C471.585 153.446 469.949 154.194 468.228 154.98C461.582 158.017 453.665 161.634 449.423 154.138C446.474 148.927 441.006 153.305 440.173 157.849C440.033 158.609 439.795 160.107 439.481 162.081L439.479 162.091C438.292 169.554 436.026 183.797 433.935 190.672C442.008 183.493 462.011 170.397 475.404 161.629ZM399.277 193.84C391.259 206.11 380.032 237.193 380.032 237.193C380.032 237.193 406.494 214.29 412.909 201.202C419.324 188.114 407.296 181.57 399.277 193.84ZM321.496 299.36L247.724 394.246C247.724 394.246 264.563 345.167 287.818 321.445C298.995 310.043 321.496 299.36 321.496 299.36ZM283.006 425.329C275.725 423.207 273.983 420.272 272.034 416.99C270.978 415.212 269.862 413.332 267.771 411.423C303.167 413.373 352.769 444.143 354.373 452.322C355.976 460.502 349.561 469.741 338.335 468.682C331.532 468.041 329.066 464.582 326.8 461.405C325.327 459.338 323.938 457.39 321.496 456.412C318.357 455.155 315.399 456.011 312.539 456.839C309.291 457.78 306.17 458.683 303.053 456.412C300.983 454.904 299.577 450.825 297.939 446.076C295.134 437.945 291.652 427.849 283.006 425.329ZM428.946 447.415C428.946 447.415 415.975 455.055 396.872 449.869C375.699 444.121 359.606 431.901 342.454 418.877C338.49 415.867 334.47 412.814 330.317 409.788C316.845 399.972 286.214 392.065 276.591 390.974C276.591 390.974 304.657 388.343 325.505 393.428C341.513 397.332 352.99 405.538 364.975 414.107C372.788 419.693 380.816 425.433 390.457 430.237C406.497 438.23 428.946 447.415 428.946 447.415ZM376.879 398.385C389.529 408.525 399.912 416.848 416.117 419.603C419.862 420.24 420.385 416.992 420.968 413.374C421.37 410.88 421.8 408.21 423.333 406.515C425 404.673 426.923 404.144 428.548 403.696C430.586 403.135 432.154 402.703 432.154 399.972C432.154 395.064 385.087 380.431 355.976 382.794C364.089 388.133 370.75 393.473 376.879 398.385ZM320.694 336.987C309.45 344.636 314.314 363.981 326.326 363.981C338.338 363.981 411.324 361.527 436.166 355.801C461.008 350.075 459.966 336.784 429.751 321.445C399.536 306.106 361.756 306.602 320.694 336.987ZM482.672 257.642C470.644 260.914 351.967 295.27 351.967 295.27C402.027 231.802 450.174 235.998 469.104 237.648C471.4 237.848 473.265 238.011 474.653 238.011C487.483 238.011 494.7 254.37 482.672 257.642ZM437.767 211.836C444.361 216.377 450.584 217.563 462.625 219.198C462.625 219.198 488.285 190.568 490.69 188.114C493.096 185.66 495.502 173.391 482.672 180.752C469.842 188.114 437.767 211.836 437.767 211.836ZM515.548 265.822L420.928 299.36C424.422 299.36 428.429 299.657 432.793 299.98C447.122 301.041 465.306 302.388 481.87 294.452C497.366 287.027 509.668 273.73 515.548 265.822ZM453.001 376.25C458.614 369.707 480.107 367.58 482.673 372.16C485.881 377.886 471.445 386.884 464.229 386.884C457.012 386.884 447.388 382.794 453.001 376.25Z"
    fill="white"
    fill-opacity="0.1"
  />
</svg>
